<svg width="99" height="47" viewBox="0 0 99 47" fill="none" xmlns="http://www.w3.org/2000/svg">
<path fill-rule="evenodd" clip-rule="evenodd" d="M19.258 11.0178C19.0095 11.0197 18.6977 11.0229 18.274 11.028C17.5977 11.0456 17.0847 11.0861 16.5819 11.1744C15.9692 11.2819 15.4146 11.4588 14.8842 11.723C14.3453 11.9909 13.8518 12.3415 13.4236 12.7606C12.9959 13.1784 12.637 13.6615 12.3617 14.1901C12.0911 14.7099 11.9099 15.2536 11.799 15.8556C11.7084 16.3483 11.6673 16.8491 11.6494 17.5038L11.6432 17.7766C11.6416 17.8702 11.6403 17.9671 11.6394 18.0691L11.6365 18.6616L11.6365 28.3513L11.6383 28.7739C11.6397 29.0429 11.6431 29.2745 11.6494 29.4969C11.6674 30.1511 11.7085 30.652 11.799 31.144C11.9099 31.7465 12.0912 32.2905 12.3616 32.81C12.637 33.3383 12.9958 33.8213 13.4239 34.2399C13.8525 34.659 14.3461 35.0097 14.8849 35.2775C15.4146 35.5414 15.9692 35.7183 16.5821 35.8258C17.039 35.9061 17.5045 35.9468 18.0855 35.9667L18.5209 35.9772C18.7473 35.9804 19.0819 35.9821 19.7499 35.9841L29.2232 35.9827C29.4743 35.981 29.7778 35.9779 30.2413 35.9723C30.9176 35.9546 31.4307 35.9142 31.9335 35.8258C32.5461 35.7183 33.1008 35.5414 33.6311 35.2772C34.1695 35.0093 34.6632 34.6586 35.0914 34.2399C35.5198 33.821 35.8786 33.3379 36.1533 32.8099C36.4241 32.2906 36.6055 31.7462 36.716 31.1437C36.7983 30.6961 36.8401 30.2398 36.8605 29.6707L36.866 29.4964C36.8697 29.3632 36.8724 29.2266 36.8743 29.0807L36.8787 27.9322L36.878 18.4336L36.8743 17.9196C36.8724 17.7736 36.8697 17.6368 36.8659 17.5033C36.848 16.8518 36.8066 16.349 36.716 15.8559C36.6055 15.2538 36.4242 14.7097 36.153 14.1897C35.8787 13.662 35.5197 13.1787 35.0911 12.7601C34.6639 12.3419 34.1702 11.9913 33.6307 11.7229C33.1008 11.4588 32.5461 11.2819 31.9332 11.1744C31.4763 11.0941 31.0108 11.0534 30.4298 11.0335L29.9298 11.0222C29.89 11.0217 29.8469 11.0213 29.7996 11.0209L19.258 11.0178Z" fill="#1A1A1A" fill-opacity="0.01"/>
<path fill-rule="evenodd" clip-rule="evenodd" d="M18.2833 11.7623L19.2995 11.752L29.8728 11.756C30.0331 11.7576 30.1328 11.7596 30.2325 11.7623C30.7567 11.776 31.2854 11.8064 31.8038 11.8975C32.3301 11.9898 32.8195 12.1408 33.2973 12.3789C33.7668 12.6125 34.197 12.9178 34.5697 13.2826C34.9424 13.6466 35.2546 14.0669 35.4935 14.5264C35.7373 14.9941 35.8914 15.4727 35.9858 15.9873C36.0789 16.4942 36.11 17.0112 36.124 17.5238C36.1307 17.759 36.1336 17.9943 36.1348 18.2299L36.1363 18.6488L36.1365 27.9322C36.1365 28.2116 36.1365 28.491 36.1348 28.7708C36.1336 29.006 36.1307 29.2412 36.124 29.4765C36.11 29.9887 36.0789 30.5061 35.9858 31.0126C35.8914 31.5272 35.7373 32.0062 35.4935 32.4739C35.2546 32.933 34.9424 33.3533 34.5697 33.7177C34.197 34.0821 33.7668 34.3877 33.2973 34.6213C32.8195 34.8594 32.3301 35.0105 31.8038 35.1028C31.2854 35.1939 30.7567 35.2242 30.2325 35.238L28.6533 35.2502L18.6427 35.2443C18.4824 35.2427 18.3829 35.2407 18.2833 35.238C17.7591 35.2242 17.2304 35.1939 16.712 35.1028C16.1857 35.0105 15.6963 34.8594 15.2185 34.6213C14.7485 34.3877 14.3188 34.0821 13.9461 33.7177C13.5735 33.3533 13.2612 32.933 13.0219 32.4739C12.7785 32.0062 12.6244 31.5272 12.5296 31.0126C12.4364 30.5061 12.4058 29.9887 12.3917 29.4765C12.3851 29.2412 12.3822 29.006 12.381 28.7708L12.3792 28.3513L12.3789 19.0681C12.3789 18.7887 12.3789 18.5089 12.381 18.2299C12.3822 17.9943 12.3851 17.759 12.3917 17.5238C12.4058 17.0112 12.4364 16.4942 12.5296 15.9873C12.6244 15.4727 12.7785 14.9941 13.0219 14.5264C13.2612 14.0669 13.5735 13.6466 13.9461 13.2826C14.3188 12.9178 14.7485 12.6125 15.2185 12.3789C15.6963 12.1408 16.1857 11.9898 16.712 11.8975C17.2304 11.8064 17.7591 11.776 18.2833 11.7623Z" fill="#1A1A1A" fill-opacity="0.01"/>
<mask id="mask0_1_5546" style="mask-type:alpha" maskUnits="userSpaceOnUse" x="12" y="11" width="25" height="25">
<path fill-rule="evenodd" clip-rule="evenodd" d="M18.2833 11.7623L19.2995 11.752L29.8728 11.756C30.0331 11.7576 30.1328 11.7596 30.2325 11.7623C30.7567 11.776 31.2854 11.8064 31.8038 11.8975C32.3301 11.9898 32.8195 12.1408 33.2973 12.3789C33.7668 12.6125 34.197 12.9178 34.5697 13.2826C34.9424 13.6466 35.2546 14.0669 35.4935 14.5264C35.7373 14.9941 35.8914 15.4727 35.9858 15.9873C36.0789 16.4942 36.11 17.0112 36.124 17.5238C36.1307 17.759 36.1336 17.9943 36.1348 18.2299L36.1363 18.6488L36.1365 27.9322C36.1365 28.2116 36.1365 28.491 36.1348 28.7708C36.1336 29.006 36.1307 29.2412 36.124 29.4765C36.11 29.9887 36.0789 30.5061 35.9858 31.0126C35.8914 31.5272 35.7373 32.0062 35.4935 32.4739C35.2546 32.933 34.9424 33.3533 34.5697 33.7177C34.197 34.0821 33.7668 34.3877 33.2973 34.6213C32.8195 34.8594 32.3301 35.0105 31.8038 35.1028C31.2854 35.1939 30.7567 35.2242 30.2325 35.238L28.6533 35.2502L18.6427 35.2443C18.4824 35.2427 18.3829 35.2407 18.2833 35.238C17.7591 35.2242 17.2304 35.1939 16.712 35.1028C16.1857 35.0105 15.6963 34.8594 15.2185 34.6213C14.7485 34.3877 14.3188 34.0821 13.9461 33.7177C13.5735 33.3533 13.2612 32.933 13.0219 32.4739C12.7785 32.0062 12.6244 31.5272 12.5296 31.0126C12.4364 30.5061 12.4058 29.9887 12.3917 29.4765C12.3851 29.2412 12.3822 29.006 12.381 28.7708L12.3792 28.3513L12.3789 19.0681C12.3789 18.7887 12.3789 18.5089 12.381 18.2299C12.3822 17.9943 12.3851 17.759 12.3917 17.5238C12.4058 17.0112 12.4364 16.4942 12.5296 15.9873C12.6244 15.4727 12.7785 14.9941 13.0219 14.5264C13.2612 14.0669 13.5735 13.6466 13.9461 13.2826C14.3188 12.9178 14.7485 12.6125 15.2185 12.3789C15.6963 12.1408 16.1857 11.9898 16.712 11.8975C17.2304 11.8064 17.7591 11.776 18.2833 11.7623Z" fill="white"/>
</mask>
<g mask="url(#mask0_1_5546)">
<path d="M36.1365 11.7498H12.3789V35.2498H36.1365V11.7498Z" fill="#19AA1E"/>
<path fill-rule="evenodd" clip-rule="evenodd" d="M12.3789 11.7498H36.1365V19.4607L12.3789 15.7888V11.7498Z" fill="#FFB919"/>
<path fill-rule="evenodd" clip-rule="evenodd" d="M12.3789 32.6794L36.1365 29.0076V35.2498H12.3789V32.6794Z" fill="#82D714"/>
<path fill-rule="evenodd" clip-rule="evenodd" d="M12.3789 15.324L20.6717 16.6056C21.704 15.9593 22.9321 15.6049 24.2577 15.6049C26.0937 15.6049 27.7427 16.2848 28.9435 17.4786C29.095 17.6292 29.2379 17.7867 29.3719 17.9503L36.1365 18.9958V19.9249L30.0588 18.9856C30.5103 19.8427 30.7539 20.7976 30.7539 21.7722C30.7539 23.0312 30.4692 24.2865 29.8807 25.5468L29.8628 25.585L29.6128 26.1148H29.0218C27.8014 26.1148 26.9918 26.4759 26.4625 27.1159C26.0469 27.6184 25.8066 28.2958 25.7257 29.0349L25.7233 29.058L25.7114 29.1761L25.7064 29.2275L25.6968 29.328C25.6659 29.6579 25.6452 29.9378 25.6347 30.1658L36.1365 28.5427V29.4718L12.3789 33.1437V32.2146L22.8926 30.5896L22.8879 30.381L22.8865 30.3222L22.8857 30.292L22.8841 30.2455C22.8746 29.9926 22.8511 29.6683 22.8136 29.2754L22.8064 29.2009L22.7936 29.0719C22.7181 28.3289 22.4814 27.6429 22.0669 27.1329C21.5431 26.4886 20.741 26.1222 19.5304 26.1149L19.4936 26.1148H18.9026L18.6526 25.585C18.052 24.3119 17.7615 23.0439 17.7615 21.7722C17.7615 20.1729 18.4174 18.6264 19.5719 17.4786C19.6053 17.4454 19.6389 17.4127 19.6729 17.3804L12.3789 16.253V15.324Z" fill="white"/>
<path fill-rule="evenodd" clip-rule="evenodd" d="M24.2576 16.5232C27.5744 16.5232 29.8258 19.0485 29.8258 21.7725C29.8258 22.8661 29.5846 24.0041 29.0217 25.1972C25.758 25.1972 24.9524 27.5091 24.8001 28.9638L24.7904 29.0607C24.7388 29.5799 24.7089 29.9964 24.7008 30.3105L23.8167 30.4471L23.8165 30.4188C23.8132 30.0896 23.7817 29.6279 23.7222 29.0335L23.7196 29.0076C23.5789 27.556 22.7902 25.1972 19.4935 25.1972C18.9307 24.0041 18.6895 22.8661 18.6895 21.7725C18.6895 19.0485 20.9409 16.5232 24.2576 16.5232Z" fill="#0073FA"/>
</g>
<path fill-rule="evenodd" clip-rule="evenodd" d="M47.1248 17.4414C44.2293 17.4414 42.0577 19.1855 42.0763 22.2148H44.7676C44.7305 21.0031 45.51 19.8281 47.1248 19.8281C48.3498 19.8281 49.1293 20.6359 49.1293 21.6641C49.1293 22.7289 48.2755 23.3164 46.902 23.9773C45.1017 24.8402 44.0252 25.2441 42.0763 25.8867V29.375H52.099V26.9883H45.7142C46.6444 26.6047 47.5502 26.1834 48.3683 25.7949C50.5399 24.7668 51.8206 23.6102 51.8206 21.5355C51.8206 19.0387 49.9274 17.4414 47.1248 17.4414ZM56.1824 20.0117H61.3793V17.625H53.5839V29.375H56.1824V20.0117ZM65.4627 17.625H62.8642V29.375H65.4441L70.2884 21.866V29.375H72.8869V17.625H70.2884L65.4627 25.134V17.625ZM85.935 24.9688H83.2437C82.8354 26.2723 81.5918 27.1719 80.1255 27.1719C77.9911 27.1719 76.599 25.3543 76.599 23.5C76.599 21.6457 77.9539 19.8281 80.1998 19.8281C81.6846 19.8281 82.8354 20.7277 83.2437 22.0312H85.935C85.5452 19.4059 83.4479 17.4414 80.1255 17.4414C76.4505 17.4414 74.0005 19.9934 74.0005 23.5C74.0005 27.0066 76.4505 29.5586 80.1255 29.5586C83.4479 29.5586 85.5452 27.6309 85.935 24.9688Z" fill="#1A1A1A"/>
</svg>
