<svg width="90" height="22" viewBox="0 0 90 22" fill="none" xmlns="http://www.w3.org/2000/svg">
<g clip-path="url(#clip0_1_5503)">
<path d="M79.3223 0V15.027H82.0266V10.5534L85.9884 15.027H89.4994L84.5987 9.48118L89.1614 4.62006H85.7254L82.0266 8.63229V0H79.3223Z" fill="#EF3124"/>
<mask id="mask0_1_5503" style="mask-type:luminance" maskUnits="userSpaceOnUse" x="0" y="0" width="90" height="22">
<path d="M89.5 0H0.5V22H89.5V0Z" fill="white"/>
</mask>
<g mask="url(#mask0_1_5503)">
<path d="M73.6334 4.17726C72.0754 4.17726 71.0793 4.99065 70.591 5.76707V4.62093H67.8867V15.0264H70.591V8.66866C70.591 7.22674 71.3047 6.56123 72.5441 6.56123C73.7836 6.56123 74.4401 7.22674 74.4401 8.66866V15.0264H77.1444V8.53851C77.1444 5.69165 75.9245 4.17578 73.6334 4.17578" fill="#EF3124"/>
<path d="M24.9836 3.75195C24.9836 2.73595 25.4148 2.27306 26.4108 2.27306H29.4532V0H25.6416C23.4436 0 22.2793 1.12692 22.2793 3.25356V5.26781H19.8574V7.67101H22.2793V15.027H24.9836V7.67101H27.6308V5.26781H24.9836V3.75195Z" fill="#EF3124"/>
<path d="M18.4484 0H15.7441V15.027H18.4484V0Z" fill="#EF3124"/>
<path d="M14.953 19.043H0.5V21.9993H14.953V19.043Z" fill="#EF3124"/>
<path d="M10.3545 2.51471C9.94281 1.30497 9.46806 0.349609 7.83947 0.349609C6.21088 0.349609 5.70608 1.30054 5.27339 2.51471L0.800781 15.0276H3.7665L4.79864 12.0536H10.5047L11.4617 15.0276H14.6152L10.3545 2.51471ZM5.66251 9.54093L7.68923 3.61057H7.76435L9.6784 9.54093H5.66101H5.66251Z" fill="#EF3124"/>
<path d="M65.5214 11.8295V8.33638C65.5214 5.78529 63.8688 4.17773 61.0908 4.17773C58.3129 4.17773 56.6964 5.87846 56.5657 7.65313H59.3075C59.4007 7.26566 59.8138 6.60016 61.0908 6.60016C62.1425 6.60016 62.8186 7.0808 62.8186 8.33786H60.1338C57.73 8.33786 56.3027 9.57569 56.3027 11.6461C56.3027 13.7166 57.8637 15.2872 60.1143 15.2872C61.7639 15.2872 62.6804 14.5196 63.0815 13.9384C63.4376 14.6409 64.2263 15.0284 65.26 15.0284H66.199V12.6252C65.7107 12.6252 65.5229 12.4033 65.5229 11.8295M62.8186 11.1463C62.8186 12.3471 61.9547 13.0319 60.8279 13.0319C59.8514 13.0319 59.0822 12.6799 59.0822 11.6461C59.0822 10.6124 59.9265 10.463 60.6597 10.463H62.8186V11.1463Z" fill="#EF3124"/>
<path d="M37.4702 11.8295V8.33638C37.4702 5.78529 35.8175 4.17773 33.0381 4.17773C30.2587 4.17773 28.6436 5.87846 28.5129 7.65313H31.2548C31.3479 7.26566 31.7626 6.60016 33.0381 6.60016C34.0898 6.60016 34.7659 7.0808 34.7659 8.33786H32.0811C29.6773 8.33786 28.25 9.57569 28.25 11.6461C28.25 13.7166 29.811 15.2872 32.0616 15.2872C33.7112 15.2872 34.6276 14.5196 35.0288 13.9384C35.3863 14.6409 36.1736 15.0284 37.2072 15.0284H38.1462V12.6252C37.658 12.6252 37.4702 12.4033 37.4702 11.8295ZM34.7659 11.1463C34.7659 12.3471 33.902 13.0319 32.7752 13.0319C31.7986 13.0319 31.0294 12.6799 31.0294 11.6461C31.0294 10.6124 31.8738 10.463 32.6069 10.463H34.7659V11.1463Z" fill="#EF3124"/>
<path d="M52.6044 7.39295C53.6185 6.94928 54.538 5.91406 54.538 4.45439C54.538 1.99647 52.9049 0.517578 50.163 0.517578H43.1409V15.027H49.9196C53.0747 15.027 54.858 13.4934 54.858 10.8121C54.858 8.90881 53.7507 7.81739 52.6044 7.39295ZM45.9383 3.04944H49.8445C51.0089 3.04944 51.6279 3.5848 51.6279 4.67622C51.6279 5.76765 51.0089 6.303 49.8626 6.303H45.9383V3.04944ZM49.5996 12.4936H45.9383V8.79642H49.5996C51.1576 8.79642 51.9464 9.42495 51.9464 10.645C51.9464 11.8651 51.1396 12.4936 49.5996 12.4936Z" fill="#EF3124"/>
</g>
</g>
<defs>
<clipPath id="clip0_1_5503">
<rect width="89" height="22" fill="white" transform="translate(0.5)"/>
</clipPath>
</defs>
</svg>
