<svg width="110" height="23" viewBox="0 0 110 23" fill="none" xmlns="http://www.w3.org/2000/svg">
<g clip-path="url(#clip0_1_5523)">
<mask id="mask0_1_5523" style="mask-type:luminance" maskUnits="userSpaceOnUse" x="0" y="0" width="110" height="23">
<path d="M110 0H0V23H110V0Z" fill="white"/>
</mask>
<g mask="url(#mask0_1_5523)">
<path fill-rule="evenodd" clip-rule="evenodd" d="M6.55824 0H16.4183C18.6987 0 19.5257 0.237684 20.3593 0.684006C21.193 1.13033 21.8473 1.78529 22.2932 2.61983C22.7391 3.45437 22.9765 4.28217 22.9765 6.56495V16.4351C22.9765 18.7178 22.7391 19.5456 22.2932 20.3802C21.8473 21.2147 21.193 21.8697 20.3593 22.316C19.5257 22.7623 18.6987 23 16.4183 23H6.55824C4.27779 23 3.45084 22.7623 2.61716 22.316C1.78346 21.8697 1.12917 21.2147 0.683307 20.3802C0.237441 19.5456 0 18.7178 0 16.4351V6.56495C0 4.28217 0.237441 3.45437 0.683307 2.61983C1.12917 1.78529 1.78346 1.13033 2.61716 0.684006C3.45084 0.237684 4.27779 0 6.55824 0Z" fill="#0C73FE"/>
<path d="M9.57997 12.3633C9.36537 12.3633 9.19141 12.5374 9.19141 12.7522V12.9522L9.19189 12.9619C9.23233 13.7715 9.84247 14.5822 10.8806 14.6621L10.8955 14.6633H11.1005C11.3151 14.6633 11.4891 14.4891 11.4891 14.2743C11.4891 14.0595 11.3151 13.8853 11.1005 13.8853H10.9263C10.3296 13.8329 9.99518 13.384 9.96856 12.932V12.7522C9.96856 12.5374 9.7946 12.3633 9.57997 12.3633Z" fill="white"/>
<path fill-rule="evenodd" clip-rule="evenodd" d="M10.6445 6.07734C8.63606 6.16586 7.0834 7.81617 6.98259 9.82602C6.93201 10.8341 6.89258 11.7355 6.89258 12.5733C6.89258 13.3548 6.9269 14.1373 6.97254 15.0366C7.07406 17.0365 8.62414 18.672 10.6226 18.7616C10.9252 18.7752 11.2185 18.7833 11.4879 18.7833C11.7657 18.7833 12.0689 18.7747 12.3816 18.7603C14.3671 18.6692 15.9114 17.053 16.0093 15.0659C16.0519 14.2008 16.0832 13.4277 16.0832 12.5733C16.0832 11.6191 16.0483 10.7388 16.0021 9.78796C15.9053 7.79472 14.3599 6.16948 12.3683 6.07901C12.0603 6.06501 11.7618 6.05664 11.4879 6.05664C11.225 6.05664 10.9393 6.06435 10.6445 6.07734ZM8.09948 10.0565C8.17561 8.52463 9.33762 7.27337 10.8344 7.20431C11.063 7.19379 11.2845 7.18749 11.4879 7.18749C11.7014 7.18749 11.9349 7.19442 12.1756 7.20592C13.6567 7.27676 14.8111 8.5045 14.8828 10.0207C14.8896 10.1652 14.896 10.2884 14.9018 10.4C14.9215 10.7785 14.9344 11.0265 14.9344 11.5406C14.9344 12.0478 14.9203 12.3364 14.8991 12.7705C14.8957 12.8402 14.8921 12.9138 14.8884 12.9925C14.8167 14.5029 13.6635 15.722 12.1881 15.7935C11.943 15.8053 11.7051 15.8125 11.4879 15.8125C11.2786 15.8125 11.05 15.8058 10.8143 15.7947C9.32671 15.7246 8.1672 14.4873 8.09158 12.9647C8.08664 12.8654 8.08196 12.7743 8.07753 12.6891L8.0775 12.6884C8.05588 12.2693 8.04143 11.9897 8.04143 11.5406C8.04143 11.1092 8.05476 10.8723 8.07498 10.5126C8.08233 10.3819 8.0906 10.2349 8.09948 10.0565Z" fill="white"/>
<path fill-rule="evenodd" clip-rule="evenodd" d="M6.55776 1.4375H16.4178C18.5819 1.4375 19.1412 1.66228 19.6816 1.95161C20.2651 2.26396 20.7144 2.71372 21.0264 3.29777C21.3154 3.83876 21.54 4.39864 21.54 6.56495V6.90612C21.54 7.06301 21.4143 7.19072 21.2578 7.19736C21.2096 7.1994 21.1608 7.20173 21.1118 7.20432C19.8021 7.27338 18.7853 8.52463 18.7187 10.0565C18.711 10.2338 18.7038 10.3802 18.6974 10.5103L18.6973 10.5119L18.6973 10.5126C18.6796 10.8723 18.6679 11.1092 18.6679 11.5406C18.6679 11.9897 18.6806 12.2695 18.6995 12.6886C18.7034 12.774 18.7075 12.8651 18.7118 12.9648C18.778 14.4873 19.7926 15.7246 21.0942 15.7947C21.1492 15.7977 21.2038 15.8003 21.2578 15.8026C21.4143 15.8093 21.54 15.937 21.54 16.0939V16.4351C21.54 18.6014 21.3154 19.1612 21.0264 19.7022C20.7144 20.2863 20.2651 20.7361 19.6816 21.0484C19.1412 21.3377 18.5819 21.5625 16.4178 21.5625H6.55776C4.39366 21.5625 3.83435 21.3377 3.29392 21.0484C2.71046 20.7361 2.26116 20.2863 1.94913 19.7022C1.6601 19.1612 1.43555 18.6014 1.43555 16.4351V16.0939C1.43555 15.937 1.56119 15.8093 1.71776 15.8026C1.77931 15.8 1.8417 15.7969 1.90463 15.7935C3.19558 15.722 4.20462 14.5029 4.26737 12.9926C4.27059 12.915 4.27369 12.8426 4.27662 12.7739L4.27676 12.7704C4.29529 12.3363 4.30761 12.0478 4.30761 11.5406C4.30761 11.0265 4.29632 10.7783 4.27909 10.3998C4.27401 10.2882 4.26841 10.1652 4.26243 10.0207C4.19976 8.50451 3.18966 7.27677 1.89369 7.20593C1.83447 7.20271 1.77574 7.19983 1.71776 7.19736C1.56119 7.19072 1.43555 7.06301 1.43555 6.90612V6.56495C1.43555 4.39864 1.6601 3.83876 1.94913 3.29777C2.26116 2.71372 2.71046 2.26396 3.29392 1.95161C3.83435 1.66228 4.39366 1.4375 6.55776 1.4375ZM10.6006 5.08162C8.04367 5.19429 6.11284 7.28887 5.98808 9.77604C5.93753 10.7841 5.89684 11.7078 5.89684 12.5733C5.89684 13.3822 5.93236 14.1866 5.97809 15.0872C6.104 17.5681 8.03558 19.6432 10.5779 19.7573C10.8908 19.7713 11.1996 19.7799 11.4878 19.7799C11.785 19.7799 12.1041 19.7708 12.4272 19.7559C14.951 19.64 16.8817 17.5891 17.0036 15.1149C17.0464 14.2452 17.0788 13.4526 17.0788 12.5733C17.0788 11.5946 17.043 10.6953 16.9965 9.73952C16.8761 7.26133 14.9462 5.1984 12.4134 5.08334C12.0951 5.06888 11.7808 5.05997 11.4878 5.05997C11.2065 5.05997 10.9056 5.06816 10.6006 5.08162Z" fill="white"/>
<path d="M89.3857 5.70191C88.9534 6.12902 88.3061 6.31391 87.4542 6.31391C86.6047 6.31391 85.9398 6.12902 85.5202 5.70191C85.0879 5.29044 84.8906 4.65759 84.8906 3.84244V3.73828H86.2735V3.84244C86.2735 4.27996 86.3697 4.56122 86.5314 4.71489L86.5366 4.72009C86.7009 4.88937 87.0042 4.97272 87.4516 4.97272C87.8991 4.97272 88.1875 4.88937 88.3517 4.72009L88.3566 4.71489C88.5235 4.56122 88.6324 4.27737 88.6324 3.84244V3.73828H90.0152V3.84244C90.0152 4.66021 89.8004 5.29302 89.3857 5.70191Z" fill="#0C131D"/>
<path fill-rule="evenodd" clip-rule="evenodd" d="M80.3532 13.9287C80.4871 13.7438 80.5781 13.512 80.6413 13.2047L80.6617 13.1188H82.2695L82.2517 13.2385C82.171 13.7646 82.0216 14.2151 81.7841 14.5797C81.5515 14.9574 81.2657 15.2542 80.9118 15.4782C80.5603 15.7022 80.1611 15.8558 79.7159 15.9574C79.2532 16.059 78.7604 16.0928 78.2219 16.0928C77.5518 16.0928 76.9605 16.0251 76.432 15.8715C75.901 15.736 75.4334 15.4782 75.0643 15.1319C74.695 14.7829 74.4121 14.3167 74.2122 13.7385C74.0126 13.1734 73.9141 12.4625 73.9141 11.6213C73.9141 10.7619 74.01 10.0327 74.2096 9.45192C74.4069 8.87376 74.6901 8.39197 75.0592 8.02739L75.0617 8.02477C75.4282 7.68101 75.8809 7.42318 76.4116 7.26954H76.4142C76.9401 7.13413 77.5317 7.05078 78.1865 7.05078C79.4327 7.05078 80.429 7.3737 81.1646 8.02739C81.8878 8.68887 82.2491 9.68629 82.2491 11.0067V12.2281H75.5345C75.5445 12.7073 75.6204 13.1057 75.7367 13.4026C75.8605 13.7203 76.0451 13.9729 76.2726 14.1605C76.5004 14.3506 76.7758 14.4756 77.1021 14.5407C77.4355 14.6058 77.8023 14.6396 78.2167 14.6396C78.5378 14.6396 78.8236 14.624 79.1068 14.5745H79.1119C79.3721 14.5407 79.6048 14.4626 79.8222 14.3506L79.8248 14.348H79.8273C80.0344 14.2568 80.199 14.1188 80.3532 13.9287ZM76.3358 8.97534C76.1083 9.14723 75.9239 9.38422 75.7846 9.70193C75.6557 9.99622 75.5776 10.366 75.5523 10.84H80.6034C80.5959 10.3973 80.5327 10.0431 80.4187 9.74883C80.2949 9.42849 80.1407 9.19409 79.931 9.00659C79.7185 8.8321 79.4732 8.7071 79.18 8.62637C78.8793 8.56125 78.5456 8.51177 78.184 8.51177C77.8023 8.51177 77.4685 8.54564 77.1526 8.61073C76.8441 8.67326 76.5658 8.80085 76.3358 8.97534Z" fill="#0C131D"/>
<path d="M93.6446 13.0289C93.675 12.6825 93.7078 12.2372 93.7078 11.6747V7.30469H100.478V15.8467H98.8525V8.76309H95.2854V11.8752C95.2854 13.2164 95.0907 14.2216 94.7216 14.8623C94.3425 15.5342 93.723 15.8467 92.8861 15.8467H92.5273V14.305H92.6284C92.8306 14.305 92.9898 14.2711 93.1138 14.2008L93.1187 14.1982L93.1213 14.1956C93.2376 14.1435 93.3539 14.0159 93.445 13.8284C93.5334 13.6435 93.5966 13.3909 93.6446 13.0289Z" fill="#0C131D"/>
<path d="M71.3017 13.0068C71.2383 13.3453 71.1297 13.6136 70.9956 13.8167C70.8413 14.0381 70.6748 14.1943 70.4775 14.3193C70.2626 14.4443 70.0326 14.5251 69.7669 14.5719C69.484 14.6214 69.1982 14.637 68.8771 14.637C68.4449 14.637 68.0655 14.6032 67.7344 14.5224C67.3932 14.4417 67.12 14.3011 66.9104 14.0849L66.9078 14.0823C66.6803 13.8636 66.5109 13.5641 66.3845 13.176C66.2604 12.7906 66.1946 12.2698 66.1946 11.6265C66.1946 10.9676 66.2578 10.4442 66.3845 10.0249C66.5109 9.61861 66.6803 9.30348 66.9078 9.08734L66.9104 9.08472C67.12 8.86858 67.3932 8.72532 67.7344 8.6472C68.0655 8.56647 68.4472 8.517 68.8771 8.517C69.1755 8.517 69.461 8.54825 69.7189 8.58208C69.9668 8.63156 70.1969 8.70971 70.4117 8.83471C70.609 8.95972 70.7782 9.11859 70.9324 9.32432C71.0691 9.52744 71.1777 9.78007 71.2383 10.1004L71.2535 10.1837H72.8817L72.859 10.0613C72.7605 9.50401 72.6111 9.02222 72.3762 8.63938C72.1435 8.26178 71.8578 7.95186 71.524 7.70967L71.5215 7.70705C71.1877 7.48309 70.7859 7.31122 70.341 7.20965C69.8806 7.10807 69.403 7.05859 68.8797 7.05859C68.2071 7.05859 67.618 7.14194 67.0922 7.27735H67.0896C66.5588 7.43099 66.0912 7.68882 65.7219 8.03259L65.7196 8.0352C65.3503 8.39981 65.0671 8.88157 64.87 9.45974C64.6701 10.0405 64.5742 10.7697 64.5742 11.6291C64.5742 12.4703 64.6727 13.1813 64.87 13.7464C65.0671 14.3245 65.3528 14.7907 65.7219 15.1397C66.0912 15.486 66.5588 15.7439 67.0896 15.8793C67.618 16.0329 68.2097 16.1006 68.8797 16.1006C69.4205 16.1006 69.9137 16.0512 70.3738 15.9496C70.8212 15.848 71.2207 15.6761 71.572 15.434C71.9261 15.1917 72.2093 14.8818 72.4442 14.486C72.6795 14.1031 72.8285 13.6214 72.9121 13.0458L72.9296 12.926H71.3218L71.3017 13.0068Z" fill="#0C131D"/>
<path d="M108.372 13.0068L108.387 12.9208V12.926H110L109.982 13.0458C109.899 13.6214 109.75 14.1031 109.515 14.486C109.279 14.8818 108.996 15.1917 108.642 15.434C108.291 15.6761 107.892 15.848 107.444 15.9496C106.984 16.0512 106.491 16.1006 105.95 16.1006C105.28 16.1006 104.688 16.0329 104.16 15.8793C103.629 15.7439 103.161 15.486 102.792 15.1397C102.423 14.7907 102.14 14.3245 101.94 13.7464C101.743 13.1813 101.645 12.4703 101.645 11.6291C101.645 10.7697 101.74 10.0405 101.94 9.45974C102.137 8.88157 102.421 8.39981 102.79 8.0352L102.792 8.03259C103.161 7.68882 103.629 7.43099 104.16 7.27735H104.162C104.688 7.14194 105.277 7.05859 105.95 7.05859C106.473 7.05859 106.951 7.10807 107.411 7.20965C107.859 7.31122 108.258 7.48309 108.592 7.70705L108.594 7.70967C108.928 7.95186 109.214 8.26178 109.446 8.63938C109.681 9.02222 109.83 9.50401 109.929 10.0613L109.952 10.1837H108.324L108.309 10.1004C108.248 9.78007 108.139 9.52744 108.003 9.32432C107.848 9.11859 107.679 8.95972 107.482 8.83471C107.267 8.70971 107.037 8.63156 106.789 8.58208C106.531 8.54825 106.246 8.517 105.947 8.517C105.518 8.517 105.136 8.56647 104.805 8.6472C104.463 8.72532 104.19 8.86858 103.98 9.08472L103.978 9.08734C103.75 9.30348 103.581 9.61861 103.455 10.0249C103.328 10.4442 103.265 10.9676 103.265 11.6265C103.265 12.2698 103.331 12.7906 103.455 13.176C103.581 13.5641 103.75 13.8636 103.978 14.0823L103.98 14.0849C104.19 14.3011 104.463 14.4417 104.805 14.5224C105.136 14.6032 105.515 14.637 105.947 14.637C106.268 14.637 106.554 14.6214 106.837 14.5719C107.103 14.5251 107.333 14.4443 107.548 14.3193C107.745 14.1943 107.912 14.0381 108.066 13.8167C108.2 13.6136 108.309 13.3453 108.372 13.0068Z" fill="#0C131D"/>
<path fill-rule="evenodd" clip-rule="evenodd" d="M62.1644 7.77347C61.4944 7.28909 60.5641 7.05469 59.4038 7.05469C58.8475 7.05469 58.3394 7.10417 57.9095 7.20836C57.462 7.30993 57.0777 7.4818 56.7592 7.70838L56.7566 7.71096C56.4355 7.95577 56.1828 8.2657 55.9832 8.64591C55.781 9.02875 55.6495 9.50793 55.5837 10.0678L55.571 10.185H57.1487L57.1613 10.0965C57.2093 9.77096 57.2851 9.51833 57.4066 9.3178L57.4115 9.3126C57.5177 9.10948 57.6516 8.95581 57.8311 8.83342C58.0106 8.711 58.2231 8.63027 58.4859 8.58341C58.7412 8.54954 59.0597 8.51829 59.4087 8.51829C60.2103 8.51829 60.7488 8.66673 61.08 8.91415C61.401 9.15375 61.5728 9.56522 61.5728 10.1798V10.7684C61.3847 10.7661 61.2126 10.7536 61.0492 10.7417L60.9863 10.7371H60.9763C60.7715 10.7371 60.5641 10.7215 60.3542 10.7033H60.3441C60.2356 10.7033 60.1293 10.7007 60.0156 10.6955H60.0055C59.8892 10.6903 59.7651 10.6877 59.6339 10.6877C59.5124 10.6877 59.3886 10.6851 59.2545 10.6799H59.2318C59.0902 10.6746 58.9385 10.672 58.7768 10.672C58.0738 10.672 57.495 10.7554 57.045 10.9116H57.0424C56.5975 11.0809 56.2434 11.2867 55.9881 11.5523C55.7178 11.8153 55.5458 12.1122 55.4447 12.4273C55.3436 12.7398 55.3105 13.0523 55.3105 13.344C55.3105 13.8336 55.3763 14.2686 55.5458 14.6227C55.6974 14.9691 55.9174 15.266 56.2081 15.4769C56.4812 15.7035 56.8175 15.8597 57.1992 15.9613C57.5835 16.0655 57.9979 16.0994 58.4532 16.0994C59.1433 16.0994 59.7755 15.9795 60.3415 15.7061C60.8904 15.4405 61.3022 15.0264 61.5728 14.4717V15.8493H63.1984V10.1746C63.1958 9.08343 62.8471 8.26308 62.1644 7.77347ZM61.5702 12.8206C61.5401 13.2086 61.4438 13.5211 61.2974 13.7503C61.1431 13.9873 60.9458 14.1748 60.7057 14.2972C60.4553 14.4248 60.1747 14.5211 59.8613 14.5706C59.5428 14.6201 59.2418 14.6357 58.9207 14.6357C58.2131 14.6357 57.7024 14.5368 57.3862 14.3493C57.0904 14.1748 56.9361 13.8518 56.9361 13.3232C56.9361 13.1461 56.9514 12.9768 57.0097 12.8284L57.0145 12.818C57.055 12.6747 57.1536 12.5263 57.3181 12.4065L57.323 12.4013C57.4672 12.2841 57.7047 12.1877 58.0258 12.1044C58.342 12.0393 58.7869 11.9898 59.3303 11.9898C59.4845 11.9898 59.6439 11.9924 59.8134 11.9976H59.8361C60.013 12.0028 60.2 12.0054 60.3947 12.0054C60.7563 12.021 61.1558 12.0367 61.5728 12.0523V12.8206H61.5702Z" fill="#0C131D"/>
<path fill-rule="evenodd" clip-rule="evenodd" d="M43.2083 11.5314C43.7925 11.607 44.2678 11.7736 44.6142 12.0627C44.9654 12.3882 45.1501 12.87 45.1475 13.5263C45.1475 13.8597 45.0792 14.1539 44.9781 14.43C44.8744 14.7138 44.7026 14.9613 44.4648 15.1722C44.2299 15.3805 43.9441 15.555 43.6078 15.6748H43.6052C43.2514 15.7972 42.8519 15.8467 42.3918 15.8467H37.6641V7.30469H42.0379C42.5638 7.30469 43.0139 7.37239 43.3803 7.49219H43.3855C43.7494 7.62761 44.0377 7.78386 44.2753 7.99483C44.5105 8.20577 44.6848 8.43494 44.7885 8.70317C44.8896 8.96362 44.9401 9.22665 44.9401 9.50791C44.9401 10.1251 44.7733 10.6225 44.4574 10.9481L44.4548 10.9507C44.1463 11.2528 43.7319 11.4403 43.2083 11.5028V11.5314ZM41.9268 8.76309H39.2922V10.8361H42.22C42.6597 10.8361 42.9455 10.7241 43.0946 10.5288C43.2439 10.3126 43.3324 10.0678 43.3324 9.75793C43.3324 9.60426 43.3045 9.46623 43.2718 9.33343C43.2465 9.23186 43.183 9.14851 43.0897 9.05217C42.9935 8.96882 42.8519 8.90632 42.6597 8.8412C42.4753 8.79434 42.2249 8.76309 41.9268 8.76309ZM42.0707 14.3883C42.5308 14.3883 42.8849 14.3076 43.1554 14.1513C43.4056 14.0081 43.5397 13.7477 43.5397 13.3414C43.5397 13.0133 43.4487 12.7554 43.2718 12.5419C43.1072 12.3466 42.7608 12.2294 42.1996 12.2294H39.2922V14.3883H42.0707Z" fill="#0C131D"/>
<path d="M48.0481 13.0523V7.30469H46.4199V15.8467H47.3755L52.3763 10.1616V15.8467H54.0019V7.30469H53.0461L48.0481 13.0523Z" fill="#0C131D"/>
<path fill-rule="evenodd" clip-rule="evenodd" d="M32.2446 7.05469C33.4049 7.05469 34.3355 7.28909 35.0053 7.77347C35.6854 8.26308 36.0343 9.08343 36.0343 10.1746V15.8467H34.4087V14.4691C34.1382 15.0238 33.7286 15.4379 33.1775 15.7035C32.6111 15.9769 31.9793 16.0967 31.2891 16.0967C30.8339 16.0967 30.4191 16.0629 30.0352 15.9587C29.6532 15.8572 29.3171 15.7009 29.044 15.4743C28.7534 15.2634 28.5333 14.9665 28.3816 14.6201C28.2122 14.2659 28.1465 13.831 28.1465 13.3414C28.1465 13.0498 28.1793 12.7372 28.2805 12.4247C28.3816 12.1096 28.5535 11.8127 28.824 11.5497C29.0819 11.2867 29.4358 11.0809 29.8758 10.9116H29.8783C30.3284 10.7554 30.9071 10.672 31.6099 10.672C31.7719 10.672 31.9235 10.6746 32.0651 10.6799H32.0878C32.2219 10.6851 32.3457 10.6877 32.4672 10.6877C32.5985 10.6877 32.7225 10.6903 32.8389 10.6955H32.8489C32.9626 10.7007 33.0689 10.7033 33.1775 10.7033H33.1875C33.4001 10.7215 33.6074 10.7371 33.8122 10.7371H33.8223L33.8849 10.7417C34.0483 10.7536 34.2206 10.7661 34.4087 10.7684V10.1746C34.4087 9.56002 34.2367 9.14852 33.9156 8.90895C33.5844 8.66153 33.0459 8.51309 32.2446 8.51309C31.8957 8.51309 31.5772 8.54434 31.3218 8.57821C31.0565 8.62507 30.8465 8.7058 30.667 8.82822C30.4875 8.95061 30.3537 9.10428 30.2474 9.30739L30.2448 9.31001V9.31521C30.1259 9.51575 30.0478 9.76834 29.9995 10.0939L29.9869 10.1824H28.4094L28.4221 10.0652C28.4878 9.50531 28.6193 9.02613 28.8214 8.6433C29.0213 8.26308 29.2741 7.95318 29.5952 7.70838L29.5977 7.70576C29.9162 7.47918 30.3005 7.30993 30.7506 7.20836C31.1802 7.10417 31.6883 7.05469 32.2446 7.05469ZM34.1356 13.7503C34.2824 13.5211 34.3757 13.2086 34.4087 12.8206H34.4113V12.0523C33.994 12.0367 33.5922 12.021 33.2332 12.0054C33.0385 12.0054 32.8515 12.0028 32.6743 11.9976H32.6516C32.4821 11.9924 32.323 11.9898 32.1688 11.9898C31.6251 11.9898 31.1802 12.0393 30.8643 12.1044C30.5432 12.1877 30.3054 12.2841 30.1615 12.4013L30.1564 12.4065C29.9921 12.5263 29.8936 12.6747 29.8531 12.818L29.8479 12.8284C29.7899 12.9768 29.7747 13.1461 29.7747 13.3232C29.7747 13.8518 29.9289 14.1748 30.2247 14.3493C30.5406 14.5368 31.0513 14.6357 31.7593 14.6357C32.0803 14.6357 32.3811 14.6201 32.6996 14.5706C33.0132 14.5211 33.2938 14.4248 33.544 14.2972C33.7843 14.1748 33.984 13.9873 34.1356 13.7503Z" fill="#0C131D"/>
<path d="M85.2897 13.0523V7.30469H83.6641V15.8467H84.6173L89.6179 10.1616V15.8467H91.2434V7.30469H90.2879L85.2897 13.0523Z" fill="#0C131D"/>
</g>
</g>
<defs>
<clipPath id="clip0_1_5523">
<rect width="110" height="23" fill="white"/>
</clipPath>
</defs>
</svg>
