<svg width="97" height="33" viewBox="0 0 97 33" fill="none" xmlns="http://www.w3.org/2000/svg">
<path d="M22.7557 28.5808C26.4522 28.5808 29.4488 25.6193 29.4488 21.9661C29.4488 18.3128 26.4522 15.3513 22.7557 15.3513C19.0591 15.3513 16.0625 18.3128 16.0625 21.9661C16.0625 25.6193 19.0591 28.5808 22.7557 28.5808Z" fill="#97CF26"/>
<path d="M10.1741 25.0445C11.8948 25.0445 13.2896 23.666 13.2896 21.9655C13.2896 20.265 11.8948 18.8865 10.1741 18.8865C8.45346 18.8865 7.05859 20.265 7.05859 21.9655C7.05859 23.666 8.45346 25.0445 10.1741 25.0445Z" fill="#A169F7"/>
<path d="M22.7553 13.7884C25.1346 13.7884 27.0634 11.8822 27.0634 9.53078C27.0634 7.17938 25.1346 5.27319 22.7553 5.27319C20.3761 5.27319 18.4473 7.17938 18.4473 9.53078C18.4473 11.8822 20.3761 13.7884 22.7553 13.7884Z" fill="#FF6163"/>
<path d="M10.1744 14.9678C13.2124 14.9678 15.6751 12.5339 15.6751 9.53162C15.6751 6.52931 13.2124 4.09546 10.1744 4.09546C7.13654 4.09546 4.67383 6.52931 4.67383 9.53162C4.67383 12.5339 7.13654 14.9678 10.1744 14.9678Z" fill="#00AAFF"/>
<path d="M46.8501 25.0087H50.3245L43.8899 7.69312H41.3697L34.9338 25.0093H38.4086L39.6375 21.704H45.6211L46.8501 25.0093L40.6053 19.0982L42.6296 13.6532L44.6528 19.0982H40.6053L46.8501 25.0087ZM58.9377 13.187L55.7402 21.7888L52.5442 13.187H49.2796L53.6747 25.0087H57.8063L62.2008 13.187H58.9371M63.5672 13.187H66.8318V25.0087H63.5672V13.187Z" fill="black"/>
<path d="M65.2112 11.8437C66.3721 11.8437 67.3131 10.9137 67.3131 9.76644C67.3131 8.61922 66.3721 7.68921 65.2112 7.68921C64.0504 7.68921 63.1094 8.61922 63.1094 9.76644C63.1094 10.9137 64.0504 11.8437 65.2112 11.8437Z" fill="black"/>
<path d="M78.3585 15.7919V13.1866H74.4479V9.92554H71.1854V13.1866H68.6035V15.7919H71.1854V20.878C71.1854 23.5015 72.5127 25.2526 75.9019 25.2526C77.2107 25.2526 78.3585 24.7776 78.3585 24.7776L77.962 22.2251C77.962 22.2251 77.3195 22.4149 76.5295 22.4149C75.5611 22.4149 74.4479 22.0024 74.4479 20.6794V15.7916L78.3585 15.7919ZM85.8448 22.3061C84.0246 22.3061 82.5498 20.8801 82.5498 19.121C82.5498 17.3635 84.0246 15.9371 85.8442 15.9371C87.6649 15.9371 89.1392 17.3638 89.1392 19.1213C89.1392 20.8804 87.6649 22.3061 85.8448 22.3061ZM85.8448 12.8849C82.3065 12.8849 79.4369 15.659 79.4369 19.0783C79.4369 22.4991 82.3065 25.2717 85.8445 25.2717C89.381 25.2717 92.2505 22.4991 92.2505 19.0783C92.2505 15.659 89.381 12.8849 85.8442 12.8849" fill="black"/>
</svg>
