<svg width="88" height="32" viewBox="0 0 88 32" fill="none" xmlns="http://www.w3.org/2000/svg">
<path d="M16.9169 14.2022V19.7991C16.9169 21.2346 17.6129 21.9306 19.0484 21.9306H19.6718C21.1073 21.9306 21.8033 21.2346 21.8033 19.7991V17.0587H25.0802V19.6831C25.0802 23.279 23.2678 25.135 19.6283 25.135H18.9324C15.3364 25.135 13.4805 23.3225 13.4805 20.1181V6.37238C13.4805 2.35596 15.2929 0.5 18.9324 0.5H19.6283C23.2243 0.5 25.0802 2.31246 25.0802 5.95189V14.1732H16.9314V14.2022H16.9169ZM16.9169 10.9108H21.7453V5.80689C21.7453 4.37142 21.0493 3.67544 19.6138 3.67544H19.0774C17.6419 3.67544 16.9459 4.37142 16.9459 5.80689V10.9108H16.9169Z" fill="black"/>
<path d="M27.3125 0.788337H30.7054V2.33981C31.5174 1.48432 32.9094 0.527344 34.8378 0.527344C37.7378 0.527344 39.1588 2.4558 39.1588 5.28324V20.3484C39.1588 23.2049 37.7233 25.1043 34.8378 25.1043C32.8659 25.1043 31.5174 24.1764 30.7054 23.3644V31.1362H27.3125V0.788337ZM30.7054 20.6529C31.6334 21.4649 32.7209 21.8854 33.8374 21.8854C35.0698 21.8854 35.8093 21.3054 35.8093 19.9134V5.70373C35.8093 4.31176 35.1133 3.73178 33.8374 3.73178C32.7209 3.73178 31.6334 4.19577 30.7054 4.96425V20.6529Z" fill="black"/>
<path d="M41.2188 16.4764C41.2188 13.504 42.1902 12.3005 44.7712 11.416L49.3241 9.86456V5.80464C49.3241 4.36917 48.6281 3.60069 47.1926 3.60069H46.6561C45.2207 3.60069 44.5247 4.36917 44.5247 5.80464V9.19757H41.2478V5.92064C41.2478 2.32471 43.0602 0.46875 46.6996 0.46875H47.3521C50.9481 0.46875 52.804 2.28121 52.804 5.92064V24.8137H49.4111V23.3058C48.4831 24.1903 47.2071 25.0892 45.2787 25.0892C42.5672 25.0892 41.3057 23.5378 41.3057 20.8408V16.4764H41.2188ZM49.3386 20.7683V12.8515L46.2501 14.0115C45.0177 14.519 44.5827 15.1279 44.5827 16.5199V20.1883C44.5827 21.3483 45.1627 21.9283 46.2501 21.9283C47.2796 21.8848 48.2076 21.5368 49.3386 20.7683Z" fill="black"/>
<path d="M66.4031 24.8288H63.0102V5.47174C63.0102 4.26827 62.4302 3.73178 61.3862 3.73178C60.4582 3.73178 59.4577 4.07977 58.2543 4.93525V24.8288H54.8613V0.788337H58.2543V2.33981C59.2257 1.41183 60.5307 0.527344 62.3867 0.527344C64.1266 0.527344 65.2866 1.22333 65.8956 2.4993C67.0991 1.45532 68.5201 0.527344 70.492 0.527344C73.1165 0.527344 74.4649 2.15131 74.4649 4.77575V24.8578H71.072V5.47174C71.072 4.26827 70.492 3.73178 69.448 3.73178C68.52 3.73178 67.5196 4.07977 66.3161 4.93525V24.8288H66.4031Z" fill="black"/>
<path d="M9.18727 2.99219V7.4291L3.50339 12.8375L9.18727 18.1734V22.6973L0.501953 14.5049V11.257L9.18727 2.99219Z" fill="#00B5D1"/>
<path d="M87.5017 11.257V14.5049L78.8164 22.6973V18.1734L84.5003 12.8375L78.8164 7.4001V2.99219L87.5017 11.257Z" fill="#00B5D1"/>
</svg>
