<svg width="107" height="24" viewBox="0 0 107 24" fill="none" xmlns="http://www.w3.org/2000/svg">
<g clip-path="url(#clip0_2037_1223)">
<path d="M12 24C18.6275 24 24 18.6275 24 12C24 5.3725 18.6275 0 12 0C5.3725 0 0 5.3725 0 12C0 18.6275 5.3725 24 12 24Z" fill="#D6001C"/>
<path d="M6.82503 6.58398V10.666C7.44653 9.92498 8.19153 9.55198 9.05553 9.55198C9.50053 9.55198 9.89903 9.63698 10.2565 9.80548C10.615 9.97298 10.883 10.188 11.064 10.449C11.246 10.7125 11.369 11.001 11.4355 11.319C11.5015 11.6355 11.5345 12.128 11.5345 12.796V17.1605H9.60353V13.2295C9.60353 12.4495 9.56853 11.9555 9.49503 11.7455C9.42617 11.5398 9.28956 11.3635 9.10753 11.2455C8.92153 11.12 8.69003 11.058 8.41053 11.058C8.09053 11.058 7.80353 11.138 7.55403 11.297C7.29903 11.457 7.11603 11.696 7.00003 12.0155C6.88203 12.3355 6.82303 12.808 6.82503 13.4335L6.82303 17.1605H4.89453V6.58398H6.82553M14.4285 6.58398V10.666C15.0505 9.92498 15.795 9.55198 16.6585 9.55198C17.102 9.55198 17.5035 9.63698 17.8615 9.80548C18.2185 9.97298 18.4865 10.188 18.6665 10.449C18.8482 10.7107 18.9746 11.0068 19.038 11.319C19.1045 11.6355 19.1375 12.128 19.1375 12.796V17.1605H17.2085V13.2295C17.2085 12.4495 17.172 11.9555 17.0985 11.7455C17.0297 11.5395 16.8926 11.3631 16.71 11.2455C16.526 11.12 16.2925 11.058 16.013 11.058C15.6935 11.058 15.4065 11.138 15.1565 11.297C14.905 11.457 14.721 11.696 14.6035 12.0155C14.4875 12.3355 14.4285 12.808 14.4285 13.4335V17.1605H12.5V6.58398H14.4285Z" fill="#FEFEFE"/>
</g>
<path d="M30.8022 17V7.54545H32.5149V11.5479H36.8959V7.54545H38.6132V17H36.8959V12.9837H32.5149V17H30.8022ZM43.5413 17.1385C42.8304 17.1385 42.2164 16.9908 41.6994 16.6953C41.1854 16.3968 40.7899 15.9751 40.5129 15.4304C40.2359 14.8826 40.0974 14.2378 40.0974 13.4961C40.0974 12.7667 40.2359 12.1265 40.5129 11.5756C40.793 11.0217 41.1838 10.5908 41.6855 10.283C42.1872 9.97218 42.7765 9.81676 43.4536 9.81676C43.8906 9.81676 44.303 9.88755 44.6908 10.0291C45.0817 10.1676 45.4264 10.383 45.7249 10.6754C46.0265 10.9678 46.2635 11.3402 46.4359 11.7926C46.6082 12.242 46.6944 12.7775 46.6944 13.3991V13.9116H40.8822V12.7852H45.0925C45.0894 12.4651 45.0201 12.1804 44.8847 11.9311C44.7493 11.6787 44.56 11.4802 44.3169 11.3356C44.0768 11.1909 43.7968 11.1186 43.4767 11.1186C43.1351 11.1186 42.835 11.2017 42.5765 11.3679C42.318 11.531 42.1164 11.7464 41.9717 12.0142C41.8302 12.2789 41.7578 12.5697 41.7547 12.8867V13.87C41.7547 14.2824 41.8302 14.6364 41.981 14.9318C42.1318 15.2242 42.3426 15.4489 42.6134 15.6058C42.8842 15.7597 43.2012 15.8366 43.5644 15.8366C43.8075 15.8366 44.0276 15.8028 44.2246 15.7351C44.4215 15.6643 44.5923 15.5612 44.737 15.4258C44.8816 15.2904 44.9909 15.1226 45.0648 14.9226L46.6251 15.098C46.5266 15.5104 46.3389 15.8705 46.0619 16.1783C45.788 16.483 45.4372 16.7199 45.0094 16.8892C44.5816 17.0554 44.0922 17.1385 43.5413 17.1385ZM50.1487 17.1431C49.6993 17.1431 49.2946 17.0631 48.9345 16.9031C48.5775 16.7399 48.2944 16.4999 48.0851 16.1829C47.8789 15.8659 47.7758 15.475 47.7758 15.0103C47.7758 14.6102 47.8497 14.2794 47.9974 14.0178C48.1451 13.7562 48.3467 13.5469 48.6021 13.3899C48.8576 13.233 49.1453 13.1145 49.4654 13.0344C49.7886 12.9513 50.1225 12.8913 50.4672 12.8544C50.8827 12.8113 51.2197 12.7728 51.4782 12.739C51.7367 12.7021 51.9245 12.6467 52.0414 12.5728C52.1614 12.4959 52.2215 12.3774 52.2215 12.2173V12.1896C52.2215 11.8419 52.1184 11.5726 51.9122 11.3817C51.706 11.1909 51.409 11.0955 51.0212 11.0955C50.6118 11.0955 50.2872 11.1848 50.0471 11.3633C49.8101 11.5418 49.6501 11.7526 49.567 11.9957L48.0066 11.7741C48.1297 11.3433 48.3328 10.9832 48.616 10.6939C48.8991 10.4015 49.2454 10.183 49.6547 10.0384C50.064 9.89062 50.5164 9.81676 51.0119 9.81676C51.3536 9.81676 51.6936 9.85677 52.0322 9.93679C52.3707 10.0168 52.68 10.1491 52.9601 10.3338C53.2402 10.5154 53.4648 10.7631 53.6341 11.0771C53.8064 11.391 53.8926 11.7834 53.8926 12.2543V17H52.2861V16.0259H52.2307C52.1291 16.2229 51.986 16.4076 51.8014 16.5799C51.6198 16.7492 51.3905 16.8861 51.1135 16.9908C50.8396 17.0923 50.518 17.1431 50.1487 17.1431ZM50.5826 15.9151C50.9181 15.9151 51.2089 15.849 51.4551 15.7166C51.7013 15.5812 51.8906 15.4027 52.0229 15.1811C52.1584 14.9595 52.2261 14.7179 52.2261 14.4563V13.6207C52.1738 13.6638 52.0845 13.7038 51.9583 13.7408C51.8352 13.7777 51.6967 13.81 51.5428 13.8377C51.389 13.8654 51.2366 13.89 51.0858 13.9116C50.935 13.9331 50.8042 13.9516 50.6934 13.967C50.4441 14.0008 50.221 14.0562 50.024 14.1332C49.827 14.2101 49.6716 14.3178 49.5578 14.4563C49.4439 14.5917 49.3869 14.7672 49.3869 14.9826C49.3869 15.2904 49.4993 15.5227 49.7239 15.6797C49.9486 15.8366 50.2348 15.9151 50.5826 15.9151ZM58.2044 17.1246C57.6474 17.1246 57.1488 16.9815 56.7087 16.6953C56.2686 16.4091 55.9208 15.9936 55.6653 15.4489C55.4099 14.9041 55.2822 14.2424 55.2822 13.4638C55.2822 12.6759 55.4114 12.0111 55.67 11.4695C55.9316 10.9247 56.284 10.5138 56.7271 10.2369C57.1703 9.95679 57.6643 9.81676 58.209 9.81676C58.6245 9.81676 58.9661 9.88755 59.2339 10.0291C59.5016 10.1676 59.714 10.3353 59.871 10.5323C60.0279 10.7262 60.1495 10.9093 60.2357 11.0817H60.3049V7.54545H61.9807V17H60.3372V15.8828H60.2357C60.1495 16.0552 60.0248 16.2383 59.8617 16.4322C59.6986 16.623 59.4832 16.7861 59.2154 16.9215C58.9477 17.0569 58.6107 17.1246 58.2044 17.1246ZM58.6707 15.7536C59.0246 15.7536 59.3262 15.6581 59.5755 15.4673C59.8248 15.2734 60.0141 15.0041 60.1433 14.6594C60.2726 14.3147 60.3372 13.9131 60.3372 13.4545C60.3372 12.996 60.2726 12.5974 60.1433 12.2589C60.0171 11.9203 59.8294 11.6572 59.5801 11.4695C59.3339 11.2817 59.0308 11.1879 58.6707 11.1879C58.2983 11.1879 57.9874 11.2848 57.7381 11.4787C57.4889 11.6726 57.3011 11.9403 57.1749 12.282C57.0488 12.6236 56.9857 13.0144 56.9857 13.4545C56.9857 13.8977 57.0488 14.2932 57.1749 14.641C57.3042 14.9857 57.4935 15.258 57.7428 15.4581C57.9951 15.6551 58.3044 15.7536 58.6707 15.7536ZM63.8354 17V7.54545H65.5481V11.5479H69.9291V7.54545H71.6464V17H69.9291V12.9837H65.5481V17H63.8354ZM77.9549 14.0178V9.90909H79.626V17H78.0056V15.7397H77.9318C77.7717 16.1367 77.5086 16.4614 77.1424 16.7138C76.7792 16.9661 76.3314 17.0923 75.799 17.0923C75.3342 17.0923 74.9234 16.9892 74.5664 16.783C74.2124 16.5737 73.9354 16.2706 73.7354 15.8736C73.5353 15.4735 73.4353 14.9903 73.4353 14.424V9.90909H75.1065V14.1655C75.1065 14.6148 75.2296 14.9718 75.4758 15.2365C75.722 15.5012 76.0452 15.6335 76.4453 15.6335C76.6915 15.6335 76.93 15.5735 77.1608 15.4535C77.3916 15.3335 77.5809 15.1549 77.7286 14.918C77.8795 14.6779 77.9549 14.3778 77.9549 14.0178ZM83.0157 12.8452V17H81.3445V9.90909H82.9418V11.114H83.0249C83.188 10.717 83.4481 10.4015 83.8051 10.1676C84.1652 9.93371 84.6099 9.81676 85.1392 9.81676C85.6286 9.81676 86.0549 9.9214 86.418 10.1307C86.7843 10.34 87.0674 10.6431 87.2674 11.0401C87.4706 11.4371 87.5706 11.9188 87.5675 12.4851V17H85.8964V12.7436C85.8964 12.2696 85.7732 11.8988 85.527 11.631C85.2839 11.3633 84.9469 11.2294 84.516 11.2294C84.2236 11.2294 83.9636 11.294 83.7358 11.4233C83.5112 11.5495 83.3342 11.7326 83.2049 11.9727C83.0788 12.2127 83.0157 12.5036 83.0157 12.8452ZM92.8072 9.90909V11.2017H88.7309V9.90909H92.8072ZM89.7373 8.21023H91.4084V14.8672C91.4084 15.0919 91.4423 15.2642 91.51 15.3842C91.5808 15.5012 91.6731 15.5812 91.787 15.6243C91.9008 15.6674 92.027 15.6889 92.1655 15.6889C92.2702 15.6889 92.3656 15.6812 92.4517 15.6658C92.541 15.6504 92.6087 15.6366 92.6549 15.6243L92.9365 16.9308C92.8472 16.9615 92.7195 16.9954 92.5533 17.0323C92.3902 17.0692 92.1901 17.0908 91.9532 17.0969C91.5346 17.1093 91.1576 17.0462 90.8221 16.9077C90.4867 16.7661 90.2205 16.5476 90.0235 16.2521C89.8296 15.9567 89.7342 15.5874 89.7373 15.1442V8.21023ZM97.2679 17.1385C96.557 17.1385 95.943 16.9908 95.4259 16.6953C94.9119 16.3968 94.5165 15.9751 94.2395 15.4304C93.9625 14.8826 93.824 14.2378 93.824 13.4961C93.824 12.7667 93.9625 12.1265 94.2395 11.5756C94.5195 11.0217 94.9104 10.5908 95.4121 10.283C95.9137 9.97218 96.5031 9.81676 97.1802 9.81676C97.6172 9.81676 98.0296 9.88755 98.4174 10.0291C98.8083 10.1676 99.153 10.383 99.4515 10.6754C99.7531 10.9678 99.9901 11.3402 100.162 11.7926C100.335 12.242 100.421 12.7775 100.421 13.3991V13.9116H94.6088V12.7852H98.819C98.8159 12.4651 98.7467 12.1804 98.6113 11.9311C98.4759 11.6787 98.2866 11.4802 98.0435 11.3356C97.8034 11.1909 97.5233 11.1186 97.2033 11.1186C96.8616 11.1186 96.5616 11.2017 96.303 11.3679C96.0445 11.531 95.8429 11.7464 95.6983 12.0142C95.5567 12.2789 95.4844 12.5697 95.4813 12.8867V13.87C95.4813 14.2824 95.5567 14.6364 95.7075 14.9318C95.8583 15.2242 96.0691 15.4489 96.34 15.6058C96.6108 15.7597 96.9278 15.8366 97.291 15.8366C97.5341 15.8366 97.7542 15.8028 97.9511 15.7351C98.1481 15.6643 98.3189 15.5612 98.4636 15.4258C98.6082 15.2904 98.7175 15.1226 98.7913 14.9226L100.352 15.098C100.253 15.5104 100.065 15.8705 99.7885 16.1783C99.5146 16.483 99.1637 16.7199 98.7359 16.8892C98.3081 17.0554 97.8188 17.1385 97.2679 17.1385ZM101.835 17V9.90909H103.455V11.0909H103.529C103.658 10.6816 103.88 10.3661 104.194 10.1445C104.511 9.91986 104.872 9.80753 105.279 9.80753C105.371 9.80753 105.474 9.81214 105.588 9.82138C105.705 9.82753 105.802 9.8383 105.879 9.85369V11.391C105.808 11.3664 105.696 11.3448 105.542 11.3263C105.391 11.3048 105.245 11.294 105.103 11.294C104.799 11.294 104.525 11.3602 104.281 11.4925C104.041 11.6218 103.852 11.8018 103.714 12.0327C103.575 12.2635 103.506 12.5297 103.506 12.8313V17H101.835Z" fill="black"/>
<defs>
<clipPath id="clip0_2037_1223">
<rect width="24" height="24" fill="white"/>
</clipPath>
</defs>
</svg>
