<svg width="124" height="24" viewBox="0 0 124 24" fill="none" xmlns="http://www.w3.org/2000/svg">
<path d="M55.9696 11.979C55.9696 16.6045 53.1287 18.7863 49.6323 18.7863H47.4908V16.0372H49.5012C51.6428 16.0372 53.0413 14.9027 53.0413 12.0227C53.0413 9.18631 51.6865 7.74631 49.4138 7.74631C47.2285 7.74631 45.6551 9.09903 45.6551 11.979V23.5863H42.7269V5.30267H45.6551V6.87358H46.0922C47.0537 5.56449 48.5397 4.95358 50.0257 4.95358C53.2599 4.95358 55.9696 7.30994 55.9696 11.979ZM36.6081 10.8009L34.6414 10.6263C33.1117 10.4954 32.2813 10.059 32.2813 9.18631C32.2813 8.13903 33.3302 7.52812 34.8162 7.52812C36.3459 7.52812 37.3511 8.26994 37.4385 9.27358H40.2794C40.1483 6.6554 38.1378 5.04085 34.8599 5.04085C31.582 5.04085 29.353 6.78631 29.353 9.31721C29.353 11.4554 30.7079 12.8081 33.7673 13.1136L35.7777 13.2881C37.0015 13.419 37.7882 13.6372 37.7882 14.8154C37.7882 15.8627 37.0452 16.6045 35.0347 16.6045C33.1991 16.6045 32.2813 15.7754 31.9754 14.6409H28.916C29.2219 17.1718 31.3635 19.179 35.0347 19.179C38.4875 19.179 40.7164 17.3463 40.7164 14.6845C40.7164 12.2409 39.143 11.0627 36.6081 10.8009ZM67.3767 14.5972C66.8959 15.6445 65.8033 16.4736 64.2299 16.4736C62.0883 16.4736 60.4712 15.0772 60.4712 12.0663C60.4712 9.18631 61.9572 7.57176 64.2736 7.57176C66.3278 7.57176 67.5078 8.79358 67.5952 10.6699H62.3069V12.8081H70.4798V11.4118C70.4798 7.52813 67.9011 4.99722 64.2299 4.99722C60.8209 4.99722 57.543 7.30994 57.543 12.0663C57.543 16.8227 60.8209 19.1354 64.2299 19.1354C67.3767 19.1354 69.6057 17.2154 70.2612 14.5972H67.3767ZM20.9616 4.95358C17.7274 4.95358 15.3236 6.61176 15.0614 9.18631H18.2082C18.4267 8.22631 19.3008 7.52812 20.9616 7.52812C23.1032 7.52812 23.8025 8.66267 23.8025 10.0154V14.6409C22.5787 15.9936 21.1801 16.6481 19.7816 16.6481C18.3393 16.6481 17.3341 15.9499 17.3341 14.6845C17.3341 13.4627 18.1208 12.7209 19.6505 12.7209H22.0105V10.5827H19.5631C16.1977 10.5827 14.3184 12.2409 14.3184 14.8154C14.3184 17.2154 16.154 19.0481 19.126 19.0481C20.7868 19.0481 22.2728 18.3936 23.3654 17.5645H23.8025V18.699H26.7307V9.79722C26.7307 6.43722 24.458 4.95358 20.9616 4.95358ZM0.988281 18.7863H3.91654V0.328125H0.988281V18.7863ZM13.3569 5.30267H9.77306L5.48993 10.9318V12.6772L9.90417 18.7863H13.5317L8.37448 11.8045L13.3569 5.30267ZM119.736 5.30267L117.332 10.6263C116.764 11.9354 116.196 13.1572 116.021 14.0299H115.584C115.409 13.2009 114.841 11.979 114.229 10.6699L111.869 5.30267H108.635L114.316 17.4336L111.519 23.5427H114.666L123.057 5.30267H119.736ZM107.935 5.30267H104.351L100.068 10.9318V12.6772L104.483 18.7863H108.11L102.953 11.8045L107.935 5.30267ZM89.5353 10.8009L87.5686 10.6263C86.0389 10.4954 85.2085 10.059 85.2085 9.18631C85.2085 8.13903 86.2574 7.52812 87.7434 7.52812C89.2731 7.52812 90.2783 8.26994 90.3657 9.27358H93.2065C93.0754 6.6554 91.065 5.04085 87.7871 5.04085C84.5092 5.04085 82.2802 6.78631 82.2802 9.31721C82.2802 11.4554 83.6351 12.8081 86.6944 13.1136L88.7049 13.2881C89.9286 13.419 90.7153 13.6372 90.7153 14.8154C90.7153 15.8627 89.9723 16.6045 87.9619 16.6045C86.1263 16.6045 85.2085 15.7754 84.9025 14.6409H81.8432C82.1491 17.1718 84.2906 19.179 87.9619 19.179C91.4146 19.179 93.6436 17.3463 93.6436 14.6845C93.5999 12.2409 92.0265 11.0627 89.5353 10.8009ZM95.5666 18.7863H98.4949V0.328125H95.5666V18.7863ZM76.1615 6.87358H75.7244V5.30267H72.7962V18.7863H75.7244V11.7609C75.7244 9.36085 76.817 7.96449 79.046 7.96449H80.9253V4.99722H79.8327C77.8223 4.95358 76.9482 5.73903 76.1615 6.87358Z" fill="#00A88E"/>
</svg>
