<svg width="46" height="45" viewBox="0 0 46 45" fill="none" xmlns="http://www.w3.org/2000/svg">
<g clip-path="url(#clip0_1_5459)">
<path d="M41.75 9.375H4.25C2.17893 9.375 0.5 11.0539 0.5 13.125V41.25C0.5 43.3211 2.17893 45 4.25 45H41.75C43.8211 45 45.5 43.3211 45.5 41.25V13.125C45.5 11.0539 43.8211 9.375 41.75 9.375Z" fill="black"/>
<path d="M22.9996 15C25.6359 15 27.7715 12.8625 27.7715 10.2281C27.7715 7.59094 25.6359 5.45437 22.9996 5.45437C20.3634 5.45437 18.2277 7.59188 18.2277 10.2262C18.2277 12.8644 20.3624 15 22.9996 15ZM22.9996 20.4544C17.3512 20.4544 12.7715 15.8756 12.7715 10.2262C12.7715 4.57969 17.3521 0 22.9996 0C28.6471 0 33.2277 4.57875 33.2277 10.2281C33.2277 15.8756 28.648 20.4544 22.9996 20.4544Z" fill="black"/>
<path d="M30.7952 7.96874C29.8089 4.55343 26.6589 2.11499 22.9999 2.11499C19.0474 2.11499 15.6893 4.9603 15.0096 8.80874C14.9514 9.14343 15.1736 9.46218 15.5064 9.52124C15.8411 9.57937 16.1599 9.35718 16.2189 9.02437C16.7946 5.75718 19.6455 3.34312 22.9999 3.34312C26.0543 3.34312 28.6905 5.34468 29.5736 8.16937C29.658 8.44124 29.7274 8.72249 29.7799 9.00843C29.838 9.33655 30.1568 9.56155 30.4905 9.5053C30.8243 9.43968 31.0464 9.12093 30.9874 8.7928C30.9368 8.51155 30.873 8.23968 30.7952 7.9678V7.96874ZM8.71707 27.0656V42.195H5.94395V27.0637H2.99645V24.5625H11.6889V27.0656H8.71707ZM19.8733 42.195L17.5699 34.9641H16.0099V42.195H13.2368V24.5625H17.6936C20.913 24.5625 22.2011 26.1234 22.2011 29.7637C22.2011 31.9434 21.7549 33.5044 20.1452 34.3697L22.7702 42.1978H19.8733V42.195ZM17.7189 27.0637H16.0099V32.4637H17.7189C19.2039 32.4637 19.4271 31.2262 19.4271 29.7637C19.4271 28.3031 19.2021 27.0637 17.7114 27.0637H17.7189ZM24.4643 24.5625H27.2393V42.1969H24.4643M33.9461 35.3109H32.2868V42.195H29.5136V24.5625H33.9461C37.1402 24.5625 38.478 26.2219 38.478 29.9128C38.478 33.4781 37.2893 35.3109 33.9461 35.3109ZM33.9958 27.0647H32.2811V32.8022H33.9902C35.4743 32.8022 35.6964 31.4897 35.6964 29.9241C35.6964 28.3584 35.4743 27.0459 33.9902 27.0459L33.9958 27.0647ZM41.7021 42.2897C40.7365 42.2897 39.9677 41.5209 39.9677 40.5553C39.9677 39.5897 40.7365 38.7928 41.7021 38.7928C42.6677 38.7928 43.4364 39.5803 43.4364 40.5459C43.4364 41.5116 42.6677 42.2803 41.7021 42.2803V42.2897ZM40.3896 24.5522H43.0146V37.2366H40.3896V24.5625V24.5522ZM7.03426 21.0562C6.64332 21.4969 6.12488 21.8344 5.24082 21.8344C4.35957 21.8344 3.83457 21.4969 3.4502 21.0562C2.75645 20.2781 2.7752 18.9262 2.7752 17.1075C2.7752 15.2887 2.75645 13.9387 3.4502 13.1606C3.83457 12.72 4.35957 12.3825 5.24082 12.3825C6.12207 12.3825 6.64051 12.72 7.03145 13.1606C7.71957 13.9387 7.70645 15.2887 7.70645 17.1075C7.70645 18.9262 7.71957 20.2791 7.03145 21.0591L7.03426 21.0562ZM5.94676 14.0437C5.81738 13.8375 5.59613 13.6931 5.24551 13.6931C4.89488 13.6931 4.68676 13.8366 4.55645 14.0447C4.28457 14.4947 4.23207 15.4228 4.23207 17.1103C4.23207 18.8072 4.28832 19.7353 4.5602 20.1759C4.69145 20.3916 4.8977 20.5322 5.25395 20.5322C5.6102 20.5322 5.82582 20.3916 5.95707 20.1853C6.22895 19.7447 6.27582 18.8072 6.27582 17.1197C6.27582 15.4322 6.23832 14.4947 5.96645 14.0541L5.94676 14.0437ZM12.783 21.735L10.6005 16.2394V21.735H9.14551V12.4856H10.4439L12.6143 17.9794V12.4856H14.0693V21.735H12.783ZM15.6358 21.735V12.4856H19.5227V13.7981H17.0936V16.4212H19.1871V17.7337H17.0936V20.4244H19.5246V21.735H15.6386M25.9811 13.7972V21.7359H24.5252V13.7972H22.9783V12.4847H27.5393V13.7972H25.9811ZM35.8108 21.7359H34.2902L32.9655 14.7075L31.653 21.7359H30.1343L28.3793 12.4856H29.9777L30.8871 19.5009L32.1602 12.4884H33.7727L35.0571 19.5103L35.9571 12.4978H37.5602L35.8164 21.7509M42.5664 21.0759C42.1821 21.5166 41.6571 21.8541 40.7758 21.8541C39.8946 21.8541 39.3789 21.5166 38.9852 21.0759C38.3008 20.2978 38.3102 18.9478 38.3102 17.1291C38.3102 15.3103 38.3008 13.9603 38.9852 13.1822C39.3789 12.7416 39.8946 12.4041 40.7852 12.4041C41.6664 12.4041 42.1877 12.7416 42.5758 13.1822C43.2658 13.9603 43.2508 15.3103 43.2508 17.1291C43.2508 18.9478 43.2658 20.3034 42.5758 21.0834L42.5664 21.0759ZM41.4696 14.0447C41.3458 13.8384 41.1227 13.6978 40.7739 13.6978C40.4214 13.6978 40.2133 13.8384 40.083 14.0522C39.8111 14.4947 39.7586 15.4303 39.7586 17.1178C39.7586 18.8081 39.8055 19.7428 40.0774 20.1853C40.2086 20.3916 40.4149 20.535 40.7618 20.535C41.1086 20.535 41.3336 20.3916 41.4593 20.1844C41.7311 19.74 41.7714 18.8062 41.7714 17.1187C41.7714 15.4275 41.7311 14.4937 41.4583 14.0531L41.4696 14.0447Z" fill="white"/>
<path d="M28.6719 8.27531L30.8356 10.4813L31.6719 7.5" fill="white"/>
</g>
<defs>
<clipPath id="clip0_1_5459">
<rect width="45" height="45" fill="white" transform="translate(0.5)"/>
</clipPath>
</defs>
</svg>
