<svg width="98" height="28" viewBox="0 0 98 28" fill="none" xmlns="http://www.w3.org/2000/svg">
<path d="M77.3987 8.80603L80.9861 6.125H68.9727V22.1867H80.9861V19.5034H72.4041V15.4039H79.7391V12.7229H72.4041V8.80603H77.3987Z" fill="#21A038"/>
<path d="M59.898 12.38H55.7361V8.80603H62.3942L65.9837 6.125H52.3047V22.1867H59.4548C63.4608 22.1867 65.7744 20.3451 65.7744 17.1386C65.7744 14.0634 63.6946 12.38 59.898 12.38ZM59.3257 19.5034H55.7361V15.061H59.3257C61.5101 15.061 62.5233 15.7981 62.5233 17.2967C62.5233 18.7953 61.4322 19.5034 59.3257 19.5034Z" fill="#21A038"/>
<path d="M90.7122 6.125H84.1855V22.1867H87.617V17.6374H90.7389C94.8985 17.6374 97.4994 15.4307 97.4994 11.8812C97.4994 8.33173 94.8985 6.125 90.7122 6.125ZM90.6343 14.9564H87.5925V8.80603H90.6343C92.8454 8.80603 94.0412 9.91051 94.0412 11.8812C94.0412 13.8519 92.8454 14.9564 90.6343 14.9564Z" fill="#21A038"/>
<path d="M46.4249 18.7158C45.5163 19.2168 44.5009 19.4795 43.461 19.4795C40.3658 19.4795 38.1301 17.2439 38.1301 14.1687C38.1301 11.0935 40.3658 8.85785 43.461 8.85785C44.5789 8.83336 45.6722 9.20077 46.5807 9.85767L49.0524 8.01836L48.8966 7.86026C47.467 6.57096 45.5408 5.91406 43.3564 5.91406C40.9915 5.91406 38.8316 6.72906 37.2728 8.20095C35.7119 9.72629 34.8278 11.8551 34.8791 14.064C34.8523 16.2975 35.7119 18.453 37.2728 20.0295C38.9095 21.5816 41.094 22.45 43.3319 22.3966C45.8014 22.3966 47.9591 21.5282 49.4154 19.9516L47.2065 18.2949L46.4249 18.7158Z" fill="#21A038"/>
<path d="M24.1398 6.02148C24.7633 6.83648 25.2844 7.72942 25.7253 8.67579L13.7119 17.6385L8.66602 14.432V10.5953L13.6852 13.7751L24.1398 6.02148Z" fill="#21A038"/>
<path d="M3.54176 14.1699C3.54176 13.9851 3.54176 13.8293 3.56849 13.6444L0.526721 13.4863C0.526721 13.6979 0.5 13.9339 0.5 14.1432C0.5 17.8241 1.98303 21.162 4.37458 23.5803L6.53232 21.398C4.68632 19.5587 3.54176 17.0091 3.54176 14.1699Z" fill="url(#paint0_linear_1_5481)"/>
<path d="M13.6851 3.91501C13.8677 3.91501 14.0236 3.91501 14.2062 3.94173L14.3621 0.866564C14.1527 0.866564 13.9189 0.839844 13.7118 0.839844C10.0711 0.839844 6.76878 2.33846 4.375 4.75673L6.53274 6.93896C8.35423 5.07293 10.9017 3.91501 13.6851 3.91501Z" fill="url(#paint1_linear_1_5481)"/>
<path d="M13.6848 24.4204C13.5022 24.4204 13.3463 24.4204 13.1637 24.3937L13.0078 27.4689C13.2171 27.4689 13.4509 27.4956 13.658 27.4956C17.2988 27.4956 20.6033 25.997 22.9949 23.5787L20.8371 21.3965C19.0156 23.2892 16.4927 24.4204 13.6848 24.4204Z" fill="url(#paint2_linear_1_5481)"/>
<path d="M19.4061 5.70444L21.9803 3.78496C19.7179 1.94565 16.832 0.814453 13.6855 0.814453V3.88962C15.8188 3.91634 17.7939 4.57324 19.4061 5.70444Z" fill="url(#paint3_linear_1_5481)"/>
<path d="M26.8956 14.1689C26.8956 13.3539 26.8176 12.5656 26.6862 11.7773L23.8516 13.9061C23.8516 13.9841 23.8516 14.091 23.8516 14.1689C23.8516 17.1928 22.5511 19.9006 20.498 21.7666L22.5511 24.0535C25.2054 21.6352 26.8956 18.0858 26.8956 14.1689Z" fill="#21A038"/>
<path d="M13.684 24.4207C10.6934 24.4207 8.01464 23.1069 6.16865 21.0293L3.90625 23.1069C6.32452 25.8146 9.80941 27.4958 13.684 27.4958V24.4207Z" fill="url(#paint4_linear_1_5481)"/>
<path d="M6.89751 6.57009L4.8422 4.2832C2.1634 6.72819 0.5 10.2509 0.5 14.1678H3.54177C3.54177 11.1706 4.8422 8.43835 6.89751 6.57009Z" fill="url(#paint5_linear_1_5481)"/>
<defs>
<linearGradient id="paint0_linear_1_5481" x1="4.05021" y1="23.2064" x2="0.92619" y2="14.1352" gradientUnits="userSpaceOnUse">
<stop offset="0.1444" stop-color="#F2E913"/>
<stop offset="0.3037" stop-color="#E7E518"/>
<stop offset="0.5823" stop-color="#CADB26"/>
<stop offset="0.891" stop-color="#A3CD39"/>
</linearGradient>
<linearGradient id="paint1_linear_1_5481" x1="5.24262" y1="4.40958" x2="13.1359" y2="1.38795" gradientUnits="userSpaceOnUse">
<stop offset="0.0592" stop-color="#0FA8E0"/>
<stop offset="0.5385" stop-color="#0099F9"/>
<stop offset="0.9234" stop-color="#0291EB"/>
</linearGradient>
<linearGradient id="paint2_linear_1_5481" x1="12.8301" y1="24.8801" x2="22.2355" y2="22.7449" gradientUnits="userSpaceOnUse">
<stop offset="0.1226" stop-color="#A3CD39"/>
<stop offset="0.2846" stop-color="#86C339"/>
<stop offset="0.8693" stop-color="#21A038"/>
</linearGradient>
<linearGradient id="paint3_linear_1_5481" x1="13.0605" y1="2.77387" x2="20.8823" y2="5.19821" gradientUnits="userSpaceOnUse">
<stop offset="0.0566" stop-color="#0291EB"/>
<stop offset="0.79" stop-color="#0C8ACB"/>
</linearGradient>
<linearGradient id="paint4_linear_1_5481" x1="4.67973" y1="23.5934" x2="13.0831" y2="26.7474" gradientUnits="userSpaceOnUse">
<stop offset="0.1324" stop-color="#F2E913"/>
<stop offset="0.2977" stop-color="#EBE716"/>
<stop offset="0.5306" stop-color="#D9E01F"/>
<stop offset="0.8023" stop-color="#BBD62D"/>
<stop offset="0.9829" stop-color="#A3CD39"/>
</linearGradient>
<linearGradient id="paint5_linear_1_5481" x1="2.83141" y1="14.5394" x2="6.20831" y2="5.71505" gradientUnits="userSpaceOnUse">
<stop offset="0.0698" stop-color="#A3CD39"/>
<stop offset="0.2599" stop-color="#81C55F"/>
<stop offset="0.9216" stop-color="#0FA8E0"/>
</linearGradient>
</defs>
</svg>
