<svg width="92" height="17" viewBox="0 0 92 17" fill="none" xmlns="http://www.w3.org/2000/svg">
<g clip-path="url(#clip0_1_5518)">
<path d="M72.1695 14.1372L72.3327 16.6195C71.8953 16.8228 70.7792 16.923 70.2048 16.923C67.3262 16.923 65.2865 15.2448 65.2049 12.2982H68.2368C68.2836 12.8546 68.5601 13.3727 69.0085 13.7438C69.4569 14.1149 70.0423 14.3102 70.6421 14.2889C71.1549 14.2785 71.6659 14.2278 72.1695 14.1372ZM30.9628 16.747H33.9849V1.04883H30.9628V16.747ZM57.6332 6.8207C59.0758 6.8207 60.2735 7.47921 60.8186 8.46546L63.3772 7.12416C62.3981 5.30338 60.2213 4.11077 57.6332 4.11077C56.716 4.09299 55.8043 4.24788 54.953 4.56611C54.1018 4.88435 53.3285 5.35936 52.6798 5.96259C52.031 6.56582 51.5202 7.28481 51.1779 8.07633C50.8357 8.86785 50.6691 9.71555 50.6882 10.5685C50.6882 14.2404 53.7136 16.9988 57.6593 16.9988C60.1038 16.9988 62.2089 15.961 63.3675 14.3162L60.8349 12.8717C60.4708 13.3317 59.9909 13.7015 59.4372 13.9486C58.8835 14.1957 58.273 14.3126 57.6593 14.2889C57.134 14.2947 56.6127 14.2022 56.1266 14.0168C55.6405 13.8315 55.1995 13.557 54.8299 13.2099C54.4602 12.8628 54.1694 12.45 53.9748 11.9962C53.7803 11.5424 53.6859 11.0569 53.6973 10.5685C53.6973 8.44422 55.3585 6.8207 57.6463 6.8207M29.2396 10.0131C29.2467 9.23208 29.0856 8.45761 28.7658 7.73534C28.446 7.01308 27.974 6.35762 27.3776 5.80758C26.7812 5.25754 26.0724 4.82405 25.2931 4.53264C24.5137 4.24122 23.6795 4.09779 22.8396 4.11077C21.9369 4.10184 21.0414 4.26057 20.2055 4.57767C19.3696 4.89476 18.6103 5.36384 17.9719 5.95739C17.3336 6.55094 16.8291 7.25702 16.4881 8.03423C16.1471 8.81144 15.9764 9.64413 15.986 10.4835C15.9694 11.3354 16.1362 12.1817 16.4764 12.9729C16.8166 13.764 17.3234 14.4839 17.9671 15.0903C18.6107 15.6967 19.3783 16.1774 20.2245 16.5041C21.0708 16.8308 21.9788 16.997 22.8951 16.9928C25.6463 16.9928 27.8787 15.9792 28.8577 14.3102L26.4361 12.8657C25.8095 13.8277 24.4486 14.4346 22.9506 14.4346C20.7998 14.4346 19.3279 13.2207 19.0016 11.2209H29.1188C29.1929 10.82 29.2289 10.4138 29.2265 10.0071M19.1027 9.07543C19.5662 7.45493 20.8455 6.44137 22.6699 6.44137C24.4943 6.44137 25.8846 7.5308 26.0478 9.07543H19.1027ZM48.9683 10.0131C48.9754 9.23208 48.8143 8.45761 48.4945 7.73534C48.1747 7.01308 47.7027 6.35762 47.1063 5.80758C46.5099 5.25754 45.8011 4.82405 45.0218 4.53264C44.2424 4.24122 43.4082 4.09779 42.5683 4.11077C41.6656 4.10184 40.7701 4.26057 39.9342 4.57767C39.0983 4.89476 38.339 5.36384 37.7006 5.95739C37.0623 6.55094 36.5578 7.25702 36.2168 8.03423C35.8758 8.81144 35.705 9.64413 35.7146 10.4835C35.6977 11.3355 35.8641 12.182 36.2041 12.9733C36.5442 13.7646 37.051 14.4847 37.6948 15.0912C38.3385 15.6977 39.1062 16.1784 39.9527 16.505C40.7992 16.8315 41.7073 16.9974 42.6238 16.9928C45.375 16.9928 47.6073 15.9792 48.5864 14.3102L46.1616 12.8657C45.5382 13.8277 44.174 14.4346 42.6793 14.4346C40.5252 14.4346 39.0566 13.2207 38.7302 11.2209H48.8475C48.9226 10.8201 48.9597 10.4139 48.9585 10.0071M38.8412 9.07239C39.3046 7.4519 40.584 6.43833 42.4084 6.43833C44.2327 6.43833 45.6231 7.52776 45.7862 9.07239H38.8412ZM86.7579 10.0131C86.7646 9.23233 86.6032 8.45819 86.2832 7.73628C85.9632 7.01436 85.4912 6.35927 84.8948 5.80955C84.2984 5.25984 83.5898 4.82662 82.8107 4.5354C82.0315 4.24417 81.1976 4.10083 80.3579 4.11381C79.4554 4.10528 78.56 4.2643 77.7244 4.58154C76.8887 4.89878 76.1295 5.36787 75.4913 5.96134C74.853 6.55481 74.3485 7.26072 74.0073 8.03775C73.6662 8.81477 73.4951 9.64728 73.5043 10.4865C73.4882 11.3382 73.6553 12.1842 73.9957 12.975C74.3361 13.7657 74.843 14.4853 75.4866 15.0914C76.1302 15.6975 76.8976 16.1779 77.7437 16.5044C78.5897 16.8309 79.4974 16.997 80.4134 16.9928C83.1614 16.9928 85.397 15.9792 86.3761 14.3102L83.9512 12.8657C83.3246 13.8277 81.9637 14.4346 80.4656 14.4346C78.3149 14.4346 76.8463 13.2207 76.5199 11.2209H86.6372C86.7123 10.8201 86.7494 10.4139 86.7481 10.0071M76.6309 9.07239C77.0943 7.4519 78.3736 6.43833 80.198 6.43833C82.0224 6.43833 83.4094 7.52776 83.5759 9.07239H76.6309ZM88.4811 16.7439H91.5033V1.04883H88.4811V16.7439ZM10.5389 13.8398C9.75212 14.2798 8.84576 14.4999 7.92804 14.474C6.91238 14.4956 5.91604 14.2138 5.08541 13.6699C4.27947 13.1218 3.71657 12.3189 3.50255 11.4121L0.5 11.8339C0.658162 12.8299 1.09105 13.7708 1.7565 14.5651C2.42638 15.352 3.3 15.968 4.29561 16.3555C5.39455 16.7885 6.57793 17.0055 7.77138 16.9928C8.93973 17.004 10.0996 16.8073 11.1884 16.4132C12.1793 16.0622 13.0451 15.4611 13.6884 14.6774C14.2433 13.9871 14.5648 13.1589 14.612 12.2982H11.6127C11.5819 12.6169 11.468 12.9239 11.2809 13.1925C11.0938 13.4611 10.8392 13.6833 10.5389 13.8398Z" fill="#00223A"/>
<path d="M68.2163 11.2276H65.1942V7.04892V1.04945H68.2163V4.3663H72.1947V7.04892H68.2163V11.2276ZM13.88 9.50697C13.4319 8.94508 12.8424 8.49391 12.1633 8.19297C11.4457 7.88952 10.7023 7.64185 9.94077 7.45252L6.79463 6.61496C6.13073 6.47773 5.49563 6.23988 4.91477 5.91093C4.68665 5.77585 4.501 5.5871 4.37662 5.3638C4.25225 5.1405 4.19358 4.8906 4.20656 4.63942C4.20499 4.2245 4.37028 3.82401 4.67 3.51661C5.00715 3.17526 5.43146 2.9185 5.90365 2.77009C6.4313 2.59222 6.99093 2.51081 7.55179 2.53035C8.4469 2.53117 9.31828 2.79806 10.0387 3.29204C10.7455 3.77119 11.2335 4.47935 11.4061 5.27669L14.5033 4.80025C14.2803 3.85492 13.8257 2.97016 13.175 2.21475C12.5436 1.49923 11.7304 0.941252 10.8089 0.591223C9.79033 0.20416 8.70109 0.00324573 7.60075 -0.000530266C6.4787 -0.0314485 5.36163 0.15027 4.31753 0.533565C3.40641 0.867784 2.61475 1.43353 2.03298 2.1662C1.45472 2.92379 1.15587 3.83513 1.18117 4.76384C1.18117 6.02018 1.5554 6.95484 2.30386 7.56784C3.10903 8.20868 4.06133 8.66959 5.08774 8.91521L9.63726 10.1655C10.1965 10.3012 10.7118 10.5616 11.1385 10.9241C11.2304 11.0171 11.3113 11.1188 11.38 11.2276H14.5817C14.5193 10.6056 14.2768 10.011 13.88 9.50697Z" fill="#E83A50"/>
</g>
<defs>
<clipPath id="clip0_1_5518">
<rect width="91" height="17" fill="white" transform="translate(0.5)"/>
</clipPath>
</defs>
</svg>
