<svg width="125" height="30" viewBox="0 0 125 30" fill="none" xmlns="http://www.w3.org/2000/svg">
<path d="M13.4949 22.3323C13.4949 22.3323 13.8534 22.1817 13.886 22.0729L13.8371 21.9507C13.8037 21.8704 13.8077 21.7834 13.8737 21.7365L14.2598 21.4612L14.9058 21.5893C14.9058 21.5893 14.7885 21.4386 14.7999 21.2378L14.1841 21.104L13.6025 21.4679C13.501 21.5452 13.4276 21.6552 13.3941 21.7803C13.3606 21.9055 13.3688 22.0385 13.4175 22.1582L13.4949 22.3331L13.4949 22.3323ZM18.0623 24.066C18.1771 24.061 18.3058 24.0593 18.4451 24.0593C18.4451 24.0593 18.7775 23.0594 18.7962 23.0276C18.5494 22.9093 18.3085 22.7783 18.0745 22.6352C18.1731 22.7874 18.4126 22.9607 18.3653 23.0945L18.0623 24.066ZM18.2602 12.4008C17.7666 12.9045 17.2933 13.0911 16.8705 13.1346C16.7931 13.1433 16.7153 13.1477 16.6375 13.148H16.6269C16.4714 13.148 16.3163 13.1312 16.1642 13.0978C16.1365 13.2108 16.1015 13.4476 16.2017 13.6718C16.2913 13.8751 16.4729 14.0266 16.7385 14.1278L16.8281 14.1638L16.8289 14.2626C16.8289 14.2918 16.8501 14.9328 17.5295 15.111C17.6403 14.9939 17.7413 14.8876 17.8146 14.7981C17.6762 14.4626 17.7495 14.1195 17.9507 13.9513C17.9425 13.9873 17.8529 14.8282 18.5087 15.1411L18.617 15.1939L18.5844 15.3118C18.5739 15.3478 18.3555 16.1619 19.1498 16.4648L19.2899 16.5201L19.2272 16.6598C19.2133 16.6908 18.9021 17.4296 19.6353 17.8496H21.2246V16.5502C20.6592 16.4791 20.4205 16.0113 20.3586 15.68C20.0955 15.634 19.8927 15.5177 19.7534 15.3277C19.4194 14.8759 19.7061 14.4617 19.7102 14.4391C19.7094 14.4424 19.7102 14.8826 19.9741 15.1553C20.1053 15.2859 20.2601 15.388 20.4955 15.4106L20.6104 15.4214L20.6201 15.5428C20.6226 15.5687 20.6853 16.1653 21.2246 16.259L21.2238 13.6065C21.2238 13.1949 21.3403 12.7815 21.4804 12.4H18.2601L18.2602 12.4008ZM13.9812 13.6166L13.9388 15.3051L14.1262 15.3353L14.5824 13.7145L14.3502 13.2158L13.982 13.6166H13.9812ZM14.9701 19.8704C14.9576 19.87 14.9452 19.867 14.9339 19.8615C14.9225 19.856 14.9124 19.8482 14.9041 19.8386C14.8958 19.829 14.8895 19.8177 14.8855 19.8054C14.8816 19.7932 14.8802 19.7803 14.8813 19.7675C14.882 19.7548 14.8852 19.7424 14.8906 19.731C14.8961 19.7196 14.9037 19.7094 14.9131 19.701C14.9224 19.6927 14.9333 19.6864 14.945 19.6824C14.9568 19.6784 14.9692 19.6769 14.9815 19.6779C15.0353 19.6805 15.0727 19.7281 15.0711 19.78C15.0692 19.8057 15.0576 19.8296 15.0387 19.8465C15.0198 19.8634 14.9951 19.872 14.9701 19.8704ZM19.012 21.3657C19.0259 21.3657 19.0421 21.3673 19.0568 21.3715C19.3419 21.4552 19.4128 22.5078 19.9105 22.6015C19.9594 22.6124 20.005 22.6149 20.0441 22.6149C20.1883 22.6149 20.2738 22.5521 20.3667 22.4392C20.3667 22.4392 20.1158 22.035 19.9284 21.7614C19.68 21.4033 19.4869 20.9707 19.0234 20.9707C19.012 20.9707 18.999 20.9707 18.9867 20.9724C18.8985 20.976 18.8131 21.0057 18.7407 21.0577C18.586 20.9526 18.4049 20.8959 18.2194 20.8946C17.9302 20.8946 17.7037 21.0318 17.5905 21.0318H17.5864L16.5519 20.9264C16.3897 20.9096 16.2618 20.7423 16.2154 20.677L16.1975 20.6486C16.1975 20.6193 16.1975 20.59 16.1959 20.5641C16.1608 19.693 15.5059 19.3206 15.2721 19.314C15.2721 19.314 15.2998 19.1483 15.2371 19.0855L15.009 19.37L14.2595 18.9834L14.7939 19.6261L14.3418 20.149C14.2848 20.2084 14.2921 20.2888 14.3157 20.3231L14.5112 20.5005L14.7589 20.3457C14.7711 20.3365 14.7939 20.3331 14.8216 20.3331C14.89 20.3331 14.9927 20.3515 15.0847 20.3515C15.1866 20.3515 15.2737 20.3298 15.2843 20.2319C15.2534 20.5549 14.9617 21.1163 15.1532 21.5573L15.2949 21.8903L14.3801 21.7547L13.9516 22.4986C13.8196 22.7463 13.7984 23.0141 13.9255 23.1596L14.086 23.3663C14.086 23.3663 14.3108 23.1212 14.3605 22.9597L14.288 22.8777C14.2269 22.8082 14.2302 22.7463 14.2677 22.6718L14.5365 22.2133L15.6159 22.4752L15.6729 22.3748C15.7462 22.2493 15.8521 22.2124 15.9678 22.2124C16.0159 22.2124 16.0647 22.2183 16.1152 22.2267C16.3156 22.2677 16.6456 22.3221 16.9755 22.3221C17.338 22.3221 17.6972 22.2551 17.8886 22.035C18.2797 22.6316 19.0731 22.7262 19.0104 23.0299L18.8018 24.0524C18.9403 24.0457 19.0731 24.0365 19.1994 24.019L19.3981 22.9555C19.4142 22.8651 19.4284 22.7745 19.4405 22.6835C19.3639 22.6032 19.179 22.435 19.0739 22.23C18.9346 21.953 19.0104 21.8083 18.88 21.4485C18.88 21.4485 18.9208 21.3648 19.012 21.3648L19.012 21.3657ZM28.5927 17.8847C27.7536 17.458 27.2241 16.3284 27.0954 15.9217C26.9569 18.1625 25.8939 19.717 24.6516 21.2131C24.0064 21.9896 23.7816 22.7444 23.7816 22.7444C23.7816 22.7444 23.9062 21.8892 24.4634 21.1931C25.6226 19.7606 26.724 17.9765 26.8063 15.9131C26.8625 14.4739 26.5032 13.3066 25.9411 12.3446C26.2556 13.3462 26.2108 14.5737 25.1444 15.719C25.1444 15.719 27.2681 13.1017 24.2997 10.4174C23.112 9.39658 21.8119 8.76565 21.143 8.31883C23.56 9.13048 24.741 8.23683 24.741 8.23683C23.9687 8.92545 22.9692 8.91375 22.3493 8.81418C22.5179 8.89869 22.693 8.98738 22.8804 9.09031C24.9194 10.2299 26.7509 12.105 27.0637 14.7006V14.6805C27.537 17.2301 28.5927 17.8842 28.5927 17.8842L28.5927 17.8847ZM29.2134 14.9142C29.2322 14.9159 29.2485 14.9159 29.2672 14.9159C30.4036 14.9159 30.7881 13.6633 30.7881 13.6633H30.7661C30.5576 13.6633 28.868 13.6131 27.6737 12.0509C26.8884 11.0242 26.2441 10.1213 24.9715 9.76654L24.846 9.74311L24.8192 9.61174C24.7841 9.41176 24.9169 9.22432 25.2199 9.02269C26.9754 7.83955 25.782 6.33007 25.782 6.33007C25.782 6.33007 25.2818 7.53664 24.1601 7.53664L24.0762 7.53496C23.9491 7.52827 23.8261 7.52408 23.7023 7.49647L23.4954 7.45464C23.4954 7.45464 23.8155 6.55931 23.0433 5.73848C22.4625 5.1176 21.7545 5.01218 21.3464 5.01218C21.1403 5.01218 21.01 5.0398 21.01 5.0398C21.3977 5.56108 21.678 6.42712 21.2299 6.96097C20.843 7.41952 19.898 7.44211 19.898 8.12656C19.898 8.41608 20.1612 8.75413 20.6336 9.05785C22.0543 9.97828 23.4644 11.1999 24.0508 12.8372C24.784 14.8789 23.958 16.2344 22.78 17.0117C22.78 17.0117 23.1499 17.3615 23.6851 17.4067C23.7942 17.4176 23.9009 17.4226 24.0003 17.4226C25.1318 17.4226 25.7167 16.8762 25.7167 16.8762C25.7167 16.8762 25.6198 17.6309 25.0324 18.3313C24.4883 18.9773 23.7755 19.3588 22.688 19.3747C22.688 19.3747 22.6537 19.8935 23.1352 20.3436C23.4439 20.6273 24.1551 20.7202 24.1551 20.7202C24.1551 20.7202 22.8224 20.9971 22.6749 23.0229C22.5951 24.1207 22.323 24.5014 22.323 24.5014H22.3466C25.439 24.5014 25.3599 21.772 25.3599 21.772C25.3599 21.772 25.575 22.5803 26.4376 22.7911C26.5419 22.8195 26.6535 22.8304 26.7594 22.8304C27.0364 22.8304 27.2783 22.7635 27.2783 22.7635C27.2783 22.7635 26.8262 21.7828 27.2742 20.4114C27.6465 19.2726 27.5862 18.4292 27.5862 18.4292C27.5862 18.4292 28.0025 19.0777 29.0362 19.0835H29.0468C29.291 19.0874 29.5322 19.0279 29.7481 18.9106C29.964 18.7933 30.1475 18.622 30.2818 18.4125C28.22 17.5314 28.4237 14.6889 28.4237 14.6889C28.4237 14.6889 28.6909 14.8947 29.2131 14.9148L29.2134 14.9142ZM8.61249 21.2133C7.37021 19.7172 6.30712 18.1626 6.16701 15.9219C6.03912 16.3294 5.51045 17.459 4.67221 17.8849C4.67221 17.8849 5.72634 17.2306 6.19961 14.6812V14.7013C6.51323 12.1057 8.34449 10.2307 10.3835 9.09191C10.5708 8.98732 10.7468 8.89946 10.9138 8.81578C10.2947 8.91452 9.29435 8.92623 8.52291 8.23843C8.52291 8.23843 9.70409 9.13123 12.12 8.3196C11.452 8.76642 10.1519 9.39732 8.96481 10.4182C5.99566 13.1024 8.11925 15.7198 8.11925 15.7198C7.05209 14.5734 7.00811 13.3476 7.32255 12.3454C6.76046 13.3076 6.4004 14.4749 6.45905 15.9151C6.5397 17.9776 7.64023 19.7614 8.79702 21.1951C9.35747 21.8896 9.48373 22.7447 9.48373 22.7447C9.48373 22.7447 9.25564 21.9908 8.61208 21.2143L8.61249 21.2133ZM9.10941 20.7196C9.10941 20.7196 9.8206 20.6276 10.1293 20.3431C10.6099 19.8938 10.5766 19.375 10.5766 19.375C9.48823 19.3591 8.77625 18.9776 8.22962 18.3316C7.64473 17.6312 7.54697 16.8765 7.54697 16.8765C7.54697 16.8765 8.13187 17.4229 9.26176 17.4229C9.36358 17.4229 9.46948 17.4179 9.57783 17.407C9.91215 17.3722 10.2284 17.2346 10.4853 17.0121C9.30574 16.2347 8.47975 14.8792 9.21208 12.8367C9.79861 11.2008 11.2079 9.97843 12.6304 9.05725C13.1021 8.75434 13.3644 8.4163 13.3644 8.1268C13.3644 7.44235 12.4211 7.41976 12.0341 6.96121C11.5861 6.42736 11.8672 5.56135 12.2541 5.04004C12.2541 5.04004 12.1246 5.01243 11.9177 5.01243C11.5103 5.01243 10.8025 5.11786 10.2208 5.73873C9.44692 6.56043 9.76869 7.45572 9.76869 7.45572L9.56178 7.49756C9.43877 7.5235 9.31413 7.52852 9.18706 7.53605L9.10559 7.53689C7.98143 7.53689 7.48205 6.33116 7.48205 6.33116C7.48205 6.33116 6.29027 7.8398 8.04574 9.02294C8.34713 9.22459 8.47993 9.41288 8.44488 9.61199L8.418 9.74252L8.2901 9.76595C7.02011 10.1216 6.37575 11.0244 5.58895 12.0511C4.39472 13.6133 2.70695 13.6635 2.49742 13.6635H2.47461C2.47461 13.6635 2.8599 14.9161 3.99713 14.9161C4.01505 14.9161 4.03134 14.9161 4.05089 14.9145C4.57305 14.8952 4.84108 14.6894 4.84108 14.6894C4.84108 14.6894 5.0431 17.5317 2.98213 18.413C2.98213 18.413 3.35767 19.0849 4.21793 19.0849H4.2277C5.26226 19.0782 5.67773 18.4297 5.67773 18.4297C5.67773 18.4297 5.61744 19.2739 5.98808 20.4119C6.43611 21.7842 5.98644 22.7632 5.98644 22.7632C5.98644 22.7632 6.22675 22.8301 6.50454 22.8301C6.61207 22.8301 6.72204 22.82 6.82549 22.7916C7.68735 22.5807 7.90322 21.7725 7.90322 21.7725C7.90322 21.7725 7.8242 24.5019 10.9171 24.5019H10.9399C10.9399 24.5019 10.6686 24.1212 10.5896 23.0234C10.443 20.9985 9.10861 20.7198 9.10861 20.7198L9.10941 20.7196ZM15.9336 10.6618H17.3917V11.1764C17.2207 10.9605 16.8867 11.0049 16.8867 11.0049V11.7471C16.8867 11.7471 16.8981 12.1119 17.0235 12.27H16.3018C16.428 12.1119 16.4386 11.7471 16.4386 11.7471V11.0049C16.4386 11.0049 16.1063 10.9605 15.9336 11.1764L15.9336 10.6618ZM14.3451 10.7388C14.3956 10.7949 14.4453 10.856 14.4933 10.917C14.5047 10.9313 14.5153 10.9438 14.5267 10.9605C14.5715 11.0208 14.6163 11.0861 14.6595 11.1513L14.6888 11.1957C14.7402 11.276 14.789 11.3588 14.8379 11.445C15.2843 12.2374 15.9979 12.711 16.6309 12.7119C17.2655 12.711 17.9782 12.2374 18.4255 11.445C18.4752 11.3572 18.5249 11.2718 18.577 11.1915C18.6365 11.0979 18.7001 11.0072 18.7676 10.9195C18.8173 10.856 18.8686 10.794 18.9208 10.7371C18.9297 10.7288 18.9371 10.7196 18.946 10.712C19.1741 10.4727 19.4438 10.2903 19.7989 10.1891L19.6409 10.0945H19.6327L19.0039 9.71964L18.3595 9.33891L16.6358 10.3045L16.6309 10.3003L16.6284 10.3045L14.9047 9.33891L14.2595 9.71964L13.6307 10.0945H13.6233L13.4645 10.1891C13.8188 10.2895 14.0893 10.4702 14.3174 10.7104C14.3272 10.7187 14.3337 10.7304 14.3451 10.7388ZM16.6309 4.70431C15.5637 4.70515 14.763 5.06494 14.5886 5.48917L16.6309 6.31756L18.6739 5.48917C18.5012 5.06494 17.7005 4.70515 16.6309 4.70431ZM16.6529 26.6595H16.6121C15.9654 26.6637 15.0733 26.5273 14.6448 26.3976L14.1284 27.836C14.4689 27.9607 15.6223 28.2 16.6333 28.2C17.6426 28.2 18.7969 27.9607 19.1366 27.836L18.621 26.3984C18.1901 26.5273 17.2997 26.6637 16.6529 26.6595ZM20.5604 25.2287C20.1759 25.4529 19.3182 25.7893 18.8188 25.9449L19.2375 27.1331C20.0097 26.9155 20.6476 26.662 21.1738 26.39L20.3038 26.093L20.5604 25.2287ZM12.7035 25.2287L12.961 26.093L12.0901 26.3901C12.6156 26.662 13.2558 26.9156 14.0257 27.1323L14.4452 25.9441C13.9467 25.7885 13.0872 25.4529 12.7035 25.2287ZM16.6307 3.32956C17.4363 3.32956 18.2249 3.52787 18.8326 3.87511C18.888 3.68433 18.9653 3.45172 19.0704 3.20824L18.8407 3.23669L18.6004 3.26179L18.4986 3.03671L18.1906 2.36984L17.6318 2.6694L17.4135 2.7832L17.2392 2.60748L16.6307 1.98828L16.0238 2.60748L15.8503 2.7832L15.6328 2.6694L15.0707 2.36984L14.7668 3.03671L14.6634 3.26263L14.4223 3.23669L14.1942 3.20824C14.2992 3.45173 14.3758 3.68437 14.432 3.87511C15.0414 3.52786 15.8299 3.32956 16.6315 3.32956H16.6307ZM28.9191 11.042C29.0242 11.0788 29.1301 11.0955 29.2352 11.0955C29.6914 11.0955 30.1313 10.7918 30.282 10.4454C30.282 10.4454 29.447 10.3935 28.5493 9.45547C28.2642 9.15256 27.9611 9.06136 27.7021 9.06136C27.2989 9.06136 26.9958 9.27975 26.9958 9.27975C28.0809 9.87384 28.3016 10.8278 28.9191 11.042ZM4.02856 11.0947C4.13446 11.0947 4.24036 11.0788 4.34218 11.0411C4.9613 10.8269 5.1845 9.87385 6.26711 9.2806C6.26711 9.2806 5.96409 9.06137 5.56328 9.06137C5.30261 9.06137 5.00038 9.15174 4.71363 9.45633C3.81675 10.3935 2.98255 10.4462 2.98255 10.4462C3.13244 10.7918 3.57314 11.0955 4.02853 11.0955L4.02856 11.0947ZM16.0825 7.39058V7.87589L15.992 7.83237C15.988 7.82903 15.8544 7.79891 15.6238 7.6098C15.2417 7.30521 15.2344 7.02408 15.2344 7.02408L16.0816 7.39059L16.0825 7.39058ZM16.4816 9.66401V6.64991L14.6178 5.99891L15.1098 8.91923L16.4824 9.66395L16.4816 9.66401ZM17.1822 7.39058L18.0294 7.02407C18.0294 7.02407 18.0229 7.30522 17.6392 7.60979C17.4086 7.79805 17.2758 7.82901 17.2718 7.83236L17.1822 7.87503L17.1822 7.39058ZM18.154 8.92016L18.6436 5.99984L16.7806 6.65V9.6641L18.154 8.91938L18.154 8.92016ZM13.8455 16.6509C14.0271 16.7178 14.2471 16.732 14.3603 16.732C14.3644 16.7178 14.3709 16.7002 14.3766 16.6785C14.3855 16.645 14.3953 16.6099 14.4026 16.573C14.4344 16.4057 14.445 16.2174 14.4483 16.0953C14.3441 16.0316 14.2592 15.9395 14.2031 15.8292C14.1338 15.6794 14.0353 15.6091 13.8911 15.6091C13.7037 15.6091 13.5025 15.7263 13.4154 15.7798C13.3469 16.1965 13.6459 16.5747 13.8455 16.65L13.8455 16.6509ZM17.9689 15.0518C17.6235 15.4392 16.9449 16.1145 16.9123 16.1479L16.8715 16.1898L14.7291 16.1555C14.7273 16.3375 14.7044 16.5187 14.6607 16.6952L14.6436 16.7646L17.1909 17.2365C17.4556 17.0458 18.1847 16.4977 18.4682 16.2827C18.2621 15.9731 18.2426 15.6057 18.289 15.348C18.1667 15.2687 18.0584 15.1685 17.9689 15.0518Z" fill="#FFFFFE"/>
<path d="M21.2248 18.1374H12.0399V21.6927C12.0399 23.1469 13.0623 24.0565 14.5717 24.0565C15.8319 24.0565 16.1643 24.1067 16.6327 24.5861C16.9561 24.2539 17.2233 24.1309 17.7732 24.0841L17.7854 24.0297L18.0746 23.1084C18.0583 23.0875 17.5858 22.5344 17.5858 22.5344C17.3984 22.5989 17.2404 22.6098 16.9748 22.6098C16.7035 22.6098 16.3964 22.5763 16.0633 22.5127C16.032 22.5051 16.0001 22.5012 15.968 22.501C15.9272 22.501 15.9248 22.5043 15.9134 22.5252L15.8564 22.6231L15.7505 22.8022L15.5525 22.7545L14.6711 22.5411L14.5497 22.7461L14.5684 22.7687L14.6752 22.8901L14.6279 23.049C14.5627 23.2557 14.3526 23.4975 14.2882 23.5645L14.0683 23.8071L13.8671 23.5469L13.7163 23.3519C13.5575 23.1695 13.5208 22.8901 13.6104 22.5972C13.6078 22.5992 13.6047 22.6003 13.6015 22.6005L13.353 22.7068L13.2414 22.4558L13.1624 22.2792C13.0866 22.0986 13.0729 21.8968 13.1237 21.7071C13.1745 21.5175 13.2867 21.3512 13.4418 21.2358L14.1506 20.8233L14.8267 20.9597C14.843 20.8928 14.8674 20.6551 14.8862 20.5941C14.8731 20.5924 14.8609 20.5899 14.8479 20.5899L14.4585 20.7388L14.0838 20.4727C14.0838 20.4727 13.9371 20.3271 14.0699 20.1815L14.4324 19.615L13.5119 18.4269L14.9269 19.0243L15.0214 18.9047L15.212 18.6687L15.4287 18.8812C15.4857 18.9384 15.5253 19.0114 15.5428 19.0913C15.9321 19.2477 16.6311 19.7088 16.693 20.4585L16.4747 20.548V20.5539C16.5244 20.6149 16.5659 20.64 16.579 20.6426L17.5891 20.7446C17.6151 20.7396 17.6461 20.7279 17.6819 20.7179C17.8082 20.6735 17.9964 20.6091 18.2196 20.6091C18.4021 20.6091 18.578 20.6526 18.7467 20.7346C18.8094 20.7095 18.8852 20.6919 18.9748 20.6861L19.0236 20.6844C19.5637 20.6844 19.8326 21.1002 20.0484 21.4324C20.0843 21.4901 20.1201 21.5437 20.1576 21.5972C20.3466 21.8717 20.5934 22.2725 20.6032 22.2901L20.7148 22.4683L20.5779 22.6323C20.4737 22.7578 20.3148 22.9042 20.0443 22.9042C19.9831 22.9037 19.922 22.8973 19.8619 22.885C19.8065 22.8741 19.7524 22.857 19.7006 22.8339C19.6923 22.893 19.6828 22.9519 19.6721 23.0105L19.4953 23.9619C20.5543 23.6941 21.2272 22.8707 21.2272 21.6926L21.2248 18.1374ZM12.0399 17.8512H19.1842C18.8273 17.4713 18.8331 16.9919 18.9235 16.6798C18.8271 16.6322 18.7375 16.5714 18.6571 16.499C18.3777 16.7107 17.5256 17.3491 17.3032 17.5098L17.2552 17.5433L14.4512 17.0211H14.3942C14.3274 17.0211 14.2288 17.0186 14.1213 17.0044C14.1098 17.0573 14.0836 17.1056 14.0459 17.1435C14.0082 17.1815 13.9606 17.2073 13.9089 17.218C13.8572 17.2288 13.8036 17.2238 13.7545 17.2039C13.7055 17.1839 13.6631 17.1498 13.6325 17.1056C13.6111 17.0755 13.5957 17.0412 13.5873 17.0049C13.5789 16.9685 13.5776 16.9308 13.5836 16.894L13.5942 16.8312C13.3059 16.622 13.0379 16.1534 13.1568 15.6598L13.1682 15.6079L13.2089 15.5778C13.25 15.5489 13.2924 15.5221 13.336 15.4974L13.1323 15.464C13.0962 15.4576 13.0639 15.437 13.0423 15.4065C13.0207 15.376 13.0115 15.3381 13.0167 15.3008C13.0297 15.2221 13.1006 15.1669 13.1763 15.1811L13.661 15.2598L13.7058 13.5018L14.4276 12.7153L14.8789 13.6917L14.4032 15.3836L14.8317 15.4531C14.8682 15.4592 14.901 15.4801 14.9226 15.511C14.9443 15.5419 14.9532 15.5803 14.9473 15.6179C14.9421 15.6512 14.9254 15.6815 14.9003 15.7033C14.8752 15.7251 14.8433 15.737 14.8105 15.7367L14.7885 15.7359L14.439 15.6773C14.4439 15.689 14.4504 15.6949 14.4553 15.7066C14.4942 15.7759 14.5527 15.8314 14.6231 15.8656L16.7598 15.9016C16.8502 15.8104 17.0743 15.5845 17.3056 15.3451C17.1043 15.2692 16.9275 15.1372 16.7951 14.9638C16.6627 14.7904 16.58 14.5826 16.5562 14.3636C16.2629 14.2348 16.0593 14.0423 15.9469 13.7913C15.81 13.4801 15.8589 13.1688 15.8955 13.0173C15.6104 12.9111 15.3106 12.7153 15.0043 12.4023H11.7852C11.9236 12.7839 12.0401 13.1973 12.0401 13.6081V17.8504L12.0399 17.8512Z" fill="#FFE52B"/>
<path d="M16.6326 6.31991L14.5903 5.48984C14.7638 5.06645 15.5646 4.70666 16.6326 4.70582C17.7013 4.70666 18.5021 5.06645 18.6756 5.48984L16.6326 6.31991ZM18.1551 8.92133L16.7825 9.66605V6.65045L18.6455 5.99945L18.1551 8.91977L18.1551 8.92133ZM19.0056 9.72125L19.6328 10.0961H19.6418L19.7998 10.1907C19.4455 10.2911 19.1742 10.4743 18.9469 10.7136L18.9225 10.7387C18.8689 10.7975 18.8175 10.8583 18.7685 10.9211L18.74 10.9596C18.6911 11.0241 18.6447 11.0902 18.6015 11.1588L18.5779 11.1931C18.5251 11.2759 18.4748 11.3605 18.4272 11.4466C17.9792 12.239 17.2664 12.7126 16.6326 12.7143C15.9988 12.7126 15.2852 12.239 14.8388 11.4466C14.7914 11.3621 14.7416 11.279 14.6897 11.1973L14.6604 11.1529C14.6178 11.0883 14.5738 11.0247 14.5284 10.9621C14.517 10.9454 14.5064 10.9329 14.495 10.9186C14.4472 10.8576 14.3975 10.7982 14.346 10.7404C14.3354 10.732 14.328 10.7212 14.3183 10.712C14.0855 10.4616 13.7906 10.2814 13.4654 10.1907L13.625 10.0961H13.6316L14.2613 9.72125L14.9056 9.34052L16.6293 10.3061L16.6326 10.3028L16.6375 10.3061L18.3604 9.34052L19.0056 9.72125ZM21.482 12.4022C21.3411 12.7837 21.2246 13.1971 21.2246 13.6079L21.2262 16.2604C20.6877 16.1683 20.6234 15.5709 20.6217 15.545L20.612 15.4236L20.4955 15.4128C20.2979 15.3949 20.1133 15.3042 19.9757 15.1576C19.711 14.8856 19.711 14.4455 19.711 14.4413C19.7077 14.4639 19.421 14.8764 19.7534 15.3283C19.8935 15.519 20.0971 15.637 20.3594 15.683C20.4213 16.0135 20.6608 16.4813 21.2262 16.5532V17.8502H19.6369C18.9037 17.431 19.2141 16.693 19.2288 16.6612L19.2907 16.5206L19.1506 16.4663C18.3563 16.1633 18.5755 15.3484 18.5861 15.3132L18.6186 15.1944L18.5095 15.1425C17.8546 14.8296 17.9433 13.9878 17.9523 13.9527C17.7503 14.1209 17.6778 14.4631 17.8163 14.8003C17.7413 14.889 17.6403 14.9953 17.5303 15.1124C17.339 15.0695 17.1667 14.9631 17.0401 14.8096C16.9135 14.6561 16.8396 14.4641 16.8298 14.2631L16.8289 14.1644L16.7393 14.1292C16.4746 14.0288 16.2929 13.8765 16.2025 13.6732C16.1023 13.4481 16.1373 13.213 16.165 13.0984C16.3172 13.1308 16.4722 13.1476 16.6277 13.1486H16.6383C16.7173 13.1486 16.7947 13.1436 16.8713 13.136C17.2949 13.0925 17.7674 12.9059 18.261 12.4022L21.482 12.4022ZM19.4959 23.9618L19.6735 23.0104L19.702 22.8347C19.8116 22.8788 19.9281 22.9023 20.0458 22.9041C20.3163 22.9041 20.4743 22.7569 20.5794 22.6322L20.7146 22.469L20.6038 22.29C20.594 22.2724 20.3472 21.8716 20.1582 21.5972C20.1207 21.5429 20.0845 21.4877 20.0499 21.4315C19.834 21.1001 19.5644 20.6843 19.0235 20.6843L18.9754 20.6859C18.8975 20.6903 18.8206 20.7063 18.7473 20.7336C18.5827 20.6528 18.4027 20.6105 18.2202 20.6098C18.0367 20.6143 17.8552 20.6505 17.6834 20.7169C17.6475 20.7278 17.615 20.7395 17.5897 20.7445L16.5796 20.6424C16.5666 20.6391 16.5258 20.614 16.4753 20.5537V20.5479L16.6936 20.4584C16.6325 19.7087 15.9328 19.2476 15.5434 19.0911C15.5261 19.011 15.4865 18.9377 15.4293 18.8803L15.2127 18.6686L15.022 18.9037L14.9284 19.0242L13.5126 18.4259L14.4331 19.6149L14.0705 20.1814C13.937 20.3262 14.0844 20.4726 14.0844 20.4726L14.4591 20.7387L14.8485 20.5889C14.8615 20.5889 14.8729 20.5923 14.8868 20.5939C14.8681 20.655 14.8436 20.8935 14.8273 20.9596L14.152 20.8232L13.4433 21.2357C13.0775 21.5118 13.0278 21.967 13.1639 22.2791L13.2421 22.4565L13.3537 22.7067L13.6021 22.6013C13.6062 22.5996 13.6094 22.5987 13.6119 22.5962C13.5223 22.89 13.5589 23.1686 13.7178 23.3518L13.8685 23.5468L14.0689 23.8078L14.2888 23.5644C14.354 23.4974 14.5642 23.2556 14.6285 23.0481L14.6758 22.8899L14.5691 22.7686L14.5512 22.746L14.6717 22.541L15.5531 22.7552L15.7519 22.8021L15.8578 22.6222L15.9148 22.5251C15.9254 22.5042 15.9279 22.5009 15.9686 22.5009C16.0004 22.5009 16.0313 22.5042 16.0647 22.5126C16.3653 22.5735 16.6707 22.6057 16.9771 22.6088C17.2402 22.6088 17.3991 22.5988 17.5864 22.5343C17.5864 22.5343 18.0597 23.0866 18.076 23.1083L17.786 24.0288L17.7729 24.084C17.2247 24.13 16.9575 24.2538 16.6341 24.586C16.1649 24.1074 15.8333 24.0564 14.5731 24.0564C13.0637 24.0564 12.0405 23.1468 12.0405 21.6917V18.1374H21.226L21.2277 21.6917C21.2277 22.8707 20.5549 23.6932 19.4959 23.9618ZM13.8383 21.9519L13.8864 22.0749C13.8538 22.182 13.4953 22.3343 13.4953 22.3343L13.4188 22.1594C13.3699 22.0396 13.3615 21.9064 13.395 21.7811C13.4286 21.6558 13.502 21.5456 13.6037 21.4683L14.1845 21.1043L14.8012 21.2382C14.7889 21.4398 14.9063 21.5904 14.9063 21.5904L14.2611 21.4633L13.8741 21.7377C13.809 21.7846 13.8041 21.8716 13.8383 21.9519ZM19.3981 22.956L19.2001 24.0195C19.0731 24.0379 18.9395 24.048 18.8026 24.053L19.0112 23.0322C19.0731 22.7276 18.2813 22.6331 17.8894 22.0364C17.698 22.2573 17.3387 22.3235 16.977 22.3235C16.6463 22.3235 16.3172 22.2691 16.116 22.2281C16.0676 22.2194 16.0185 22.2147 15.9694 22.2138C15.8529 22.2138 15.7478 22.2507 15.6745 22.377L15.6175 22.4774L14.5373 22.2155L14.2684 22.6732C14.231 22.7477 14.2277 22.8096 14.2888 22.8791L14.3621 22.9611C14.3116 23.1226 14.0868 23.3677 14.0868 23.3677L13.9263 23.161C13.7992 23.0154 13.8204 22.7477 13.9524 22.5L14.3809 21.7553L15.2957 21.8917L15.1539 21.5578C14.9625 21.1169 15.2541 20.5563 15.2851 20.2333C15.2745 20.3312 15.1873 20.3529 15.0863 20.3529C14.9935 20.3529 14.8908 20.3354 14.8224 20.3354C14.7955 20.3354 14.7719 20.3379 14.7597 20.3471L14.512 20.5019L14.3165 20.3245C14.2929 20.291 14.2855 20.2099 14.3426 20.1496L14.7955 19.6275L14.2611 18.9849L15.0089 19.3723L15.2378 19.0869C15.3006 19.1505 15.2729 19.3154 15.2729 19.3154C15.5066 19.3221 16.1624 19.6944 16.1966 20.5646C16.1991 20.5914 16.1991 20.6207 16.1991 20.65L16.2162 20.6784C16.2626 20.7445 16.3905 20.9127 16.5526 20.9278L17.5872 21.0332H17.5913C17.7053 21.0332 17.931 20.896 18.2201 20.896C18.379 20.896 18.5541 20.9378 18.7415 21.0592C18.7415 21.0592 18.836 20.9822 18.9883 20.9738C18.9997 20.9721 19.0128 20.9721 19.0234 20.9721C19.4877 20.9721 19.6807 21.4039 19.93 21.7628C20.1174 22.0356 20.3675 22.4406 20.3675 22.4406C20.2754 22.5536 20.1891 22.6163 20.0449 22.6163C20 22.6165 19.9553 22.612 19.9113 22.6029C19.4144 22.5084 19.3419 21.4566 19.0584 21.3729C19.0435 21.3689 19.0282 21.3669 19.0128 21.3671C18.9215 21.3671 18.8816 21.4507 18.8816 21.4507C19.012 21.8097 18.9354 21.9544 19.0755 22.2314C19.1798 22.4364 19.3647 22.6046 19.4413 22.6849C19.4413 22.6849 19.4209 22.8406 19.3981 22.9569L19.3981 22.956ZM18.4458 24.0605C18.3073 24.0605 18.1786 24.0622 18.0629 24.0672L18.366 23.0957C18.4132 22.961 18.1737 22.7878 18.0751 22.6355C18.2242 22.7326 18.6112 22.9451 18.7977 23.0288C18.6768 23.3714 18.5595 23.7153 18.4458 24.0605ZM13.9392 15.3065L13.9824 13.6179L14.3506 13.2171L14.5819 13.7158L14.1257 15.3366L13.9384 15.3073L13.9392 15.3065ZM14.204 15.8303C14.2599 15.9403 14.3445 16.0321 14.4484 16.0955C14.4455 16.256 14.4305 16.4161 14.4035 16.5742C14.3954 16.611 14.3873 16.6453 14.3767 16.6796C14.3718 16.7014 14.3653 16.7189 14.3612 16.7331C14.248 16.7331 14.0272 16.7189 13.8472 16.6511C13.6468 16.5758 13.3478 16.1976 13.417 15.7809C13.5034 15.7265 13.7038 15.6102 13.8919 15.6102C14.0361 15.6102 14.1347 15.6805 14.204 15.8303ZM18.4693 16.2838C18.1866 16.4988 17.4567 17.0469 17.192 17.2377L14.6439 16.7658L14.6618 16.6963C14.6944 16.5599 14.7294 16.3742 14.731 16.1558L16.8727 16.1909L16.9134 16.1491C16.946 16.1156 17.6246 15.4404 17.97 15.053C18.0523 15.1592 18.1549 15.2596 18.2901 15.3483C18.2445 15.6077 18.2632 15.9742 18.4693 16.2838ZM15.0048 12.4024C15.3119 12.7153 15.6109 12.9103 15.896 13.0174C15.8594 13.168 15.8105 13.481 15.9474 13.7914C16.0598 14.0424 16.2634 14.2348 16.5575 14.3637C16.5901 14.6733 16.7799 15.1393 17.307 15.3452C17.0756 15.5845 16.8507 15.8104 16.7611 15.9008L14.6236 15.8665C14.553 15.8318 14.4944 15.7757 14.4558 15.7058C14.4517 15.695 14.4444 15.6891 14.4395 15.6774L14.789 15.736L14.811 15.7368C14.8438 15.737 14.8757 15.7252 14.9008 15.7034C14.9259 15.6816 14.9426 15.6513 14.9478 15.618C14.9537 15.5805 14.945 15.5421 14.9234 15.5113C14.9019 15.4804 14.8694 15.4595 14.833 15.4531L14.4037 15.3829L14.8794 13.6918L14.4289 12.7153L13.7063 13.5019L13.6623 15.2599L13.1768 15.1804C13.1019 15.1653 13.0302 15.2222 13.0163 15.3C13.0109 15.3377 13.0201 15.376 13.0418 15.4068C13.0636 15.4377 13.0963 15.4585 13.1328 15.4649L13.3365 15.4967C13.2632 15.5393 13.2151 15.5736 13.2094 15.5778L13.1687 15.6079L13.1573 15.6598C13.0391 16.1535 13.3063 16.6221 13.5947 16.8313L13.5841 16.894C13.5727 16.9693 13.589 17.0446 13.633 17.1057C13.658 17.1428 13.6916 17.1731 13.7306 17.1938C13.7697 17.2145 13.8131 17.225 13.857 17.2245C13.9188 17.224 13.9785 17.2021 14.0266 17.1623C14.0746 17.1225 14.1082 17.0672 14.1218 17.0053C14.2293 17.0179 14.3279 17.0212 14.3947 17.0212H14.4525L17.2557 17.5425L17.3037 17.5098C17.5269 17.3492 18.379 16.7108 18.6576 16.4991C18.735 16.5669 18.8205 16.6288 18.924 16.6798C18.8336 16.9919 18.8279 17.4714 19.1847 17.8513H12.0404V13.609C12.0404 13.1973 11.9239 12.7839 11.7854 12.4024L15.0048 12.4024ZM14.6187 6.00131L16.4833 6.65147V9.66557L15.1107 8.92085L14.6187 6.00053V6.00131ZM19.1674 5.63732C19.1674 4.90181 17.9642 4.23995 16.6364 4.23995H16.6282C15.3004 4.23995 14.098 4.90181 14.098 5.63732L14.1241 5.81805L14.6544 8.95005L14.1217 9.26799L12.7442 10.0964H12.7491C12.7491 10.0964 12.4395 10.2604 12.2953 10.3608C11.7707 10.7357 11.6591 11.2829 11.9637 11.5088C12.0387 11.0628 12.3816 10.5967 13.0228 10.5967C13.4855 10.5967 13.8374 10.8427 14.1225 11.2101C14.1958 11.3029 14.265 11.4025 14.3294 11.5088C14.4092 11.6435 14.4899 11.7623 14.5689 11.8761H11.0188C11.2795 12.4158 11.5279 12.9873 11.5279 13.6082V21.6929C11.5279 23.6492 12.9902 24.5829 14.5722 24.5829C15.7949 24.5829 15.9594 24.526 16.6339 25.2172C17.3052 24.5261 17.4705 24.5829 18.6941 24.5829C20.2769 24.5829 21.7369 23.6492 21.7369 21.6929V13.6082C21.7369 12.9873 21.9853 12.4158 22.2477 11.8761H18.6958C18.7757 11.7623 18.8555 11.6435 18.9353 11.5088C19.0005 11.4025 19.0697 11.303 19.1414 11.2101C19.4282 10.8411 19.7801 10.5967 20.2428 10.5967C20.8839 10.5967 21.226 11.0628 21.3018 11.5088C21.6064 11.2829 21.4965 10.7356 20.9678 10.3608C20.8277 10.2604 20.5165 10.0964 20.5165 10.0964H20.5222L19.1414 9.26799L18.6119 8.95005L19.1414 5.81805L19.1674 5.63732ZM4.71441 9.45782C5.00117 9.15407 5.30337 9.06206 5.56407 9.06206C5.96484 9.06206 6.26871 9.28212 6.26871 9.28212C5.18529 9.87621 4.96206 10.8284 4.34296 11.0435C4.24214 11.0794 4.13605 11.0972 4.02934 11.0962C3.57395 11.0962 3.13325 10.7933 2.98336 10.4477C2.98336 10.4477 3.81751 10.395 4.71441 9.45782ZM4.02931 11.4777C4.17839 11.4777 4.32421 11.4543 4.46268 11.4058C4.85043 11.2736 5.0981 10.9564 5.35877 10.6251C5.62516 10.2879 5.92492 9.90546 6.44465 9.62097L6.97904 9.32559L6.48212 8.9658C6.44139 8.93986 6.06911 8.6813 5.56407 8.6813C5.15024 8.6813 4.76573 8.8545 4.44887 9.18752C3.67743 9.99833 2.98582 10.0636 2.96055 10.0644L2.42289 10.097L2.64283 10.6049C2.86604 11.1112 3.44933 11.4777 4.02931 11.4777ZM6.45931 15.9156C6.40229 14.4756 6.76069 13.3083 7.32281 12.3459C7.01 13.3483 7.05235 14.575 8.12114 15.7215C8.12114 15.7215 5.99662 13.1025 8.96589 10.4199C10.1536 9.39827 11.4529 8.76737 12.1211 8.32052C9.70494 9.13217 8.52458 8.23852 8.52458 8.23852C9.29601 8.92714 10.2956 8.91628 10.9155 8.81587C10.7477 8.90038 10.5717 8.98823 10.3843 9.09283C8.34536 10.2316 6.51504 12.1069 6.20048 14.7022V14.683C5.72722 17.2317 4.67309 17.8861 4.67309 17.8861C5.51214 17.4594 6.04002 16.3297 6.1687 15.9231C6.30882 18.1639 7.37109 19.7184 8.61255 21.2154C9.25772 21.991 9.48419 22.7449 9.48419 22.7449C9.48419 22.7449 9.35874 21.8906 8.79909 21.1953C7.64236 19.762 6.54097 17.9781 6.45952 15.9153L6.45931 15.9156ZM15.934 10.6632V11.1786C16.1067 10.9619 16.439 11.0063 16.439 11.0063V11.7485C16.439 11.7485 16.4284 12.1133 16.3022 12.2714H17.0239C16.8985 12.1133 16.8863 11.7485 16.8863 11.7485V11.0063C16.8863 11.0063 17.2202 10.9619 17.3913 11.1786V10.6632H15.9332H15.934ZM15.6244 7.61102C15.855 7.79928 15.9886 7.83108 15.9926 7.83359L16.0823 7.87627V7.3918L15.2351 7.02529C15.2351 7.02529 15.2424 7.30645 15.6244 7.61102ZM17.6398 7.61102C18.0227 7.30643 18.0308 7.0253 18.0308 7.0253L17.1828 7.39181V7.87712L17.2724 7.83361C17.2765 7.83109 17.4093 7.79929 17.6398 7.61102ZM27.703 9.06275C27.962 9.06275 28.265 9.15395 28.5502 9.4577C29.4479 10.3948 30.2828 10.4476 30.2828 10.4476C30.1313 10.7931 29.6914 11.0969 29.236 11.0969C29.131 11.0969 29.0242 11.0802 28.9208 11.0425C28.3025 10.8283 28.0817 9.87524 26.9975 9.28199C26.9975 9.28199 27.2989 9.06275 27.703 9.06275ZM26.8207 9.62003C27.3396 9.90453 27.6426 10.2869 27.9082 10.625C28.1689 10.9555 28.4157 11.2734 28.8043 11.4057C28.9412 11.4542 29.087 11.4776 29.236 11.4776C29.8169 11.4776 30.4009 11.1111 30.6225 10.604L30.8449 10.097L30.3065 10.0635C30.2812 10.0635 29.5879 9.99742 28.8173 9.18746C28.4996 8.85443 28.1159 8.6804 27.7029 8.6804C27.1978 8.6804 26.8231 8.93979 26.7824 8.96657L26.2871 9.32555L26.8207 9.62003ZM27.0643 14.6831V14.7024C26.7515 12.1068 24.9202 10.2324 22.881 9.09297C22.6936 8.98922 22.5185 8.90052 22.3499 8.81684C22.9698 8.91558 23.9693 8.92729 24.7416 8.23949C24.7416 8.23949 23.5604 9.13229 21.1436 8.32066C21.8116 8.76748 23.1126 9.39838 24.3003 10.4192C27.268 13.1035 25.145 15.7208 25.145 15.7208C26.2121 14.5753 26.2562 13.3487 25.9417 12.3464C26.5038 13.3087 26.8622 14.4759 26.8069 15.9161C26.7254 17.9787 25.6232 19.7624 24.464 21.1961C23.9068 21.8906 23.783 22.7458 23.783 22.7458C23.783 22.7458 24.0078 21.9919 24.6522 21.2162C25.8945 19.7184 26.9576 18.1646 27.096 15.9239C27.2247 16.3314 27.7542 17.461 28.5933 17.8869C28.5933 17.8869 27.5383 17.2325 27.0643 14.6838L27.0643 14.6831ZM10.9185 24.503C7.82553 24.503 7.90468 21.7744 7.90468 21.7744C7.90468 21.7744 7.68799 22.5827 6.82695 22.7927C6.72177 22.8199 6.61364 22.8331 6.50518 22.8321C6.22821 22.8321 5.98709 22.7651 5.98709 22.7651C5.98709 22.7651 6.43757 21.7844 5.98872 20.413C5.61888 19.2751 5.67919 18.4308 5.67919 18.4308C5.67919 18.4308 5.26293 19.0793 4.22916 19.086H4.21857C3.35914 19.086 2.9836 18.4141 2.9836 18.4141C5.04457 17.533 4.84254 14.6905 4.84254 14.6905C4.84254 14.6905 4.57372 14.8963 4.05236 14.9164H3.99778C2.86055 14.9164 2.47526 13.6646 2.47526 13.6646H2.49888C2.70905 13.6646 4.39612 13.6144 5.58954 12.0522C6.37564 11.0256 7.02081 10.1227 8.29069 9.76791L8.41859 9.74448L8.44547 9.61311C8.48131 9.41397 8.34772 9.22569 8.04633 9.02406C6.29083 7.84092 7.48264 6.33228 7.48264 6.33228C7.48264 6.33228 7.98117 7.53801 9.10618 7.53801L9.18764 7.53717C9.31472 7.53048 9.43936 7.52462 9.56236 7.49784L9.76928 7.45685C9.76928 7.45685 9.44832 6.56153 10.2222 5.73986C10.8038 5.11898 11.5101 5.01356 11.9182 5.01356C12.126 5.01356 12.2539 5.04117 12.2539 5.04117C11.8677 5.56245 11.5875 6.42849 12.0339 6.96234C12.4217 7.42173 13.3658 7.44348 13.3658 8.12709C13.3658 8.41745 13.1027 8.7555 12.631 9.05922C11.2095 9.97965 9.79949 11.2013 9.21266 12.8386C8.48115 14.8803 9.30716 16.2358 10.4859 17.014C10.4859 17.014 10.1152 17.3638 9.57924 17.4081C9.47418 17.4185 9.36871 17.4238 9.26316 17.424C8.13245 17.424 7.54759 16.8784 7.54759 16.8784C7.54759 16.8784 7.64534 17.6323 8.23024 18.3335C8.77605 18.9795 9.48881 19.3602 10.5764 19.3761C10.5764 19.3761 10.6114 19.8949 10.1299 20.3451C9.82121 20.6296 9.11003 20.7216 9.11003 20.7216C9.11003 20.7216 10.4436 20.9994 10.5902 23.0243C10.67 24.1221 10.9405 24.5028 10.9405 24.5028L10.9185 24.503ZM11.2468 24.2855C11.246 24.2813 11.0301 23.9341 10.9609 22.9969C10.8794 21.874 10.4672 21.218 10.0591 20.8415C10.1772 20.7846 10.2872 20.7135 10.3784 20.6281C10.9772 20.0742 10.9519 19.4232 10.9478 19.3512L10.925 18.9998L10.5821 18.9948C9.66809 18.9797 9.03025 18.6986 8.51297 18.0811C8.40145 17.9474 8.30219 17.8034 8.21643 17.651C8.50156 17.7405 8.85022 17.8066 9.26323 17.8066C9.3732 17.8066 9.48888 17.7999 9.61026 17.7916C10.026 17.7489 10.4192 17.5766 10.7369 17.2979L11.0929 16.9607L10.6872 16.6929C9.77811 16.0947 8.84864 14.9609 9.56304 12.972C10.0249 11.6793 11.0929 10.5087 12.8295 9.38552C13.416 9.00479 13.737 8.55545 13.737 8.12705C13.737 7.46519 13.1993 7.20413 12.8051 7.01753C12.6128 6.92298 12.4124 6.82927 12.3155 6.71294C12.01 6.34895 12.2666 5.65196 12.5509 5.27372L12.9143 4.78424L12.3253 4.66459C12.309 4.66207 12.1542 4.6328 11.918 4.6328C11.4789 4.6328 10.639 4.74241 9.95477 5.47289C9.38372 6.08036 9.30878 6.72719 9.3381 7.1447C9.28271 7.14971 9.22732 7.15223 9.16866 7.15474H9.10594C8.24571 7.15474 7.84003 6.2176 7.82455 6.1816L7.58261 5.59588L7.19159 6.08956C7.16959 6.11968 6.59691 6.85267 6.73701 7.77226C6.82906 8.38309 7.20216 8.91022 7.84246 9.34366C7.91252 9.38968 7.96058 9.429 7.99561 9.46164C6.78671 9.86577 6.11303 10.7519 5.40106 11.6832L5.29842 11.8154C4.21009 13.2404 2.66955 13.283 2.48555 13.283L1.96094 13.2663L2.1206 13.78C2.13934 13.842 2.60365 15.3004 3.99748 15.3004L4.06428 15.2979C4.21173 15.2937 4.34452 15.2728 4.46181 15.2494C4.40479 16.0443 4.11969 17.5144 2.83909 18.0609L2.44807 18.2282L2.65987 18.6073C2.67942 18.6416 3.15516 19.4674 4.2321 19.4674C4.61754 19.4714 4.9982 19.3795 5.3416 19.1997C5.38315 19.5595 5.4695 20.0205 5.63732 20.5368C6.0267 21.73 5.6642 22.5676 5.65036 22.601L5.45811 23.0177L5.89229 23.1357C5.92162 23.1441 6.18883 23.2127 6.50487 23.2127C6.93975 23.2139 7.36061 23.0547 7.69096 22.7642C7.80908 23.1382 8.01191 23.5608 8.363 23.9348C8.96092 24.5665 9.82036 24.8853 10.9429 24.8853L11.6231 24.8761L11.2468 24.2855ZM14.9818 19.6793C14.9694 19.6783 14.9569 19.6798 14.9451 19.6838C14.9333 19.6878 14.9224 19.6943 14.913 19.7027C14.9037 19.7111 14.8961 19.7214 14.8907 19.7329C14.8853 19.7444 14.8822 19.7569 14.8816 19.7696C14.8806 19.7824 14.8821 19.7952 14.8861 19.8074C14.89 19.8195 14.8964 19.8307 14.9047 19.8402C14.913 19.8498 14.9231 19.8575 14.9344 19.8629C14.9457 19.8683 14.9579 19.8713 14.9704 19.8717C14.9953 19.8733 15.0198 19.8649 15.0387 19.8481C15.0575 19.8314 15.0693 19.8077 15.0714 19.7822C15.0727 19.7564 15.064 19.731 15.0472 19.7117C15.0304 19.6925 15.0069 19.6808 14.9818 19.6793ZM19.2389 27.1346L18.8194 25.9464C19.3188 25.79 20.1766 25.4536 20.5619 25.2302L20.3053 26.0945L21.1745 26.3916C20.6482 26.6627 20.0112 26.9162 19.2389 27.1338L19.2389 27.1346ZM16.6338 28.2014C15.6229 28.2014 14.4694 27.9621 14.1289 27.8374L14.6453 26.3999C15.0738 26.5288 15.965 26.6652 16.6126 26.661H16.6534C17.3001 26.6652 18.1905 26.5279 18.6215 26.3999L19.1371 27.8374C18.7966 27.963 17.6432 28.2014 16.6338 28.2014ZM12.0916 26.3916L12.9616 26.0945L12.7042 25.2302C13.0878 25.4536 13.9481 25.7908 14.4458 25.9464L14.0263 27.1346C13.2565 26.917 12.617 26.6627 12.0916 26.3916ZM21.2137 26.128L20.6842 25.9188L20.8308 25.3565L20.9913 24.7432C20.9913 24.7432 20.0545 25.267 18.7324 25.6595C18.3576 25.7699 18.0742 25.821 18.0742 25.821V26.2385C18.0742 26.2385 17.3671 26.364 16.6535 26.364H16.6128C15.8975 26.364 15.1921 26.2385 15.1921 26.2385V25.8201C15.1921 25.8201 14.9078 25.7699 14.5331 25.6595C13.2126 25.2662 12.2757 24.7432 12.2757 24.7432L12.4338 25.3565L12.5837 25.9188L12.0525 26.128L11.4636 26.3539C12.1381 26.6894 13.0733 27.1773 13.9286 27.4182L13.7274 27.9856C13.7274 27.9856 14.8125 28.4943 16.6202 28.4993V28.5001H16.6446V28.4993C18.4547 28.4943 19.5398 27.9856 19.5398 27.9856L19.3361 27.4182C20.1923 27.1773 21.1291 26.6903 21.8003 26.3539L21.2137 26.128ZM14.4237 3.23709L14.664 3.26387L14.7675 3.03794L15.0705 2.37107L15.6326 2.67064L15.8509 2.78527L16.6313 1.98868L17.2398 2.60788L17.4142 2.78527L17.6325 2.67064L18.1913 2.37107L18.4992 3.03794L18.6011 3.26387L18.8414 3.23709L19.0711 3.20948C18.966 3.45297 18.8886 3.68477 18.8324 3.87719C18.2255 3.52826 17.437 3.3308 16.6322 3.3308C15.8305 3.3308 15.042 3.52827 14.4327 3.87719C14.367 3.64976 14.2875 3.42676 14.1948 3.20948L14.4229 3.23709H14.4237ZM16.6314 3.67806C17.7091 3.67806 18.5701 4.04622 19.0467 4.43697C19.0467 4.43697 19.1884 3.56091 19.6707 2.78859L18.8031 2.889L18.3494 1.89744L17.4777 2.36016L16.6314 1.5L15.7882 2.36016L14.9149 1.89744L14.462 2.88984L13.5944 2.78776C14.0775 3.56092 14.2184 4.43614 14.2184 4.43614C14.6974 4.04536 15.556 3.67806 16.6314 3.67806ZM30.2829 18.4138C30.2829 18.4138 29.9081 19.0856 29.0479 19.0856H29.0373C28.0044 19.0789 27.5873 18.4305 27.5873 18.4305C27.5873 18.4305 27.6475 19.2739 27.2761 20.4127C26.8281 21.785 27.2794 22.7639 27.2794 22.7639C27.2794 22.7639 27.0382 22.8317 26.7604 22.8317C26.6545 22.8317 26.5438 22.8208 26.4387 22.7924C25.576 22.5824 25.3609 21.7741 25.3609 21.7741C25.3609 21.7741 25.4408 24.5027 22.3477 24.5027H22.3233C22.3233 24.5027 22.5962 24.122 22.6768 23.0242C22.8234 20.9993 24.1561 20.7206 24.1561 20.7206C24.1561 20.7206 23.445 20.6286 23.1362 20.3449C22.6548 19.8956 22.6882 19.376 22.6882 19.376C23.7765 19.3601 24.4902 18.9794 25.0335 18.3326C25.3837 17.9188 25.6199 17.4164 25.7178 16.8775C25.7178 16.8775 25.1329 17.4239 24.0014 17.4239C23.902 17.4239 23.7961 17.4188 23.687 17.408C23.1509 17.3636 22.7811 17.013 22.7811 17.013C23.9591 16.2357 24.7851 14.8793 24.0527 12.8376C23.4662 11.2018 22.0553 9.97939 20.6355 9.05881C20.1631 8.75506 19.8991 8.41702 19.8991 8.12668C19.8991 7.44307 20.8441 7.42132 21.2318 6.96193C21.6799 6.42808 21.3988 5.56207 21.0111 5.04076C21.0111 5.04076 21.1414 5.01315 21.3475 5.01315C21.7564 5.01315 22.4635 5.11858 23.0452 5.73945C23.8166 6.56115 23.4965 7.45644 23.4965 7.45644L23.7034 7.49828C23.8272 7.52422 23.9502 7.53007 24.0781 7.53677L24.1612 7.53761C25.2829 7.53761 25.7839 6.33104 25.7839 6.33104C25.7839 6.33104 26.9765 7.84052 25.221 9.02366C24.9188 9.22531 24.7852 9.4136 24.8202 9.61271L24.8479 9.74408L24.9726 9.76667C26.245 10.1223 26.8894 11.026 27.6756 12.0518C28.8698 13.614 30.5594 13.6642 30.7671 13.6642H30.7899C30.7899 13.6642 30.4046 14.9169 29.2682 14.9169C29.2495 14.9169 29.2332 14.9169 29.2144 14.9152C28.6931 14.8959 28.4243 14.6901 28.4243 14.6901C28.4243 14.6901 28.2214 17.5324 30.2832 18.4137L30.2829 18.4138ZM29.2678 15.3001C30.6609 15.3001 31.1268 13.8416 31.1464 13.7797L31.3011 13.2651L30.7798 13.2818H30.7783C30.5934 13.2818 29.057 13.24 27.9678 11.815L27.8643 11.6828C27.1524 10.7515 26.4771 9.86544 25.2698 9.46128C25.318 9.41789 25.3695 9.37844 25.4238 9.3433C26.064 8.90986 26.4371 8.38357 26.53 7.7719C26.6677 6.85231 26.0966 6.11935 26.0722 6.0892L25.6844 5.59552L25.4417 6.18124C25.4254 6.21722 25.0181 7.15438 24.1611 7.15438H24.0976C24.0389 7.15186 23.9827 7.14936 23.9273 7.14434C23.9574 6.72596 23.8833 6.08 23.3131 5.47253C22.628 4.74203 21.7873 4.63244 21.3474 4.63244C21.1128 4.63244 20.9564 4.66256 20.9393 4.66423L20.3536 4.78388L20.7145 5.27336C20.998 5.65157 21.2554 6.34859 20.9507 6.71258C20.853 6.82973 20.6525 6.92261 20.4612 7.01717C20.0669 7.20377 19.5276 7.46483 19.5276 8.12669C19.5276 8.55509 19.851 9.00443 20.4375 9.38516C22.171 10.5072 23.2414 11.6787 23.7034 12.9717C24.4186 14.9598 23.4859 16.0944 22.5792 16.6917L22.1735 16.9603L22.5295 17.2966C22.5776 17.3401 23.0118 17.7342 23.6545 17.7911C23.7767 17.7995 23.8932 17.8062 24.0024 17.8062C24.4138 17.8062 24.7649 17.7393 25.05 17.6506C24.9648 17.8033 24.8655 17.9474 24.7535 18.0806C24.2361 18.6982 23.5991 18.9793 22.6826 18.9944L22.3421 18.9994L22.3161 19.3508C22.3128 19.4219 22.2875 20.0738 22.8863 20.6277C22.9783 20.713 23.0891 20.7842 23.2056 20.8411C22.7983 21.2176 22.3861 21.8736 22.3063 22.9965C22.2387 23.9336 22.0212 24.2809 22.0187 24.285L21.6424 24.8758L22.3225 24.885C23.4459 24.885 24.3061 24.567 24.9016 23.9345C25.21 23.6022 25.4402 23.2018 25.5745 22.7639C25.9053 23.0536 26.3258 23.2126 26.7606 23.2124C27.0782 23.2124 27.3438 23.1429 27.3731 23.1362L27.8073 23.0174L27.6159 22.6007C27.6012 22.5672 27.2395 21.7305 27.6289 20.5365C27.7967 20.0202 27.8823 19.5583 27.9238 19.1977C28.1975 19.345 28.5633 19.4654 29.0366 19.4671C30.1119 19.4671 30.5852 18.6412 30.6064 18.607L30.8182 18.2271L30.4256 18.0614C29.145 17.5142 28.8615 16.0449 28.8045 15.2499C28.921 15.2725 29.0529 15.2934 29.202 15.2976L29.2678 15.3001Z" fill="black"/>
<path d="M41.9794 19.1111H44.4232V13.2707H47.7794V11.1454H38.623V13.2707H41.9792L41.9794 19.1111ZM55.1925 11.1452L51.1193 15.7808V11.1452H48.7569V19.1111H50.8423L54.9155 14.4755V19.1111H57.2779V11.1452H55.1925ZM61.4299 16.1489H65.2259V19.111H67.5883V11.1451H65.2259V14.057H61.4299V11.1451H59.0675V19.111H61.4299V16.1489ZM74.1672 19.111C74.7048 19.111 75.1936 19.0608 75.6498 18.9269C76.8717 18.5755 77.6701 17.5547 77.6701 16.1657C77.6701 14.8436 76.9858 13.9232 75.8942 13.5048C75.3728 13.304 74.7537 13.2873 74.1672 13.2873H71.7397V11.1452H69.3773V19.1111L74.1672 19.111ZM71.7397 15.1615H73.7599C74.0858 15.1615 74.3953 15.1615 74.6723 15.2619C75.0633 15.3958 75.2914 15.7305 75.2914 16.1321C75.2914 16.5505 75.0633 16.9019 74.6886 17.0693C74.4279 17.1864 74.1672 17.1864 73.7599 17.1864H71.7397V15.1615ZM81.2543 16.0986H81.906L84.7246 19.1109H87.869L83.9424 14.9607L87.7224 11.1453H84.7573L81.9061 14.1409H81.2544V11.1453H78.8921V19.1112H81.2544L81.2543 16.0986ZM92.7299 10.9275C89.5528 10.9275 87.6468 12.7684 87.6468 15.1446C87.6468 17.5209 89.553 19.3617 92.7299 19.3617C95.8907 19.3617 97.7967 17.5209 97.7967 15.1446C97.7967 12.7684 95.8905 10.9275 92.7299 10.9275ZM92.7299 17.4207C91.1496 17.4207 90.1395 16.4501 90.1395 15.1448C90.1395 13.8395 91.1496 12.8856 92.7299 12.8856C94.294 12.8856 95.3204 13.8395 95.3204 15.1448C95.3204 16.4501 94.294 17.4207 92.7299 17.4207ZM105.664 11.4966V10.6934H103.302V11.4966C100.337 11.5636 98.5609 12.8522 98.5609 15.1281C98.5609 17.4041 100.337 18.5922 103.302 18.6591V19.4624H105.664V18.6591C108.646 18.5922 110.422 17.404 110.422 15.1281C110.422 12.8522 108.646 11.5635 105.664 11.4966ZM103.302 16.9521C101.673 16.8852 100.956 16.1991 100.956 15.128C100.956 14.057 101.673 13.2872 103.302 13.2203V16.9521ZM105.664 16.9521V13.2201C107.31 13.2871 108.011 14.0569 108.011 15.1279C108.011 16.1989 107.31 16.8852 105.664 16.9521ZM118.281 11.4966V10.6934H115.919V11.4966C112.954 11.5636 111.178 12.8522 111.178 15.1281C111.178 17.4041 112.953 18.5922 115.919 18.6591V19.4624H118.281V18.6591C121.263 18.5922 123.039 17.404 123.039 15.1281C123.039 12.8522 121.263 11.5635 118.281 11.4966ZM115.919 16.9521C114.29 16.8852 113.573 16.1991 113.573 15.128C113.573 14.057 114.29 13.2872 115.919 13.2203V16.9521ZM118.281 16.9521V13.2201C119.927 13.2871 120.627 14.0569 120.627 15.1279C120.627 16.1989 119.927 16.8852 118.281 16.9521Z" fill="black"/>
</svg>
