<svg width="103" height="24" viewBox="0 0 103 24" fill="none" xmlns="http://www.w3.org/2000/svg">
<path fill-rule="evenodd" clip-rule="evenodd" d="M11.8902 0.189296C11.6555 0.37891 11.6535 0.398211 11.6236 2.72578L11.5935 5.07135L11.8467 5.37167C12.0941 5.66519 12.1004 5.71239 12.1272 7.46042C12.1545 9.24254 12.1554 9.24905 12.3856 9.28165C12.8661 9.34965 12.906 9.20314 12.906 7.37731C12.906 5.8317 12.9239 5.65759 13.1064 5.42597C13.2939 5.18815 13.3068 5.02024 13.3068 2.83049V0.489217L13.0608 0.2438C12.7581 -0.0585218 12.2276 -0.0831236 11.8902 0.189296ZM7.89666 0.865544C7.61934 0.974252 7.40754 1.21697 7.34603 1.49669C7.30204 1.6963 7.41015 2.07983 7.73045 2.86149C9.37282 6.86837 9.24739 6.61336 9.6799 6.82447C9.86645 6.91548 10.0258 7.1765 10.2751 7.79884C10.9477 9.47836 10.96 9.49896 11.2906 9.49896C11.7785 9.49896 11.7657 9.23694 11.2127 7.90295C10.7757 6.84917 10.719 6.63376 10.7686 6.21583C10.8293 5.70459 10.8933 5.8922 9.50126 2.49846C9.21923 1.81091 8.91176 1.17067 8.81788 1.07576C8.63083 0.886446 8.1332 0.772938 7.89666 0.865544ZM16.2982 0.967652C16.0938 1.09416 15.8682 1.53189 15.3089 2.88659C14.6511 4.4801 14.5948 4.66992 14.6964 4.95044C14.7946 5.22126 14.7645 5.36317 14.4522 6.10402C13.3313 8.76331 13.2073 9.11334 13.3147 9.31375C13.3879 9.45026 13.5032 9.50146 13.6892 9.47996C13.9322 9.45196 14.0129 9.31915 14.5292 8.09886C14.8433 7.35631 15.1983 6.49095 15.3182 6.17592C15.4932 5.71599 15.6069 5.56818 15.895 5.42587C16.209 5.27076 16.3021 5.12995 16.6395 4.29859C16.8516 3.77605 17.1578 3.0444 17.32 2.67257C17.751 1.6845 17.6996 1.25067 17.1159 0.94935C16.7492 0.760137 16.6288 0.762837 16.2982 0.967652ZM31.04 4.24859V5.39867H33.9448H36.8497L36.8753 13.1742L36.901 20.9498H38.3036H39.7062L39.7319 13.1712L39.7575 5.39277L42.6625 5.42067L45.5673 5.44867V4.27359L45.5672 3.0985H38.3036H31.04V4.24859ZM58.6918 12.0519V21.0054L60.0693 20.9776L61.4469 20.9498L61.4725 12.0241L61.4981 3.0985H60.0949H58.6918V12.0519ZM78.854 12.0241L78.8796 20.9498L80.2571 20.9776L81.6347 21.0054L81.6379 17.8774C81.6407 15.1404 81.6591 14.773 81.7846 14.9387C81.8636 15.0427 82.1667 15.3802 82.4583 15.6887C82.7498 15.9971 83.6833 17.0145 84.5328 17.9496C85.3822 18.8846 86.3726 19.9534 86.7337 20.3247L87.3901 20.9998H89.0209C89.958 20.9998 90.6516 20.9603 90.6516 20.9069C90.6516 20.8558 90.3213 20.462 89.9175 20.0318C89.5139 19.6017 88.3798 18.3721 87.3972 17.2995C86.4148 16.2269 85.3395 15.0701 85.0075 14.7286L84.4041 14.1078L85.2449 13.2285C85.7074 12.7449 86.9891 11.4151 88.0931 10.2735C89.1972 9.13194 90.1156 8.15317 90.1339 8.09836C90.1552 8.03526 89.6056 7.99886 88.6297 7.99886H87.0919L84.4385 10.7905C82.979 12.3259 81.7513 13.586 81.7099 13.5907C81.6685 13.5954 81.6347 11.2366 81.6347 8.34888V3.0985H80.2316H78.8284L78.854 12.0241ZM3.99395 3.47853C3.77714 3.69495 3.68878 3.87876 3.68878 4.11328C3.68878 4.4094 3.90268 4.65682 5.77028 6.52115C7.55291 8.30048 7.89495 8.5989 8.15214 8.5989C8.39429 8.5989 8.60669 8.75381 9.24919 9.39896C10.0373 10.1903 10.3237 10.3365 10.5817 10.079C10.8121 9.84899 10.6968 9.63917 9.91213 8.86052C9.24448 8.19807 9.11384 8.01386 9.06775 7.67023C9.01796 7.30011 8.83511 7.08609 7.02412 5.27846C5.32675 3.58404 4.9813 3.28432 4.66721 3.23341C4.34952 3.18201 4.25744 3.21551 3.99395 3.47853ZM20.0695 3.29262C19.9592 3.33972 19.3844 3.87116 18.7921 4.4736C17.9208 5.35957 17.715 5.62438 17.715 5.8599C17.715 6.10332 17.4432 6.42084 16.0535 7.79994C15.1397 8.70691 14.3561 9.53897 14.3121 9.64897C14.2682 9.75898 14.2735 9.92779 14.324 10.024C14.5397 10.4348 14.846 10.2284 16.5868 8.49889C17.7408 7.35231 18.3683 6.79877 18.514 6.79877C18.8861 6.79877 19.1378 6.60926 20.1947 5.53318C21.1303 4.58051 21.2216 4.4541 21.2216 4.11048C21.2216 3.51833 20.5899 3.0699 20.0695 3.29262ZM1.53985 7.13459C1.23408 7.43982 1.19701 7.97215 1.4596 8.28678C1.55849 8.40528 2.59563 8.89342 3.83906 9.40676C7.14375 10.7711 7.13152 10.767 7.49701 10.6292C7.77303 10.5252 7.90177 10.5514 8.64816 10.8633C9.58933 11.2566 9.93317 11.2708 9.98326 10.9186C10.0314 10.5799 9.897 10.4726 8.95193 10.0945C8.48175 9.90639 8.09703 9.70038 8.09703 9.63677C8.09703 9.35555 7.67274 9.05983 6.69441 8.6592C6.11582 8.42229 4.96617 7.94505 4.13962 7.59873C2.34306 6.84587 1.90704 6.76807 1.53985 7.13459ZM22.0231 7.07059C21.8302 7.158 21.3486 7.37651 20.9529 7.55602C20.4466 7.78584 20.1897 7.96685 20.0859 8.16707C19.9733 8.38448 19.7411 8.53129 19.1022 8.78921C17.0236 9.62847 15.1485 10.4403 15.022 10.5558C14.8269 10.7341 14.9576 11.1991 15.2028 11.1991C15.3626 11.1991 18.8528 9.82279 19.9037 9.34525C20.1805 9.21964 20.2981 9.21424 20.5767 9.31485C20.8881 9.42726 21.0078 9.39956 22.1211 8.95802C22.8396 8.673 23.3882 8.39338 23.477 8.26687C23.688 7.96605 23.6618 7.47112 23.4184 7.1623C23.2512 6.95008 23.1294 6.89998 22.7922 6.90518C22.5621 6.90868 22.216 6.98308 22.0231 7.07059ZM49.0738 7.75804C47.3715 8.05696 46.3195 8.54419 45.3879 9.46546C44.6521 10.1928 44.0596 11.3335 43.8153 12.4924C43.5862 13.5801 43.6121 15.6654 43.8669 16.6366C44.423 18.7554 45.6708 20.1739 47.5984 20.8781C48.2663 21.1221 48.4464 21.1428 49.9254 21.1462C51.6726 21.1501 51.971 21.0891 53.2773 20.4608C54.5647 19.8417 55.6948 18.3774 56.1415 16.7495C56.3609 15.9496 56.4466 13.82 56.2943 12.9473C55.8418 10.3536 54.2928 8.5774 51.9291 7.94145C51.3427 7.78374 49.5743 7.67013 49.0738 7.75804ZM69.2115 7.75604C67.5309 8.04506 66.4517 8.54389 65.5662 9.44096C64.8659 10.1504 64.4267 10.9095 64.086 11.9991C63.8766 12.6688 63.8519 12.9368 63.8559 14.4993C63.8602 16.1249 63.8797 16.3063 64.129 17.0495C64.7951 19.0351 65.9569 20.2267 67.9068 20.9241C68.7253 21.2168 70.8434 21.2857 71.8333 21.0517C74.1964 20.4932 75.7136 18.959 76.3373 16.4974C76.5214 15.7708 76.5419 15.4692 76.4971 14.1563C76.4592 13.0482 76.394 12.4903 76.2507 12.0491C75.5253 9.81519 74.2005 8.51599 72.0668 7.94595C71.4779 7.78864 69.7068 7.67083 69.2115 7.75604ZM95.5608 7.76364C94.5606 7.89685 93.1289 8.24617 92.4825 8.51469L91.7537 8.81761V10.0568V11.2961L92.3298 11.0092C93.5457 10.4036 95.0317 10.065 96.5126 10.0558C97.8494 10.0475 98.3797 10.1891 98.8788 10.6872C99.3151 11.1228 99.4902 11.6734 99.448 12.478L99.418 13.0492L97.264 13.1113C95.5307 13.1612 94.957 13.2145 94.3271 13.3838C92.7882 13.7977 91.8851 14.4701 91.3751 15.5823C91.1566 16.0585 91.1189 16.2852 91.115 17.1459C91.1113 17.9672 91.1542 18.269 91.3476 18.7855C91.8997 20.259 93.5035 21.1998 95.4632 21.1998C97.0681 21.1998 98.164 20.8 98.9978 19.9101C99.2609 19.6294 99.4969 19.3997 99.5222 19.3997C99.5476 19.3997 99.5686 19.5909 99.5689 19.8247C99.5692 20.0585 99.6164 20.4185 99.6738 20.6248L99.7781 20.9998H101.139H102.5L102.432 20.6248C102.249 19.6136 102.18 18.0437 102.176 14.7993C102.17 10.9473 102.133 10.6103 101.615 9.72718C101.463 9.46916 101.2 9.12884 101.03 8.97083C100.599 8.5709 99.6868 8.12436 98.9431 7.94955C98.2962 7.79744 96.1806 7.68113 95.5608 7.76364ZM71.5177 10.1497C72.497 10.4945 73.2354 11.4697 73.509 12.7791C73.667 13.5357 73.6489 15.6778 73.479 16.3292C73.1418 17.621 72.4912 18.3981 71.4081 18.8024C70.9163 18.986 70.6694 19.0168 69.9871 18.9797C67.721 18.8566 66.7133 17.4614 66.7085 14.4403C66.7043 11.7548 67.6092 10.3088 69.512 9.9602C69.9345 9.88269 71.0623 9.9893 71.5177 10.1497ZM51.4234 10.2144C52.21 10.5149 52.8674 11.2452 53.1771 12.1628C53.4914 13.0937 53.5783 15.2258 53.3428 16.2265C53.0469 17.4833 52.5232 18.2165 51.5967 18.6706C51.0827 18.9225 50.9245 18.9496 49.9687 18.9496C48.9884 18.9496 48.8662 18.9272 48.3184 18.6478C47.0648 18.0083 46.5691 16.8301 46.5691 14.4905C46.5691 12.4477 46.9756 11.2625 47.9241 10.5403C48.4545 10.1365 48.9367 10.0082 49.9415 10.0034C50.6477 10 50.9893 10.0487 51.4234 10.2144ZM1.01948 11.1961C0.475562 11.4207 0.327885 12.1082 0.724528 12.5686L0.966381 12.8492H4.0728C7.15637 12.8492 7.18092 12.8475 7.41916 12.6242C7.63377 12.423 7.7612 12.3992 8.62592 12.3992C9.49024 12.3992 9.60415 12.378 9.70003 12.1992C9.77618 12.057 9.77618 11.9412 9.70003 11.7991C9.60415 11.6203 9.49024 11.5991 8.62592 11.5991C7.7611 11.5991 7.63377 11.5754 7.41926 11.3741C7.18282 11.1523 7.13784 11.1488 4.20685 11.1283C2.57189 11.1168 1.1376 11.1473 1.01948 11.1961ZM21.4686 11.1901C21.3565 11.2377 21.2045 11.3493 21.1307 11.4379C21.0132 11.5792 20.646 11.5991 18.1504 11.5991H15.3041L15.219 11.8241C15.1705 11.9522 15.1734 12.1245 15.2257 12.2242C15.3099 12.3846 15.5537 12.3992 18.1379 12.3992C20.9248 12.3992 20.961 12.4019 21.1982 12.6242C21.4216 12.8337 21.5278 12.8492 22.7412 12.8492H24.0442L24.286 12.5686C24.5949 12.2101 24.595 11.7883 24.2862 11.4297C24.0494 11.1545 24.0217 11.1487 22.8586 11.1263C22.2062 11.1137 21.5807 11.1425 21.4686 11.1901ZM8.5585 13.1438C7.9708 13.4017 7.72163 13.4662 7.58828 13.395C7.29774 13.2398 7.08424 13.2796 6.18966 13.6555C5.72339 13.8514 4.91357 14.1861 4.39009 14.3993C1.38406 15.6236 1.21545 15.7331 1.32104 16.392C1.39248 16.8377 1.70176 17.0995 2.15701 17.0995C2.36941 17.0995 3.31828 16.761 4.57544 16.2367C5.71327 15.7622 6.86973 15.2862 7.14525 15.1788C7.71121 14.9582 8.09703 14.6431 8.09703 14.4015C8.09703 14.2911 8.36333 14.1312 8.92358 13.9051C9.93507 13.4968 10.0186 13.4338 9.98066 13.1078C9.93528 12.7185 9.50286 12.7295 8.5585 13.1438ZM15.0075 12.9522C14.8165 13.1818 15.0227 13.5373 15.4244 13.6708C15.6097 13.7324 16.4151 14.0583 17.2141 14.395C18.0131 14.7317 18.9711 15.1278 19.3431 15.275C19.7151 15.4221 20.0194 15.5954 20.0194 15.6599C20.0194 15.9342 20.4337 16.2295 21.4098 16.6508C22.5879 17.1592 22.9919 17.2043 23.3801 16.8711C23.6948 16.6008 23.7472 15.9988 23.4815 15.7057C23.3911 15.6059 22.801 15.3109 22.1704 15.0503C21.2752 14.6802 20.952 14.5901 20.6968 14.6394C20.5171 14.6742 20.3249 14.709 20.2698 14.7168C20.2147 14.7246 19.1216 14.2963 17.8407 13.7651C16.5598 13.2338 15.427 12.7992 15.3233 12.7992C15.2196 12.7992 15.0775 12.868 15.0075 12.9522ZM9.2552 14.5993C8.61019 15.2278 8.37155 15.3994 8.14292 15.3994C7.89776 15.3994 7.52366 15.727 5.77028 17.4771C3.93784 19.3064 3.68878 19.5929 3.68878 19.8718C3.68878 20.369 4.0743 20.7453 4.58405 20.7453C4.99142 20.7453 5.04071 20.7042 7.04927 18.6924C8.92739 16.8114 9.09891 16.6106 9.09891 16.2921C9.09891 15.9908 9.20521 15.8392 9.90041 15.1494C10.6963 14.3596 10.8125 14.1497 10.5817 13.9193C10.3368 13.6749 10.0565 13.8186 9.2552 14.5993ZM14.3224 13.9712C14.164 14.2538 14.3974 14.552 16.1052 16.2482C17.4535 17.5873 17.715 17.8948 17.715 18.14C17.715 18.3792 17.9242 18.6436 18.8589 19.5863C19.8912 20.6272 20.0376 20.7398 20.359 20.7398C20.8613 20.7398 21.2216 20.3839 21.2216 19.8878C21.2216 19.5442 21.1303 19.4178 20.1947 18.4651C19.127 17.378 18.8874 17.1995 18.497 17.1995C18.3288 17.1995 17.7901 16.726 16.5629 15.4994C14.8399 13.7773 14.5442 13.5756 14.3224 13.9712ZM10.8266 14.9184C10.7218 15.1555 10.4819 15.7271 10.2933 16.1887C10.0159 16.868 9.88137 17.0717 9.58803 17.2567C9.27744 17.4526 9.16012 17.6472 8.76769 18.6175C8.51592 19.2403 8.0793 20.3066 7.79747 20.9875C7.24955 22.3113 7.22109 22.6111 7.60982 22.9623C7.87572 23.2025 8.51722 23.2038 8.78191 22.9647C8.89192 22.8654 9.08398 22.5289 9.20881 22.217C9.33365 21.9051 9.74702 20.9073 10.1275 19.9997C10.7508 18.5128 10.8142 18.3001 10.7677 17.8496C10.7227 17.4132 10.781 17.1917 11.2253 16.1098C11.7711 14.7806 11.7775 14.5786 11.2752 14.5184C11.0559 14.4921 10.9885 14.5521 10.8266 14.9184ZM13.3149 14.6842C13.2043 14.8905 13.2331 14.9731 14.351 17.6473C14.7588 18.6226 14.7981 18.7814 14.703 19.0689C14.6067 19.3604 14.6567 19.5405 15.2029 20.8713C15.9506 22.6926 15.9978 22.7829 16.3287 23.0282C16.654 23.2692 17.0184 23.2043 17.383 22.8404C17.7341 22.49 17.6726 22.1613 16.9177 20.3497C16.2573 18.7651 16.1289 18.5521 15.779 18.4605C15.6173 18.4182 15.4705 18.1811 15.2104 17.542C14.081 14.7676 13.9719 14.5509 13.6892 14.5183C13.5033 14.4969 13.3879 14.548 13.3149 14.6842ZM12.1714 14.766C12.1346 14.8026 12.1045 15.6175 12.1045 16.5767C12.1045 18.2911 12.1003 18.3258 11.8541 18.6178L11.6036 18.9149V21.1124C11.6036 23.7956 11.6683 24 12.518 24C12.6998 24 12.9104 23.9047 13.0608 23.7545L13.3068 23.5091V21.1678C13.3068 18.978 13.2939 18.8101 13.1064 18.5723C12.924 18.3408 12.906 18.1666 12.906 16.6287C12.906 15.4481 12.8699 14.9032 12.7858 14.8193C12.6562 14.6899 12.2802 14.6573 12.1714 14.766ZM99.4681 16.1529C99.4681 16.9659 99.4296 17.2685 99.2996 17.478C98.9868 17.9819 98.6261 18.3041 98.069 18.5775C97.563 18.8258 97.4136 18.8496 96.3623 18.8496C95.3698 18.8496 95.1467 18.8184 94.7527 18.6246C93.6234 18.0691 93.5173 16.3257 94.5704 15.63C95.1663 15.2364 95.901 15.1172 97.79 15.1078L99.4681 15.0994V16.1529Z" fill="black"/>
</svg>
