<svg width="134" height="23" viewBox="0 0 134 23" fill="none" xmlns="http://www.w3.org/2000/svg">
<path d="M40.7759 14.2696C40.7759 16.0157 39.1382 17.2801 36.8332 17.2801H31.4348V6.44238L36.6512 6.44238C38.8955 6.44238 40.4726 7.64657 40.4726 9.33244C40.4726 10.4764 39.866 11.1989 38.9562 11.6204C39.9267 11.9817 40.7759 12.945 40.7759 14.2696ZM33.8004 8.4293V10.7775H36.5906C37.4398 10.7775 37.9857 10.2958 37.9857 9.63348C37.9857 8.97118 37.3791 8.4293 36.5906 8.4293H33.8004ZM36.8332 15.2932C37.7431 15.2932 38.4103 14.7513 38.4103 13.9686C38.4103 13.1858 37.8037 12.644 36.8332 12.644H33.8004V15.2932H36.8332Z" fill="black"/>
<path d="M49.6924 17.2199L45.9317 12.945H45.3252V17.2199H42.8989V6.44238H45.3252V10.5968H45.9317L49.5711 6.44238H52.422L47.8727 11.6204L52.8466 17.2199H49.6924Z" fill="black"/>
<path d="M52.8464 11.8612C52.8464 8.60988 55.2727 6.26172 58.6695 6.26172C62.0662 6.26172 64.4925 8.60988 64.4925 11.8612C64.4925 15.1125 62.0662 17.4607 58.6695 17.4607C55.2727 17.4607 52.8464 15.1125 52.8464 11.8612ZM61.9449 11.8612C61.9449 9.81407 60.6105 8.42926 58.6695 8.42926C56.7284 8.42926 55.394 9.81407 55.394 11.8612C55.394 13.9083 56.7284 15.2931 58.6695 15.2931C60.6105 15.2931 61.9449 13.9083 61.9449 11.8612Z" fill="black"/>
<path d="M73.7729 6.44238H76.1992V17.2199H73.7729V12.8848H68.9204V17.2199H66.4941V6.44238H68.9204V10.7173H73.7729V6.44238Z" fill="black"/>
<path d="M81.4157 17.2199V8.60993H77.655V6.44238L87.542 6.44238V8.60993L83.7813 8.60993V17.2199H81.4157Z" fill="black"/>
<path d="M97.9748 11.1989V17.2198H96.2158L95.7306 15.534C95.1847 16.4371 94.0322 17.4607 92.2732 17.4607C90.0895 17.4607 88.5125 16.0156 88.5125 14.0287C88.5125 12.0418 90.0895 10.657 93.3043 10.657H95.6699C95.5486 9.27219 94.8207 8.30884 93.4863 8.30884C92.3945 8.30884 91.6666 8.91093 91.3026 9.57324L89.119 9.21198C89.6649 7.34549 91.5453 6.26172 93.6076 6.26172C96.2765 6.26172 97.9748 8.068 97.9748 11.1989ZM95.6093 12.5235H93.365C91.5453 12.5235 90.9387 13.1256 90.9387 13.9083C90.9387 14.8115 91.6666 15.4136 92.8797 15.4136C94.4568 15.4136 95.6093 14.2696 95.6093 12.5235Z" fill="black"/>
<path d="M107.316 17.2199L103.555 12.945H102.949V17.2199H100.522V6.44238H102.949V10.5968H103.555L107.195 6.44238H110.046L105.496 11.6204L110.47 17.2199H107.316Z" fill="black"/>
<path d="M114.837 17.2199V8.60993H111.077V6.44238L120.964 6.44238V8.60993L117.203 8.60993V17.2199H114.837Z" fill="black"/>
<path d="M133.095 12.5235L124.36 12.5235C124.603 14.2094 125.816 15.2931 127.636 15.2931C128.91 15.2931 129.88 14.7512 130.426 13.9685L132.67 14.3298C131.882 16.3769 129.759 17.4607 127.454 17.4607C124.178 17.4607 121.813 15.1125 121.813 11.8612C121.813 8.60988 124.178 6.26172 127.454 6.26172C130.729 6.26172 133.095 8.60989 133.095 11.7408C133.155 12.0418 133.095 12.2827 133.095 12.5235ZM124.542 10.657H130.547C130.123 9.3324 129.031 8.36905 127.514 8.36905C126.059 8.30884 124.906 9.27219 124.542 10.657Z" fill="black"/>
<path d="M0.5 11.04C0.5 5.83569 0.5 3.23354 2.12877 1.61677C3.75754 0 6.37901 0 11.622 0L12.5488 0C17.7917 0 20.4132 0 22.042 1.61677C23.6707 3.23354 23.6707 5.83569 23.6707 11.04V11.96C23.6707 17.1643 23.6707 19.7665 22.042 21.3832C20.4132 23 17.7917 23 12.5488 23H11.622C6.37901 23 3.75754 23 2.12877 21.3832C0.5 19.7665 0.5 17.1643 0.5 11.96L0.5 11.04Z" fill="#0077FF"/>
<path d="M12.8288 16.5696C7.54783 16.5696 4.53566 12.9759 4.41016 6.99585H7.05547C7.14236 11.385 9.09253 13.2442 10.6372 13.6275V6.99585H13.1282V10.7812C14.6536 10.6183 16.256 8.89335 16.7967 6.99585H19.2876C18.8725 9.33418 17.1347 11.0592 15.8989 11.7683C17.1347 12.3433 19.1139 13.8479 19.867 16.5696H17.125C16.5361 14.7488 15.0687 13.34 13.1282 13.1483L13.1282 16.5696H12.8288Z" fill="white"/>
</svg>
