<svg width="79" height="23" viewBox="0 0 79 23" fill="none" xmlns="http://www.w3.org/2000/svg">
<path d="M10.0063 3.4116H8.50088C5.74097 3.4116 4.29139 4.7751 4.29139 6.79287C4.29139 9.08348 5.29497 10.1469 7.35793 11.5104L9.05834 12.6284L4.15202 19.8H0.5L4.90465 13.3919C2.3678 11.6193 0.945997 9.90153 0.945997 6.98376C0.945997 3.32989 3.53864 0.848384 8.47298 0.848384H13.3794V19.8H10.0063V3.4116Z" fill="#FC3F1D"/>
<path d="M37.4096 17.2368H32.7262C33.6461 15.1644 33.897 11.4286 33.897 9.05625V8.64722H37.4096V17.2368ZM40.727 6.08401H31.0536V7.25661C31.0536 10.6105 30.8305 14.9463 29.6596 17.2368H28.6282V22.936H31.6947V19.8001H39.138V22.936H42.2045V17.2368H40.727V6.08401Z" fill="black"/>
<path d="M23.9169 11.5104H19.4844V6.08401H16.167V19.8H19.4844V14.0736H23.9169V19.8H27.2343V6.08401H23.9169V11.5104Z" fill="black"/>
<path d="M75.2671 8.37462C76.5494 8.37462 77.804 8.81088 78.473 9.21991V6.4658C77.7761 6.08401 76.5494 5.8114 74.9048 5.8114C70.6674 5.8114 68.4651 8.78365 68.4651 12.9556C68.4651 17.5368 70.6115 20.0728 75.0441 20.0728C76.5774 20.0728 77.6646 19.8001 78.473 19.2275V16.5824C77.6367 17.155 76.6331 17.5095 75.2392 17.5095C72.8696 17.5095 71.8941 15.7098 71.8941 12.8739C71.8941 9.90166 73.0927 8.37462 75.2671 8.37462Z" fill="black"/>
<path d="M68.019 6.08401H64.6737L59.9903 12.4103V6.08401H56.6728V19.8001H59.9903V13.0647L64.8967 19.8001H68.6601L63.3356 12.4103L68.019 6.08401Z" fill="black"/>
<path d="M51.0696 11.7013H46.442C46.5256 9.51986 47.334 8.37461 48.923 8.37461C50.5678 8.37461 51.0696 9.71076 51.0696 11.4286V11.7013ZM48.9788 5.81128C44.9366 5.81128 43.0131 8.83811 43.0131 12.9828C43.0131 17.755 45.4105 20.0728 49.6479 20.0728C51.7665 20.0728 53.3277 19.5274 54.3034 18.8729V16.2279C53.2719 16.9096 51.5436 17.5095 49.9266 17.5095C47.5014 17.5095 46.5814 16.3916 46.442 14.101H54.4428V12.383C54.4428 7.61104 52.2962 5.81128 48.9788 5.81128Z" fill="black"/>
</svg>
