<svg width="250" height="242" viewBox="0 0 250 242" fill="none" xmlns="http://www.w3.org/2000/svg">
<g clip-path="url(#clip0_280_2306)">
<path d="M0.0554782 96.7995L4.10474 96.4649C4.10474 96.4649 3.82739 93.0635 7.32195 92.729C7.99818 92.6496 8.68221 92.7842 9.27876 93.114C9.87531 93.4438 10.3547 93.9525 10.6501 94.5691C10.9083 95.0786 11.0428 95.6422 11.0428 96.214C11.0428 96.7858 10.9083 97.3494 10.6501 97.8589C10.0399 99.0857 8.59775 100.201 5.87975 99.9778L6.60085 109.123L10.5946 108.788L10.1509 103.435C10.1509 103.435 15.6423 101.539 15.1431 95.3497C14.6439 89.1603 9.26338 88.4354 6.98914 88.6027C4.7149 88.77 -0.610153 89.6622 0.0554782 96.7995Z" fill="#E0E0E0"/>
<path d="M10.7401 110.692L6.70332 111.012L7.001 114.814L11.0378 114.495L10.7401 110.692Z" fill="#E0E0E0"/>
<path d="M195.307 130.701H197.471C197.47 130.45 197.521 130.201 197.62 129.97C197.719 129.74 197.863 129.532 198.045 129.359C198.227 129.187 198.442 129.054 198.677 128.968C198.912 128.882 199.162 128.846 199.412 128.861C199.772 128.841 200.129 128.938 200.429 129.14C200.729 129.341 200.956 129.634 201.076 129.976C201.21 130.259 201.27 130.571 201.251 130.883C201.231 131.195 201.133 131.497 200.965 131.761C200.577 132.374 199.745 132.932 198.303 132.653V137.616H200.466V134.716C201.349 134.458 202.121 133.913 202.663 133.166C203.205 132.42 203.486 131.514 203.461 130.59C203.461 127.356 200.632 126.631 199.412 126.631C198.192 126.631 195.252 126.854 195.307 130.701Z" fill="#E0E0E0"/>
<path d="M200.521 138.619H198.303V140.682H200.521V138.619Z" fill="#E0E0E0"/>
<path d="M0.721115 199.677L3.49458 200.068C3.59044 199.425 3.93642 198.846 4.45648 198.459C4.97655 198.072 5.62814 197.909 6.26804 198.005C6.74277 198.06 7.189 198.261 7.54622 198.58C7.90343 198.9 8.15435 199.322 8.26494 199.789C8.37105 200.177 8.37576 200.587 8.27859 200.977C8.18143 201.368 7.98567 201.727 7.71024 202.019C7.15555 202.744 5.99069 203.302 4.16021 202.744L3.2727 209.045L6.04616 209.436L6.54539 205.755C7.72965 205.583 8.82568 205.027 9.66674 204.172C10.5078 203.316 11.0479 202.208 11.2048 201.016C11.7595 196.889 8.26493 195.384 6.65633 195.161C5.04772 194.938 1.33128 194.715 0.721115 199.677Z" fill="#F5F5F5"/>
<path d="M5.91172 210.768L3.11101 210.367L2.7382 213L5.53891 213.401L5.91172 210.768Z" fill="#F5F5F5"/>
<path d="M73.7187 8.58643L77.3796 7.75003C77.291 7.32862 77.2869 6.89364 77.3677 6.47064C77.4486 6.04764 77.6126 5.64512 77.8503 5.28673C78.088 4.92834 78.3945 4.62128 78.7518 4.38359C79.1092 4.14589 79.5101 3.98235 79.9312 3.90256C80.5417 3.75126 81.1838 3.79327 81.7696 4.02284C82.3554 4.25241 82.8564 4.65832 83.2039 5.18505C83.497 5.63261 83.6844 6.14165 83.7517 6.67321C83.819 7.20477 83.7644 7.74477 83.5922 8.25187C83.2039 9.42284 82.0391 10.6496 79.4875 10.7611L81.2625 19.0694L84.868 18.2887L83.8141 13.4376C83.8141 13.4376 88.6399 10.9841 87.4196 5.35233C86.1992 -0.27947 81.207 -0.279469 79.0992 0.166614C76.9913 0.612697 72.2765 2.06247 73.7187 8.58643Z" fill="#F5F5F5"/>
<path d="M85.2881 20.0307L81.6014 20.832L82.3458 24.2929L86.0325 23.4916L85.2881 20.0307Z" fill="#F5F5F5"/>
<path d="M226.204 222.594L228.367 223.041C228.419 222.795 228.52 222.563 228.664 222.358C228.808 222.154 228.992 221.981 229.205 221.85C229.418 221.72 229.655 221.634 229.902 221.599C230.149 221.564 230.401 221.58 230.641 221.647C230.998 221.717 231.325 221.893 231.582 222.151C231.839 222.409 232.013 222.738 232.083 223.096C232.133 223.408 232.108 223.727 232.012 224.027C231.915 224.328 231.75 224.601 231.529 224.825C231.03 225.327 230.142 225.717 228.755 225.104L227.646 229.955L229.754 230.457L230.419 227.613C231.34 227.545 232.213 227.176 232.904 226.561C233.595 225.947 234.067 225.121 234.247 224.211C234.968 221.089 232.305 219.695 231.085 219.472C229.865 219.249 227.036 218.747 226.204 222.594Z" fill="#E0E0E0"/>
<path d="M229.4 231.565L227.234 231.082L226.79 233.096L228.956 233.579L229.4 231.565Z" fill="#E0E0E0"/>
<path d="M232.694 65.183H236.743C236.743 65.183 236.743 61.7816 240.237 61.7259C240.918 61.7044 241.589 61.897 242.156 62.2768C242.722 62.6566 243.157 63.2047 243.399 63.8448C243.615 64.3665 243.703 64.9329 243.654 65.496C243.606 66.059 243.423 66.602 243.122 67.0789C242.401 68.2498 240.903 69.2535 238.241 68.8074V77.8964H242.179V72.5434C242.179 72.5434 247.781 71.0936 247.781 64.9042C247.781 58.7148 242.512 57.5996 240.237 57.5996C237.963 57.5996 232.638 58.0457 232.694 65.183Z" fill="#F5F5F5"/>
<path d="M242.234 79.793H238.185V83.5902H242.234V79.793Z" fill="#F5F5F5"/>
<path d="M132.294 14.3847L136.621 15.3326C136.621 15.3326 137.453 11.6524 141.225 12.4331C141.963 12.5714 142.641 12.9345 143.167 13.4731C143.692 14.0117 144.041 14.6998 144.165 15.4441C144.268 16.0676 144.221 16.7067 144.028 17.3082C143.835 17.9096 143.501 18.4559 143.055 18.9013C142.057 19.9607 140.171 20.7414 137.397 19.5704L135.234 29.44L139.505 30.3879L140.781 24.5888C140.781 24.5888 147.16 24.3658 148.602 17.6745C150.044 10.9833 144.664 8.52984 142.223 8.028C139.783 7.52616 133.903 6.63399 132.294 14.3847Z" fill="#E0E0E0"/>
<path d="M139.058 32.4912L134.672 31.5137L133.769 35.6075L138.155 36.585L139.058 32.4912Z" fill="#E0E0E0"/>
<path d="M108.498 21.2441L95.0189 25.705L99.7892 39.0875L108.498 21.2441Z" fill="#27282F"/>
<path d="M109.996 79.2352L105.613 70.8711C114.156 66.2988 118.538 59.6633 117.928 52.0799C117.317 44.4965 110.828 36.4112 101.842 33.4559L104.781 24.4785C117.484 28.7163 126.304 39.255 127.302 51.2993C128.3 63.3435 121.921 72.8785 109.996 79.2352Z" fill="#27282F"/>
<g opacity="0.3">
<path d="M117.539 57.9901C117.539 57.9901 121.7 59.3283 127.08 56.373L126.525 60.4436L116.541 64.2353L116.319 61.1684L117.539 57.9901Z" fill="black"/>
</g>
<path d="M107.832 138.508C79.8758 134.66 57.2443 126.352 40.659 113.694C26.5698 103.044 20.9674 92.2822 19.0814 88.7693C14.2556 79.5131 12.2032 69.532 13.0908 59.8854C14.6994 42.0979 27.5682 31.3919 35.8332 28.5481C42.7668 26.0947 52.0857 26.0947 58.1873 27.1541C64.953 28.2972 71.4788 30.5781 77.4906 33.9011L71.8882 44.3283C66.9919 41.6359 61.6886 39.7709 56.1904 38.808C50.9208 37.9159 43.8207 38.3062 39.6605 39.7002C35.5003 41.0942 25.9596 48.3988 24.7948 60.9449C24.1291 68.361 25.7378 76.056 29.5097 83.249C31.0628 86.2043 35.7777 95.1818 47.7591 104.271C62.7358 115.646 83.4813 123.229 109.441 126.798L107.832 138.508Z" fill="#6E6DF6"/>
<g opacity="0.3">
<path d="M46.1504 102.988L35.0011 109.01L39.8824 113.137L50.7544 106.445L46.1504 102.988Z" fill="black"/>
</g>
<g opacity="0.3">
<path d="M83.925 121.611C83.925 121.611 83.925 132.708 85.811 134.38L89.6938 135.273L86.6985 122.28L83.925 121.611Z" fill="black"/>
</g>
<path d="M68.7819 47.8418L83.4812 43.8271L79.1546 29.1621L68.7819 47.8418Z" fill="#6E6DF6"/>
<path d="M181.995 234.194L180.386 222.874C214.389 217.856 232.25 190.199 238.296 178.545L248.391 183.842C241.513 197.057 221.267 228.45 181.995 234.194Z" fill="#6E6DF6"/>
<path d="M250 191.481L247.781 173.693L230.475 181.667L250 191.481Z" fill="#6E6DF6"/>
<g opacity="0.3">
<path d="M204.127 214.789L201.353 216.239L203.073 228.116L207.788 225.83L204.127 214.789Z" fill="black"/>
</g>
<path d="M79.8758 227.166C64.4553 224.601 42.5449 217.966 25.7932 201.182C10.1509 185.569 2.66253 163.655 6.3235 144.028C8.20946 133.935 13.0907 124.065 20.4127 115.59C27.4733 107.554 36.1017 101.063 45.7621 96.5198C61.9037 88.8806 81.6508 85.6465 106.113 86.5944L105.724 96.0179C82.8156 95.1258 64.5108 98.0811 49.7559 105.051C31.7284 113.527 18.6377 129.14 15.5314 145.756C12.4251 162.373 18.915 181.052 32.3941 194.546C47.4262 209.546 67.3397 215.512 81.4289 217.91L79.8758 227.166Z" fill="#27282F"/>
<g opacity="0.3">
<path d="M72.4429 215.959L69.6694 224.992L76.4921 226.721L76.2702 216.851L72.4429 215.959Z" fill="black"/>
</g>
<path d="M79.9867 99.0859C78.6611 91.9104 80.0707 84.4963 83.9351 78.3179C87.7995 72.1396 93.8357 67.6497 100.843 65.7412L102.285 65.3509C118.039 62.0053 129.687 73.6592 132.572 89.6066L143.166 150.441L122.31 168.954L110.661 162.262C109.663 157.802 107.499 148.601 107.499 148.601C107.499 148.601 91.9126 150.33 87.6414 135.386C85.5891 128.137 82.5937 112.914 79.9867 99.0859Z" fill="#AE7461"/>
<path d="M107.499 148.6C107.499 148.6 117.04 146.593 125.361 137.504C125.361 137.504 123.752 150.106 108.442 152.782L107.499 148.6Z" fill="#6F4439"/>
<path d="M88.6399 111.408C88.7841 111.975 89.144 112.462 89.642 112.764C90.1401 113.067 90.7363 113.161 91.3024 113.025C91.58 112.979 91.8452 112.877 92.0816 112.723C92.318 112.57 92.5205 112.369 92.6766 112.134C92.8326 111.899 92.9389 111.634 92.9888 111.355C93.0386 111.077 93.0311 110.791 92.9665 110.516C92.9013 110.238 92.782 109.975 92.6156 109.743C92.4492 109.511 92.2389 109.314 91.9967 109.164C91.7546 109.014 91.4853 108.913 91.2043 108.867C90.9234 108.822 90.6363 108.833 90.3594 108.899C90.0805 108.946 89.8137 109.049 89.575 109.201C89.3364 109.354 89.1307 109.553 88.9702 109.787C88.8098 110.021 88.6979 110.285 88.6411 110.564C88.5844 110.842 88.5839 111.13 88.6399 111.408Z" fill="#2B3032"/>
<path d="M84.9789 104.829C85.3117 105.052 86.5875 103.435 88.9172 102.766C91.2469 102.096 93.1884 102.877 93.3548 102.487C93.5212 102.096 93.0774 101.929 92.1899 101.595C91.014 101.159 89.7289 101.119 88.5289 101.483C87.3318 101.792 86.2633 102.475 85.4781 103.435C84.9234 104.16 84.8125 104.773 84.9789 104.829Z" fill="#2B3032"/>
<path d="M108.331 106.335C108.476 106.902 108.836 107.389 109.334 107.691C109.832 107.994 110.428 108.088 110.994 107.952C111.268 107.899 111.529 107.792 111.761 107.636C111.994 107.481 112.193 107.281 112.348 107.047C112.502 106.814 112.61 106.552 112.663 106.277C112.716 106.001 112.715 105.718 112.658 105.443C112.514 104.876 112.154 104.389 111.656 104.087C111.158 103.785 110.562 103.691 109.996 103.826C109.722 103.879 109.461 103.987 109.228 104.142C108.996 104.297 108.797 104.498 108.642 104.731C108.487 104.965 108.38 105.227 108.327 105.502C108.273 105.777 108.275 106.061 108.331 106.335Z" fill="#2B3032"/>
<path d="M107.666 99.2541C107.999 99.4214 109.274 97.8044 111.549 97.191C113.823 96.5776 115.875 97.2468 116.042 96.9122C116.208 96.5776 115.709 96.2988 114.821 95.9643C113.641 95.5511 112.363 95.5122 111.16 95.8528C109.957 96.1432 108.895 96.8547 108.165 97.8601C107.555 98.585 107.499 99.1426 107.666 99.2541Z" fill="#2B3032"/>
<path d="M104.171 119.215C104.171 119.104 102.674 119.215 100.288 119.55C99.6783 119.661 99.0681 119.717 98.9017 119.327C98.7353 118.937 98.6798 118.212 98.7908 117.487C98.9572 115.87 99.1236 114.253 99.3455 112.524C100.011 105.443 100.344 99.6992 100.067 99.6992C99.7892 99.6992 98.9572 105.387 98.2915 112.413C98.1251 114.141 98.0142 115.814 97.8478 117.375C97.6814 118.937 97.6259 118.992 98.1806 119.773C98.3242 119.962 98.5087 120.115 98.7202 120.222C98.9317 120.328 99.1645 120.384 99.4009 120.386L100.399 120.275C102.785 119.717 104.227 119.383 104.171 119.215Z" fill="#2B3032"/>
<path d="M116.707 91.5027C116.375 90.8893 114.045 91.4469 111.216 91.4469C108.387 91.4469 106.113 90.8893 105.78 91.5027C105.447 92.1161 106.113 92.3391 107.111 92.8967C108.401 93.5196 109.813 93.8431 111.244 93.8431C112.674 93.8431 114.087 93.5196 115.376 92.8967C116.375 92.3949 116.818 91.7815 116.707 91.5027Z" fill="#2B3032"/>
<path d="M83.0375 98.0821C83.6477 98.4724 85.3672 97.4687 87.6414 96.8554C89.9157 96.242 91.9126 96.1305 92.1899 95.4613C92.4673 94.7922 91.9126 94.6807 90.9141 94.4019C89.6156 94.0795 88.2543 94.118 86.9758 94.5134C85.6746 94.8687 84.4887 95.5609 83.5367 96.5208C82.8711 97.2457 82.7601 97.859 83.0375 98.0821Z" fill="#2B3032"/>
<path d="M134.347 100.758C134.568 100.535 143.832 95.2378 146.272 105.609C148.713 115.981 136.954 116.65 136.843 116.315C136.732 115.981 134.347 100.758 134.347 100.758Z" fill="#AE7461"/>
<path d="M140.004 111.297C140.004 111.241 140.171 111.408 140.559 111.464C141.022 111.546 141.499 111.447 141.89 111.185C142.889 110.516 143.388 108.565 143 106.669C142.801 105.783 142.423 104.948 141.89 104.215C141.391 103.546 140.781 103.1 140.171 103.156C139.957 103.159 139.75 103.232 139.581 103.362C139.411 103.493 139.287 103.674 139.228 103.881C139.172 104.215 139.283 104.383 139.228 104.438C139.172 104.494 139.006 104.327 138.951 103.881C138.95 103.596 139.048 103.32 139.228 103.1C139.473 102.826 139.807 102.648 140.171 102.598C140.947 102.487 141.835 103.044 142.39 103.769C143.049 104.557 143.506 105.495 143.721 106.501C144.165 108.62 143.554 110.851 142.168 111.631C141.905 111.771 141.616 111.853 141.32 111.872C141.023 111.891 140.726 111.847 140.448 111.743C140.06 111.576 139.949 111.353 140.004 111.297Z" fill="#6F4439"/>
<path d="M55.4138 90.164C55.4718 89.521 55.7689 88.9237 56.2458 88.4912C57.2443 87.4875 58.631 87.2645 59.9623 86.9299C63.222 86.073 66.2405 84.4699 68.7819 82.2461C67.6434 82.0101 66.5546 81.5761 65.5647 80.9636C63.5123 79.7369 61.9037 77.3949 62.1811 74.9415C62.1672 74.715 62.2108 74.4888 62.3079 74.2839C62.4049 74.0791 62.5521 73.9024 62.7357 73.7705C63.3459 73.4359 64.067 73.9378 64.6772 74.3281C66.6186 75.7221 68.2272 76.1124 70.446 75.3318C71.8034 74.8977 73.0519 74.175 74.1069 73.2129L74.2179 73.0456L75.3827 71.0382C78.3226 66.2428 81.0406 62.7857 84.1469 60.5553C88.6954 57.3212 96.9048 54.4216 102.452 54.5889C107.999 54.7562 113.767 57.823 115.82 63.0645C118.15 59.8304 122.587 58.8267 126.47 59.3843H126.581C130.907 59.8304 134.18 63.5663 136.343 67.3581L136.676 67.9714C138.51 69.8281 140.781 71.1898 143.277 71.9304C143.721 72.0977 144.22 72.265 144.387 72.7111C144.435 72.9368 144.419 73.1717 144.34 73.3887C144.262 73.6057 144.124 73.796 143.943 73.9378C143.143 74.8431 142.159 75.5656 141.058 76.0567C141.662 76.941 142.33 77.7796 143.055 78.5659C143.665 79.235 144.442 80.0157 144.22 80.9078C144.123 81.2464 143.919 81.544 143.639 81.7554C143.359 81.9668 143.017 82.0803 142.667 82.0788C141.964 82.0892 141.266 81.9564 140.615 81.6885L142.722 84.588C141.324 85.1879 139.801 85.4367 138.285 85.3129C138.34 89.3834 139.394 96.5765 139.061 99.4203C136.343 100.145 135.567 99.9779 134.347 100.814C133.126 101.651 134.125 104.829 131.573 104.494C130.297 104.327 127.413 100.257 126.692 99.1415C122.172 91.6974 119.279 83.3722 118.205 74.7184C116.113 73.3387 113.779 72.3735 111.327 71.8746L111.549 71.9862C107 71.5401 101.897 71.2613 98.347 74.2166C95.629 76.5028 94.5751 80.1829 92.8556 83.3055C89.6383 89.2719 85.3117 93.0636 78.8218 94.9037C79.3211 99.6433 80.9297 107.171 81.7062 111.465L76.0484 103.825C75.6495 103.424 75.2788 102.996 74.939 102.543L74.828 102.376C74.2734 101.651 73.7187 100.926 73.053 100.201H72.9976C71.2225 102.822 67.0623 100.535 68.2827 97.5802C68.5208 96.9876 68.8586 96.4406 69.2811 95.9631C68.887 96.6049 68.3296 97.1292 67.6665 97.4821C67.0035 97.835 66.2587 98.0036 65.5092 97.9705C64.7689 97.9357 64.0613 97.6535 63.4986 97.1687C62.936 96.6839 62.5503 96.0241 62.4029 95.294C62.3379 94.7892 62.4062 94.2762 62.6009 93.8063C62.7957 93.3365 63.11 92.9265 63.5123 92.6175C61.6828 93.2397 59.7068 93.2786 57.8545 92.729C56.6896 92.3945 55.4138 91.6138 55.4138 90.164Z" fill="#2B3032"/>
<path d="M112.103 65.9648C112.751 66.225 113.366 66.5619 113.934 66.9685C115.471 68.1181 116.677 69.6575 117.428 71.4294C118.013 72.6386 118.46 73.9106 118.76 75.2211C119.093 76.6337 119.37 78.1392 119.592 79.7377C119.841 81.4168 120.212 83.0755 120.701 84.7003C120.932 85.5839 121.248 86.4429 121.644 87.2653C122.006 88.1517 122.577 88.9363 123.308 89.5515C123.649 89.7772 124.039 89.9156 124.445 89.9545C124.852 89.9934 125.261 89.9316 125.638 89.7745C126.339 89.4388 126.92 88.8935 127.302 88.2132C127.968 86.8192 127.857 85.3137 127.801 83.9754L127.524 84.087C128.212 85.1379 129.076 86.0621 130.075 86.8192C131.023 87.5528 132.214 87.8922 133.404 87.7672C133.95 87.6709 134.464 87.4411 134.901 87.098C135.295 86.759 135.583 86.314 135.733 85.8155C135.844 85.3387 135.844 84.8426 135.733 84.3658C135.586 83.9421 135.316 83.5729 134.957 83.3063L134.79 83.4736C135.929 84.3051 137.236 84.8761 138.618 85.1464L139.727 85.3137L138.673 85.0907C137.33 84.7742 136.066 84.1861 134.957 83.3621L134.846 83.5294C135.164 83.7925 135.393 84.148 135.503 84.5473C135.612 84.9466 135.596 85.3701 135.456 85.7598C135.338 86.2139 135.087 86.6219 134.735 86.9307C134.344 87.2611 133.858 87.4565 133.348 87.4883C132.261 87.6241 131.165 87.3235 130.297 86.6519C129.355 85.8705 128.516 84.971 127.801 83.9754L127.468 83.5294V84.087C127.524 85.4252 127.579 86.8192 126.969 88.1017C126.628 88.7126 126.104 89.2002 125.471 89.4957C125.158 89.6403 124.812 89.696 124.47 89.6567C124.128 89.6174 123.803 89.4845 123.53 89.2727C122.847 88.7057 122.313 87.9779 121.977 87.1538C121.59 86.3467 121.275 85.5071 121.034 84.6446C120.571 83.0317 120.2 81.3933 119.925 79.7377C119.647 78.1206 119.425 76.6151 119.037 75.1653C118.712 73.8624 118.266 72.593 117.706 71.3736C116.882 69.5985 115.622 68.0633 114.045 66.9128C113.47 66.4655 112.809 66.1428 112.103 65.9648Z" fill="#27282F"/>
<path d="M68.9483 91.9481H69.1147L69.5585 92.1154L70.2796 92.3942L71.3335 92.673C73.5683 93.1052 75.875 92.9711 78.0453 92.2826C81.2999 91.2785 84.1918 89.3404 86.3656 86.7066C88.8618 83.8071 90.7477 79.9596 92.0235 75.7776C92.6891 73.6587 93.1329 71.5398 93.6876 69.5882C94.1732 67.6813 94.9397 65.8583 95.9618 64.1794C96.8763 62.6459 98.1527 61.3627 99.6783 60.4435C100.365 60.0519 101.117 59.7875 101.897 59.6628C102.609 59.5172 103.338 59.4796 104.06 59.5513C105.331 59.6426 106.564 60.024 107.666 60.6665C108.52 61.1486 109.289 61.7705 109.94 62.5066C110.435 63.148 110.863 63.8394 111.216 64.5697V64.4024C111.193 64.2434 111.136 64.0913 111.049 63.9564C110.776 63.4118 110.461 62.8898 110.106 62.3951C109.443 61.6562 108.677 61.0176 107.832 60.4992C106.705 59.8509 105.46 59.4339 104.171 59.2725C103.412 59.1995 102.646 59.2371 101.897 59.384C101.084 59.5174 100.297 59.781 99.5673 60.1647C97.9946 61.0848 96.6781 62.3889 95.74 63.9564C94.6867 65.6656 93.901 67.5275 93.4102 69.4766C92.8001 71.484 92.3563 73.5471 91.6907 75.666C90.4149 79.7923 88.5844 83.584 86.1438 86.4836C84.0224 89.0614 81.2127 90.9766 78.0453 92.0038C75.9011 92.7179 73.6151 92.8903 71.3889 92.5057C69.7803 92.2826 69.0038 91.8923 68.9483 91.9481Z" fill="#27282F"/>
<path d="M66.0084 85.5911C66.0084 85.6468 66.2303 85.7026 66.6186 85.8699L68.4491 86.2602C69.3449 86.429 70.2558 86.5038 71.1671 86.4832C72.2845 86.4769 73.3988 86.3649 74.4952 86.1487C75.5983 85.9229 76.6761 85.5866 77.7124 85.145C78.5654 84.798 79.3828 84.3685 80.1531 83.8625L81.6508 82.7473C81.9281 82.4685 82.15 82.3012 82.0945 82.2454C82.0391 82.1897 81.318 82.8588 79.9867 83.6394C79.2253 84.0956 78.4275 84.4873 77.6015 84.8104C76.5752 85.2273 75.5181 85.5629 74.4398 85.8141C73.3616 86.0275 72.2659 86.1395 71.1671 86.1487C70.2596 86.2001 69.3494 86.1627 68.4491 86.0371L66.0084 85.5911Z" fill="#27282F"/>
<path d="M112.714 124.513C112.769 124.736 111.049 125.238 108.942 125.907C106.834 126.576 105.059 127.134 105.003 126.911C104.948 126.688 106.501 125.796 108.664 125.126C110.828 124.457 112.714 124.29 112.714 124.513Z" fill="#2B3032"/>
<path d="M104.948 92.395C104.948 92.4508 104.671 92.5623 104.171 92.6181C103.506 92.5931 102.858 92.4014 102.285 92.0605C101.729 91.7116 101.286 91.208 101.01 90.6107C100.788 90.1646 100.788 89.8301 100.843 89.8301C100.899 89.8301 100.954 90.1089 101.176 90.555C101.497 91.0759 101.933 91.515 102.452 91.8374C102.962 92.1818 103.557 92.3751 104.171 92.395H104.948Z" fill="#6F4439"/>
<path d="M114.655 126.129C114.544 126.129 114.821 125.459 114.655 124.623C114.512 124.134 114.307 123.666 114.045 123.229C114.045 123.173 114.211 123.285 114.433 123.508C114.665 123.826 114.834 124.186 114.932 124.567C114.973 124.958 114.955 125.353 114.877 125.738C114.827 125.881 114.752 126.013 114.655 126.129Z" fill="#6F4439"/>
<path d="M57.1888 127.244C57.1888 127.244 69.3921 102.486 70.1686 101.483C70.9452 100.479 75.4382 90.1074 75.4382 90.1074L81.6508 82.6913C81.6508 82.6913 84.5352 83.1374 82.7047 86.8733L80.0976 91.9475L89.7493 82.1895C89.7493 82.1895 92.5782 82.524 91.4688 85.5908C90.3595 88.6577 87.6969 91.3342 87.6969 91.3342L96.3501 83.8065C96.3501 83.8065 99.9556 84.3641 98.2361 88.1558C97.1267 90.6093 87.0313 101.817 87.0313 101.817L93.6321 97.6908C95.2408 96.6314 96.8494 94.401 98.0697 94.5683C99.29 94.7355 101.287 96.6314 98.2361 100.144C95.1853 103.657 86.5321 109.177 85.3118 109.847L84.036 110.571C84.036 110.571 82.5383 114.419 80.4305 116.315C80.4305 116.315 76.9914 127.3 75.2718 130.366C74.0194 132.407 72.3099 134.126 70.2796 135.385L64.9545 149.827L49.756 139.288L57.1888 127.244Z" fill="#AE7461"/>
<path d="M57.1888 127.245C57.0653 127.518 56.9167 127.78 56.7451 128.025L55.3029 130.367L49.8114 139.345V139.233L65.01 149.772H64.8436C66.4522 145.423 68.2272 140.516 70.1686 135.33C70.1686 135.274 70.1686 135.274 70.2241 135.274C71.6761 134.358 72.969 133.209 74.0515 131.873C74.6265 131.195 75.1113 130.446 75.4937 129.642C75.882 128.862 76.2148 127.97 76.5476 127.133C77.9343 123.676 79.0992 119.996 80.3195 116.26C80.3195 116.245 80.3253 116.231 80.3357 116.22C80.3461 116.21 80.3603 116.204 80.375 116.204C81.1734 115.441 81.8473 114.557 82.3719 113.583C82.9883 112.595 83.5085 111.55 83.925 110.461H83.9805L85.8664 109.401L87.7524 108.175L91.4688 105.61C92.6891 104.718 93.9649 103.825 95.1298 102.822C96.3628 101.861 97.4964 100.777 98.5134 99.5876C99.0047 98.9817 99.3638 98.2788 99.5673 97.5244C99.6859 97.167 99.7125 96.7853 99.6446 96.4147C99.5767 96.0442 99.4165 95.697 99.1791 95.4055C98.9152 95.1317 98.5927 94.922 98.2361 94.7922C98.0615 94.7233 97.8718 94.7024 97.6865 94.7318C97.5012 94.7613 97.3271 94.8398 97.1822 94.9595C96.5039 95.3951 95.8719 95.8996 95.2962 96.465C94.7234 97.0569 94.0697 97.5639 93.3548 97.9705L91.3024 99.3088L87.0868 101.93H86.9203C86.9085 101.919 86.8991 101.906 86.8926 101.892C86.8861 101.877 86.8828 101.862 86.8828 101.846C86.8828 101.83 86.8861 101.814 86.8926 101.8C86.8991 101.786 86.9085 101.773 86.9203 101.762L89.25 99.1415C91.4688 96.5765 93.6876 94.0673 95.7399 91.4466L97.2376 89.4949C97.7519 88.8664 98.1467 88.1482 98.4025 87.376C98.5411 87.0056 98.598 86.6093 98.5693 86.2146C98.5406 85.8198 98.4269 85.4361 98.2361 85.0899C97.7757 84.4757 97.1026 84.0577 96.3501 83.9189H96.4611C93.5212 86.5396 90.5813 89.0489 87.7524 91.5023C87.742 91.5142 87.7292 91.5237 87.7148 91.5302C87.7005 91.5367 87.6849 91.5401 87.6692 91.5401C87.6534 91.5401 87.6379 91.5367 87.6235 91.5302C87.6092 91.5237 87.5964 91.5142 87.586 91.5023V91.335C88.8251 89.8514 89.9384 88.2659 90.9141 86.5954C91.1138 86.1818 91.2807 85.7529 91.4134 85.3129C91.5769 84.8872 91.6341 84.4277 91.5798 83.9747C91.5053 83.532 91.2677 83.1338 90.9141 82.8595C90.5623 82.5802 90.1394 82.4063 89.6938 82.3576H89.8047L80.1531 92.0599C80.1427 92.0718 80.1299 92.0813 80.1155 92.0878C80.1012 92.0943 80.0856 92.0977 80.0699 92.0977C80.0541 92.0977 80.0386 92.0943 80.0242 92.0878C80.0099 92.0813 79.9971 92.0718 79.9867 92.0599C79.9867 92.0042 79.9312 91.9484 79.9867 91.9484L82.5383 87.0415C82.7517 86.6535 82.9192 86.2418 83.0375 85.8148L83.2039 85.1456V84.5323C83.1646 84.1153 82.9891 83.7232 82.7047 83.4171C82.4202 83.1248 82.0515 82.9297 81.6508 82.8595H81.7062L75.5491 90.1641C74.2733 93.0636 73.053 95.8516 71.8327 98.4724C71.5519 99.1206 71.2371 99.7534 70.8897 100.368C70.7675 100.706 70.5995 101.025 70.3905 101.316L69.8913 102.153C69.2256 103.342 68.6155 104.513 68.0608 105.665C65.7311 110.182 63.7897 114.085 62.181 117.264L58.5201 124.68C58.1717 125.294 57.8569 125.927 57.5771 126.576C57.4658 126.809 57.336 127.033 57.1888 127.245L57.5216 126.576C57.7435 126.13 58.0763 125.516 58.4646 124.624L62.0701 117.208L67.8944 105.554C68.5045 104.439 69.0592 103.268 69.7249 102.097L70.2796 101.205L70.7788 100.312C71.1116 99.6991 71.3889 99.03 71.6663 98.4166C72.8866 95.7959 74.1069 93.0078 75.3827 90.1083L81.5398 82.6922H81.6508C82.1054 82.7815 82.5272 82.9935 82.8711 83.3055C83.1827 83.6605 83.3596 84.1147 83.3703 84.588C83.3982 84.8102 83.3982 85.035 83.3703 85.2572C83.3148 85.4802 83.3148 85.7032 83.2594 85.9263C83.1083 86.3498 82.9227 86.7601 82.7047 87.153L80.1531 92.1157L79.9867 91.9484L89.6383 82.2461H89.7493C90.2304 82.3244 90.6864 82.5154 91.0805 82.8037C91.4704 83.1028 91.7291 83.5428 91.8016 84.0304C91.8503 84.5165 91.8128 85.0074 91.6907 85.4802C91.532 85.9455 91.3276 86.3938 91.0805 86.8184C90.1441 88.518 89.0482 90.1238 87.8079 91.6138L87.6414 91.4466L96.2946 83.8631H96.3501C96.7828 83.9269 97.1981 84.0787 97.5704 84.3092C97.9416 84.4943 98.2503 84.7852 98.4579 85.1456C98.6628 85.5173 98.7839 85.9298 98.8127 86.3538C98.8415 86.7777 98.7772 87.2029 98.6244 87.5991C98.5054 88.0082 98.3378 88.4013 98.1251 88.7701L97.4595 89.8295L95.9618 91.7811C93.854 94.4019 91.6907 96.9111 89.4165 99.4761L87.0868 102.097L86.9203 101.93L91.136 99.253C92.5227 98.3608 94.0204 97.5802 95.1298 96.465C95.7123 95.8682 96.3641 95.344 97.0712 94.9037C97.2291 94.7742 97.4227 94.6964 97.6259 94.6807C97.8404 94.5993 98.077 94.5993 98.2915 94.6807C98.6941 94.8366 99.055 95.0848 99.3455 95.4055C99.6256 95.7177 99.8192 96.0983 99.9068 96.5094C99.9944 96.9204 99.973 97.3474 99.8447 97.7475C99.6029 98.5425 99.207 99.2816 98.6798 99.9221C97.6776 101.126 96.5425 102.211 95.2962 103.156L91.6352 105.833L87.8633 108.398L86.0328 109.569L84.0914 110.684H84.1469C83.7075 111.762 83.1884 112.806 82.5937 113.806C82.0281 114.768 81.338 115.649 80.5414 116.427C79.3211 120.219 78.1007 123.899 76.7695 127.3C76.4366 128.193 76.0484 129.029 75.6601 129.865C75.2651 130.679 74.7814 131.446 74.2179 132.152C73.081 133.476 71.7535 134.623 70.2796 135.553H70.335L65.01 149.883C65.01 149.898 65.0041 149.912 64.9937 149.923C64.9833 149.933 64.9692 149.939 64.9545 149.939C64.9398 149.939 64.9257 149.933 64.9153 149.923C64.9049 149.912 64.899 149.898 64.899 149.883L49.7005 139.345V139.233L55.2474 130.367L56.6896 128.025L57.1888 127.245Z" fill="#6F4439"/>
<path d="M89.0837 89.7734L88.5844 90.4426L87.0313 92.2269C85.7 93.6767 83.8141 95.684 81.6508 97.7472C79.4875 99.8103 78.2117 100.814 76.7695 101.929C75.7185 102.224 74.7246 102.696 73.8296 103.323L72.8312 104.048C72.8864 103.957 72.9625 103.881 73.053 103.825C73.2497 103.595 73.4732 103.389 73.7187 103.212C74.6446 102.576 75.6523 102.069 76.714 101.706H76.6585C78.0453 100.591 79.7093 99.1412 81.4844 97.5241C83.2594 95.9071 85.5336 93.4536 86.9204 92.0596L88.4735 90.331L89.0837 89.7734Z" fill="#6F4439"/>
<path d="M80.5414 91.334C80.2709 91.7431 79.9744 92.1342 79.6539 92.505L77.2687 95.1257L74.8281 97.6349L73.7741 98.6386C74.0389 98.2429 74.3357 97.8699 74.6616 97.5234C75.2718 96.8543 76.1038 95.9063 77.1023 94.9026L79.4875 92.3934L80.5414 91.334Z" fill="#6F4439"/>
<path d="M87.2532 101.705L86.8649 101.984L85.8664 102.709C84.9789 103.266 83.7031 103.991 82.2609 104.716C81.0311 105.301 79.7722 105.822 78.489 106.277L77.3242 106.668L76.8249 106.779L78.4335 106.11L82.15 104.493C83.5922 103.768 84.868 103.043 85.7555 102.541C86.2131 102.193 86.7173 101.912 87.2532 101.705Z" fill="#6F4439"/>
<path d="M55.3583 129.195C54.8036 129.864 39.0504 153.73 39.0504 153.73C39.0504 153.73 24.1846 176.982 22.0213 183.562C18.8595 193.097 18.1384 209.713 28.4003 214.118C38.6621 218.523 42.2121 218.746 54.5818 213.895C62.2648 210.855 69.475 206.724 75.9929 201.628L73.5522 158.302L63.5678 163.432L72.1655 140.236L55.3583 129.195Z" fill="#E0E0E0"/>
<path d="M187.597 166.053C187.597 166.053 195.585 172.521 198.469 194.435C200.3 208.263 205.458 241.775 205.458 241.775H175.283C175.283 241.775 169.181 198.505 169.791 197.892C170.402 197.279 187.597 166.053 187.597 166.053Z" fill="#E0E0E0"/>
<path d="M73.5522 158.302L107.555 153.897C107.555 153.897 113.989 164.213 126.581 162.205C144.22 159.361 143.721 146.871 143.721 146.871C143.721 146.871 173.12 157.019 178.777 159.584C182.151 161.069 185.161 163.277 187.597 166.053C187.597 166.053 177.169 206.758 176.836 207.26C176.503 207.761 174.506 242.221 175.283 241.831C176.059 241.441 79.5429 241.831 77.9343 241.831L75.0499 200.736L64.9545 165.718L73.5522 158.302Z" fill="#E0E0E0"/>
<path d="M68.0053 151.945C68.0608 151.945 68.0053 152.057 67.8944 152.336L67.4506 153.451L65.8975 157.633C64.6217 161.202 62.9576 166.108 61.1271 171.629C60.2115 174.168 59.4338 176.755 58.7974 179.379C58.4646 180.55 58.2427 181.721 57.9099 182.781C57.6615 183.793 57.3274 184.781 56.9115 185.736C56.5786 186.628 56.3013 187.409 56.0794 188.134C55.8619 188.746 55.6025 189.342 55.3029 189.918L54.8036 190.978L54.5818 191.368L54.7482 190.978L55.2474 189.862C55.5057 189.282 55.728 188.686 55.913 188.078C56.1349 187.353 56.4122 186.572 56.7451 185.68C57.5133 183.611 58.1252 181.486 58.5755 179.324C59.2114 176.681 59.9891 174.075 60.9053 171.517C62.6803 166.053 64.3998 161.09 65.7311 157.577C66.3967 155.793 66.9514 154.399 67.3952 153.451C67.8389 152.503 67.728 152.559 67.8389 152.28L68.0053 151.945Z" fill="#2B3032"/>
<path d="M76.2702 217.52C76.2292 217.413 76.2103 217.299 76.2148 217.185C76.2148 217.018 76.1593 216.739 76.1593 216.404C76.1593 216.07 75.9929 214.62 75.8819 213.282C75.7155 210.605 75.4382 206.869 75.1054 202.52C74.4952 199.788 73.8296 196.777 72.9975 193.71C71.278 187.242 69.2811 181.554 67.3397 177.651C66.6043 176.1 65.7513 174.609 64.7881 173.19L63.9561 172.019L63.7342 171.74C63.7021 171.712 63.6822 171.672 63.6787 171.629L63.7896 171.74L64.0115 172.019L64.899 173.134C65.8738 174.537 66.7451 176.009 67.5061 177.54C69.503 181.443 71.4999 187.186 73.2194 193.598C74.0515 196.721 74.7726 199.732 75.3273 202.464C75.6046 206.869 75.8819 210.605 76.0483 213.282C76.1038 214.62 76.1593 215.624 76.2148 216.404C76.2702 217.185 76.2702 217.018 76.2702 217.185V217.52Z" fill="#2B3032"/>
<path d="M175.283 241.831C175.283 241.831 175.227 241.943 175.227 241.831V232.965C175.283 227.389 175.338 219.75 175.449 211.219V211.107C176.559 202.632 177.613 194.993 178.334 189.416L179.277 182.893C179.388 182.112 179.443 181.554 179.499 181.108C179.522 180.956 179.559 180.807 179.61 180.662V181.108C179.554 181.554 179.499 182.112 179.388 182.893C179.277 183.673 178.944 186.684 178.556 189.472C177.834 194.993 176.836 202.687 175.727 211.107V211.275C175.616 219.806 175.56 227.445 175.505 233.021C175.449 235.809 175.394 238.04 175.394 239.601C175.394 241.162 175.338 240.995 175.338 241.441V241.887L175.283 241.831Z" fill="#2B3032"/>
<path d="M122.088 174.752L114.211 241.609L137.175 241.72L127.246 174.752H122.088Z" fill="#6E6DF6"/>
<g opacity="0.3">
<path d="M20.9119 187.8C20.9119 187.8 34.8347 212 57.9099 212.558L63.1795 209.379L23.9073 178.098C23.9073 178.098 21.633 184.064 20.9119 187.8Z" fill="black"/>
</g>
<path d="M104.171 154.064L107.222 148.655C107.222 148.655 124.473 161.87 124.251 162.149L142.722 142.02L146.772 148.042C146.772 148.042 130.686 168.84 130.464 169.008C130.242 169.175 120.368 167.223 120.368 167.223L111.992 163.264L104.171 154.064Z" fill="#E0E0E0"/>
<path d="M119.425 170.235L122.365 175.978H127.524L129.576 169.343L125.749 164.826H123.475L119.425 170.235Z" fill="#6E6DF6"/>
<path d="M124.529 163.432L124.418 163.599L124.085 164.045L122.92 165.662L118.76 171.406L118.649 171.517L118.538 171.406L114.655 167.168C111.715 163.99 109.164 161.034 107.278 158.915L105.17 156.295L104.615 155.57L104.449 155.291L104.671 155.514L105.225 156.239L107.444 158.748L114.821 167.001L118.704 171.238H118.538L122.809 165.551L124.029 163.934L124.362 163.488L124.529 163.432Z" fill="#2B3032"/>
<path d="M146.994 149.27C147.215 149.381 146.051 151.11 144.109 153.786C142.168 156.463 139.339 160.087 136.233 164.046L130.797 170.849V170.96L130.686 170.849L126.248 165.496C125.693 164.827 125.305 164.325 124.972 163.99L124.695 163.544L125.028 163.935L126.359 165.384L130.852 170.682H130.686L136.066 163.879L143.998 153.675C145.94 151.054 147.104 149.325 146.994 149.27Z" fill="#2B3032"/>
<path d="M121.921 175.645C122.063 175.128 122.248 174.624 122.476 174.139C122.864 173.247 123.364 172.02 124.085 170.682C124.806 169.344 125.416 168.173 125.915 167.336C126.163 166.86 126.46 166.411 126.803 165.998C126.803 166.054 126.525 166.556 126.082 167.448C125.638 168.34 124.972 169.455 124.307 170.793L122.643 174.195C122.458 174.704 122.216 175.19 121.921 175.645Z" fill="#2B3032"/>
<path d="M127.413 175.923C127.413 176.034 126.193 176.09 124.695 176.09C123.197 176.09 122.032 176.034 122.032 175.923C122.915 175.814 123.806 175.777 124.695 175.811C125.602 175.778 126.511 175.815 127.413 175.923Z" fill="#2B3032"/>
<g opacity="0.3">
<path d="M106.224 157.41L119.425 173.581L125.749 164.715L124.528 163.377L118.649 171.295L106.224 157.41Z" fill="black"/>
</g>
<g opacity="0.3">
<path d="M125.749 164.715C126.414 165.663 129.576 174.473 130.797 174.584C132.017 174.696 145.94 151.109 145.94 151.109L130.741 170.737L125.749 164.715Z" fill="black"/>
</g>
<g opacity="0.3">
<path d="M54.7482 190.978L53.3614 194.435C53.3614 194.435 58.7419 194.993 60.5724 184.51C62.4029 174.027 62.4584 167.67 62.4584 167.67L54.7482 190.978Z" fill="black"/>
</g>
<g opacity="0.3">
<path d="M177.446 241.831L176.448 205.42L175.671 211.219L175.227 241.776L177.446 241.831Z" fill="black"/>
</g>
<g opacity="0.3">
<path d="M94.1868 156.908C94.1868 156.908 103.228 164.882 118.76 164.826C134.291 164.77 143.887 160.31 153.927 151.555L148.214 149.604C148.214 149.604 139.061 155.849 124.695 156.127C110.328 156.406 101.509 155.626 101.509 155.626L94.1868 156.908Z" fill="black"/>
</g>
<path opacity="0.3" d="M114.6 241.888C114.6 241.888 118.538 235.587 125.028 232.297C131.518 229.007 135.345 228.896 135.345 228.896L134.568 223.654L125.028 223.933L116.485 230.624L115.321 234.974L114.6 241.888Z" fill="black"/>
<g opacity="0.3">
<path d="M77.9343 240.55C77.9343 240.55 81.5398 235.197 88.7508 228.952C95.9618 222.706 134.79 199.789 134.79 199.789L191.092 170.069L187.874 165.998L98.2915 209.714L76.5476 228.84L77.9343 240.55Z" fill="black"/>
</g>
<path d="M77.0468 241.666H67.6725C68.2827 228.395 74.939 218.804 89.8602 208.377C103.617 198.842 124.917 188.136 154.426 173.359C165.187 167.951 177.446 161.817 190.87 154.958C198.721 150.96 205.611 145.289 211.061 138.342L218.493 144.141C212.184 152.197 204.194 158.764 195.085 163.378C181.662 170.237 169.403 176.37 158.587 181.835C101.564 210.384 77.9898 221.759 77.0468 241.666Z" fill="#27282F"/>
<path d="M74.4398 213.283C50.588 213.283 28.5112 197.169 21.4666 181.779C19.4143 177.318 15.9752 168.619 16.1416 160.757C16.2525 154.456 18.6377 145.423 24.9612 140.739C28.3806 138.334 32.3496 136.838 36.4988 136.39C41.4356 135.776 45.9286 136.557 49.1458 138.564L43.3215 147.876C40.9363 146.371 34.5019 147.319 31.4511 149.605C28.4003 151.891 27.1799 156.296 27.069 160.924C26.9581 165.552 28.5667 171.017 31.3956 177.151C34.2245 183.284 40.4371 189.641 48.1473 194.381C56.8005 199.734 66.5631 202.522 75.6046 202.299L75.9374 213.283H74.4398Z" fill="#6E6DF6"/>
<g opacity="0.3">
<path d="M41.0473 147.208L44.2645 136.613C44.2645 136.613 47.87 137.561 49.0348 138.621L43.266 147.765" fill="black"/>
</g>
<g opacity="0.3">
<path d="M67.728 161.37C67.9498 161.258 102.119 189.139 127.136 195.607C152.152 202.075 172.842 203.134 180.885 201.462C188.928 199.789 199.079 196.889 199.079 196.889L197.914 189.139C197.914 189.139 168.571 191.369 149.379 190.142C130.186 188.916 83.9805 161.37 83.9805 161.37L74.828 156.965L67.728 161.37Z" fill="black"/>
</g>
<path d="M166.241 198.952C158.182 198.909 150.15 198.012 142.279 196.275C127.413 193.097 110.939 184.343 99.8447 178.042C97.0712 176.481 94.0759 174.752 90.6368 172.689L83.9805 168.73C76.2702 164.046 69.4475 160.143 65.5647 158.581C66.7295 154.901 68.0053 151.388 69.2811 148.043C73.9405 149.939 81.1515 154.176 89.5829 159.306C91.7462 160.533 93.9095 161.871 96.2392 163.265L105.225 168.507C115.709 174.417 131.185 182.67 144.553 185.514C159.474 188.692 181.052 190.365 198.746 179.938C207.011 175.031 213.723 168.284 217.55 160.868C221.933 152.392 222.765 143.247 219.991 133.712C215.831 119.605 201.52 111.798 184.38 114.252C173.674 115.813 164.411 120.163 156.201 123.954C150.044 126.854 144.719 129.307 139.672 130.199L137.73 119.382C141.391 118.769 146.106 116.538 151.598 113.973C160.029 110.07 170.568 105.163 182.827 103.379C193.976 101.817 204.404 103.602 213.057 108.564C221.481 113.362 227.725 121.258 230.475 130.59C234.025 142.801 232.915 155.013 227.258 165.942C222.376 175.31 214.444 183.395 204.293 189.417C192.146 196.554 178.667 198.952 166.241 198.952Z" fill="#6E6DF6"/>
<g opacity="0.3">
<path d="M183.881 103.322C185.267 107.449 184.435 114.474 184.435 114.474L181.995 114.697C182.194 111.006 181.858 107.306 180.996 103.713L183.881 103.322Z" fill="black"/>
</g>
<g opacity="0.3">
<path d="M196.75 103.21C197.254 106.91 197.254 110.662 196.75 114.363L194.309 113.916V102.932L196.75 103.21Z" fill="black"/>
</g>
<g opacity="0.3">
<path d="M221.433 140.682L221.544 144.083C221.544 144.083 228.422 137.726 229.587 128.191C229.028 126.471 228.303 124.809 227.424 123.229L221.433 140.682Z" fill="black"/>
</g>
<g opacity="0.3">
<path d="M141.724 118.268C141.724 118.435 143.444 129.197 143.444 129.197C142.143 129.67 140.807 130.043 139.45 130.312L137.73 119.327C139.103 119.16 140.447 118.803 141.724 118.268Z" fill="black"/>
</g>
<path d="M119.314 162.039C113.896 162.096 108.515 161.131 103.45 159.195C101.453 158.415 98.6798 157.188 95.7954 155.906L88.3071 152.671C84.8125 151.222 80.3195 151.389 79.3765 153.229L71.0561 148.824C74.7171 141.742 84.6461 140.906 91.9126 143.973L99.5673 147.263L106.834 150.441C112.991 152.839 121.089 153.229 128.578 151.556C138.118 149.382 150.1 141.854 156.479 133.992C162.858 126.129 165.465 115.981 162.58 107.394C159.696 98.8069 146.272 93.9 138.895 94.6249L137.952 85.2571C148.658 84.1977 166.963 91.0562 171.456 104.383C175.394 116.093 172.565 129.029 163.745 139.958C156.091 149.382 142.168 158.136 130.63 160.757C126.916 161.596 123.121 162.026 119.314 162.039Z" fill="#27282F"/>
<path d="M105.17 241.664C105.17 235.251 108.997 228.281 115.432 223.095C131.351 210.271 154.593 213.059 167.018 215.847L164.966 225.047C139.838 219.415 126.803 225.995 121.311 230.456C115.82 234.917 114.544 238.987 114.544 241.664H105.17Z" fill="#27282F"/>
<path d="M160.084 227.557L173.896 222.371L164.134 211.219L160.084 227.557Z" fill="#27282F"/>
<g opacity="0.3">
<path d="M142.833 85.2575L142.057 94.6252H139.006L138.118 85.2017C139.685 84.9937 141.272 85.0125 142.833 85.2575Z" fill="black"/>
</g>
<g opacity="0.3">
<path d="M72.4429 146.76C72.4429 146.76 80.375 152.336 80.264 152.336C79.8805 152.53 79.5693 152.842 79.3765 153.228L71.0561 148.823C71.4501 148.091 71.9146 147.4 72.4429 146.76Z" fill="black"/>
</g>
<path d="M149.656 45.668L138.507 61.2809L156.368 66.9684L149.656 45.668Z" fill="#27282F"/>
<path d="M203.961 158.136L200.189 149.493H200.133C200.244 149.493 206.734 146.315 213.224 135.051C219.714 123.787 219.714 106.446 219.714 105.331C218.604 84.0302 209.23 69.1979 191.757 61.3357L191.48 61.2242C185.557 58.5997 179.166 57.2073 172.693 57.1306C166.221 57.0539 159.799 58.2947 153.816 60.7781L149.767 62.4509L146.162 53.7523L150.266 52.0795C157.41 49.1079 165.079 47.6204 172.81 47.7067C180.541 47.7929 188.175 49.4511 195.252 52.5814L195.585 52.7486C216.275 62.0606 227.812 80.0712 229.088 104.94V105.052C229.088 105.888 229.421 125.795 221.322 139.791C213.224 153.786 204.903 157.69 203.961 158.136Z" fill="#27282F"/>
<path d="M179.332 159.864L169.237 155.905C170.461 152.559 171.907 149.299 173.563 146.147C175.616 142.02 177.779 137.783 179.499 132.374C185.656 112.858 184.824 102.096 180.941 87.9327L191.48 85.0332C195.807 100.925 196.86 113.694 189.871 135.719C187.93 141.909 185.489 146.816 183.326 151.109C181.788 153.928 180.453 156.853 179.332 159.864Z" fill="#6E6DF6"/>
<path d="M195.862 85.4801L182.05 72.0977L174.562 89.941L195.862 85.4801Z" fill="#6E6DF6"/>
<g opacity="0.3">
<path d="M169.237 155.851L170.18 153.564L180.275 157.189L179.332 159.865L169.237 155.851Z" fill="black"/>
</g>
<path d="M197.124 63.1407C212.167 61.4605 223.007 47.8398 221.335 32.7179C219.664 17.596 206.114 6.69938 191.071 8.37959C176.028 10.0598 165.188 23.6806 166.86 38.8025C168.531 53.9243 182.081 64.8209 197.124 63.1407Z" fill="#222429"/>
<path d="M167.573 35.1844V34.7383C167.628 34.4038 167.628 33.9577 167.684 33.4001C167.739 32.8425 167.739 32.7867 167.739 32.4521C167.739 32.1176 167.85 31.7273 167.905 31.2812C168.052 30.3218 168.256 29.3721 168.516 28.4374C169.176 25.867 170.203 23.4065 171.566 21.1328C173.392 18.1154 175.762 15.4678 178.556 13.3263C182.196 10.5769 186.459 8.78059 190.962 8.09923C195.464 7.41788 200.065 7.87282 204.349 9.42311C205.576 9.85799 206.764 10.399 207.899 11.0402C209.053 11.6734 210.164 12.3812 211.227 13.1591C212.326 13.9742 213.364 14.8688 214.333 15.8356C215.293 16.8315 216.183 17.8935 216.996 19.0139C218.7 21.287 220.013 23.8315 220.879 26.5415C221.779 29.3356 222.265 32.2479 222.321 35.1844C222.265 38.1209 221.779 41.0332 220.879 43.8273C220.001 46.5325 218.69 49.0753 216.996 51.3549C216.183 52.4753 215.293 53.5373 214.333 54.5332C213.364 55.5 212.326 56.3946 211.227 57.2097C210.164 57.9876 209.053 58.6954 207.899 59.3286C206.753 59.9469 205.567 60.4871 204.349 60.9457C199.763 62.5895 194.828 62.9933 190.038 62.1167C185.844 61.342 181.891 59.5845 178.5 56.9867C175.725 54.8643 173.372 52.2348 171.566 49.236C170.203 46.9623 169.176 44.5018 168.516 41.9314C168.255 40.978 168.051 40.0097 167.905 39.0319L167.739 37.9167C167.739 37.5263 167.684 37.2475 167.684 36.913C167.684 36.5784 167.628 35.965 167.573 35.6305V35.1844C167.517 35.1844 167.517 35.3517 167.517 35.6305C167.568 36.0746 167.587 36.5219 167.573 36.9687C167.573 37.2475 167.628 37.5821 167.628 37.9167C167.664 38.3095 167.72 38.7004 167.795 39.0876C167.899 40.0455 168.066 40.9955 168.294 41.9314C168.902 44.5626 169.913 47.0831 171.289 49.4033C173.11 52.456 175.48 55.1411 178.278 57.3213C181.962 60.1555 186.295 62.0136 190.88 62.7249C195.464 63.4361 200.153 62.9777 204.515 61.3918C205.761 60.957 206.967 60.416 208.121 59.7747C209.33 59.1563 210.481 58.4284 211.56 57.6001C212.665 56.7714 213.721 55.8777 214.722 54.9236C215.687 53.8971 216.594 52.8174 217.44 51.6895C219.181 49.3616 220.53 46.762 221.433 43.9945C222.343 41.1469 222.811 38.1753 222.82 35.1844C222.819 32.1884 222.332 29.2126 221.378 26.3743C220.517 23.5998 219.185 20.9963 217.44 18.6793C216.594 17.5514 215.687 16.4717 214.722 15.4452C213.721 14.4911 212.665 13.5974 211.56 12.7687C210.469 11.9418 209.32 11.1963 208.121 10.5383C206.955 9.93771 205.75 9.41612 204.515 8.97703C200.153 7.39108 195.464 6.93267 190.88 7.64394C186.295 8.3552 181.962 10.2133 178.278 13.0475C175.48 15.2277 173.11 17.9128 171.289 20.9655C169.947 23.2826 168.938 25.7795 168.294 28.3816C168.065 29.3363 167.898 30.3048 167.795 31.2812C167.716 31.6678 167.66 32.0588 167.628 32.4521C167.628 32.7867 167.573 33.1213 167.573 33.4001C167.587 33.8469 167.568 34.2942 167.517 34.7383C167.517 35.0171 167.517 35.1844 167.573 35.1844Z" fill="#40434B"/>
<path d="M188.152 28.3822H191.813C191.813 28.3822 191.813 25.2596 195.03 25.2038C195.648 25.1745 196.26 25.3419 196.777 25.6823C197.295 26.0227 197.693 26.5187 197.914 27.0997C198.115 27.5839 198.199 28.1087 198.161 28.6318C198.122 29.1548 197.962 29.6614 197.692 30.1107C197.027 31.1702 195.696 32.0623 193.199 31.672V39.9803H196.86V35.1292C198.358 34.6789 199.667 33.7483 200.588 32.4797C201.51 31.211 201.993 29.6739 201.964 28.1034C201.964 22.6946 197.138 21.4121 195.03 21.4121C192.922 21.4121 188.096 21.8024 188.152 28.3822Z" fill="#40434B"/>
<path d="M196.916 41.709H193.199V45.1829H196.916V41.709Z" fill="#40434B"/>
<path d="M176.218 67.7213C177.759 66.0076 177.625 63.3631 175.921 61.8146C174.216 60.2661 171.585 60.4001 170.045 62.1138C168.504 63.8276 168.638 66.4721 170.342 68.0205C172.047 69.569 174.678 69.435 176.218 67.7213Z" fill="#222429"/>
<path d="M168.904 64.7947C168.959 64.7947 168.959 64.4044 169.126 63.791C169.403 62.92 169.947 62.1591 170.679 61.6164C171.212 61.2377 171.829 60.9943 172.476 60.9069C173.123 60.8196 173.782 60.8908 174.395 61.1145C175.153 61.3835 175.808 61.8819 176.272 62.541C176.735 63.2001 176.984 63.9875 176.984 64.7947C176.984 65.602 176.735 66.3894 176.272 67.0485C175.808 67.7076 175.153 68.2059 174.395 68.4749C173.782 68.6987 173.123 68.7699 172.476 68.6825C171.829 68.5951 171.212 68.3517 170.679 67.9731C169.957 67.4202 169.416 66.6628 169.126 65.7984C168.959 65.185 168.959 64.7947 168.904 64.7947C168.848 64.7947 168.793 65.1851 168.904 65.8542C169.033 66.4557 169.289 67.0223 169.655 67.5157C170.02 68.0091 170.487 68.4176 171.024 68.7138C171.56 69.0099 172.154 69.1866 172.764 69.232C173.375 69.2774 173.988 69.1903 174.562 68.9768C175.424 68.6746 176.171 68.1091 176.698 67.3593C177.225 66.6095 177.506 65.7128 177.502 64.7947C177.515 63.8747 177.237 62.9741 176.709 62.2227C176.181 61.4712 175.429 60.9075 174.562 60.6127C173.868 60.369 173.124 60.3025 172.398 60.4193C171.672 60.5361 170.986 60.8325 170.402 61.2818C169.636 61.902 169.107 62.7686 168.904 63.7353C168.793 64.4044 168.848 64.7947 168.904 64.7947Z" fill="#40434B"/>
<path d="M62.3158 63.5057C63.6079 55.5737 58.2588 48.0906 50.3682 46.7916C42.4776 45.4927 35.0335 50.8699 33.7414 58.8019C32.4493 66.7339 37.7984 74.217 45.689 75.516C53.5796 76.8149 61.0236 71.4377 62.3158 63.5057Z" fill="#222429"/>
<path d="M62.5139 61.1701V60.2779C62.4684 60.1148 62.4497 59.9453 62.4584 59.7761C62.4481 59.5676 62.4108 59.3614 62.3475 59.1627C62.2989 58.6537 62.2061 58.1499 62.0701 57.6572C61.7243 56.3024 61.1823 55.006 60.4615 53.8097C59.4961 52.2256 58.2562 50.8281 56.8005 49.6834C55.0075 48.3516 52.9423 47.4374 50.7544 47.0069C48.2258 46.5422 45.6192 46.7734 43.2106 47.6761C42.5596 47.8781 41.9283 48.1394 41.3246 48.4567C40.7303 48.8147 40.1562 49.2056 39.6051 49.6277C39.0127 50.0449 38.4561 50.5112 37.941 51.0217C37.4357 51.5418 36.972 52.1011 36.5543 52.6945C35.6646 53.8958 34.9718 55.2323 34.5019 56.6535C34.0382 58.1143 33.7952 59.6368 33.7808 61.1701C33.7946 62.7217 34.0376 64.2626 34.5019 65.7424C34.9718 67.1636 35.6646 68.5001 36.5543 69.7014C36.9861 70.2838 37.4491 70.8422 37.941 71.3742C38.4561 71.8847 39.0127 72.351 39.6051 72.7682C40.6971 73.6057 41.914 74.2643 43.2106 74.7198C45.4685 75.5348 47.8925 75.7729 50.2646 75.4128C52.6368 75.0526 54.8827 74.1056 56.8005 72.6567C58.2657 71.5445 59.5079 70.1633 60.4615 68.5862C61.1823 67.3899 61.7243 66.0935 62.0701 64.7387C62.2061 64.246 62.2989 63.7422 62.3475 63.2332C62.4063 63.0334 62.4435 62.8277 62.4584 62.6198C62.4497 62.4506 62.4684 62.2812 62.5139 62.118V61.4489C62.5454 61.3591 62.5641 61.2652 62.5693 61.1701V62.6198C62.5693 62.7871 62.5139 63.0102 62.5139 63.2332C62.4653 63.7422 62.3725 64.246 62.2365 64.7387C61.9024 66.115 61.3598 67.4314 60.6279 68.642C59.6962 70.2667 58.4517 71.6885 56.9669 72.824C55.1802 74.2239 53.0894 75.1793 50.8653 75.612C48.2851 76.0693 45.6316 75.8582 43.1551 74.9986C42.5121 74.7537 41.8826 74.4745 41.2691 74.1622C40.6568 73.8045 40.0643 73.4136 39.4941 72.9913C38.901 72.5545 38.3445 72.0696 37.83 71.5415C37.3068 71.0224 36.8246 70.4631 36.3878 69.8687C35.4592 68.6428 34.7463 67.266 34.28 65.7982C33.8119 64.3001 33.5689 62.7403 33.5589 61.1701C33.5769 59.6006 33.8197 58.0418 34.28 56.542C34.747 55.0915 35.4601 53.7332 36.3878 52.5272C36.8242 51.9151 37.3064 51.3372 37.83 50.7987C38.3451 50.2882 38.9018 49.8219 39.4941 49.4046C40.0643 48.9823 40.6568 48.5914 41.2691 48.2337C41.8826 47.9214 42.5121 47.6422 43.1551 47.3973C45.6258 46.5099 48.2866 46.2982 50.8653 46.7839C53.0779 47.2213 55.1636 48.1553 56.9669 49.5162C58.4391 50.6652 59.6813 52.0843 60.6279 53.6982C61.3407 54.9184 61.882 56.232 62.2365 57.6014C62.3732 58.1129 62.466 58.6353 62.5139 59.1627C62.5139 59.33 62.5693 59.553 62.5693 59.7203V61.1701H62.5139Z" fill="#40434B"/>
<path d="M43.5988 58.3816H45.984C45.9839 58.1133 46.0374 57.8476 46.1412 57.6003C46.245 57.3531 46.397 57.1293 46.5884 56.9421C46.7797 56.755 47.0064 56.6083 47.2552 56.5108C47.5039 56.4132 47.7695 56.3668 48.0364 56.3743C48.4353 56.3723 48.8262 56.4874 49.1611 56.7052C49.4961 56.9231 49.7606 57.2344 49.9223 57.601C50.0317 57.9105 50.0734 58.24 50.0447 58.5671C50.016 58.8943 49.9175 59.2114 49.7559 59.4968C49.3122 60.166 48.4247 60.7793 46.8715 60.5005V65.8535H49.2012V62.7309C50.1667 62.4478 51.0116 61.8509 51.6038 61.0337C52.1959 60.2164 52.5019 59.225 52.4739 58.2144C52.4739 54.7572 49.3677 53.9766 48.0364 53.9766C46.7051 53.9766 43.5988 54.1996 43.5988 58.3816Z" fill="#40434B"/>
<path d="M49.2567 66.9688H46.8715V69.1992H49.2567V66.9688Z" fill="#40434B"/>
<path d="M68.9483 68.0843C68.9483 68.5696 68.8051 69.0439 68.537 69.4474C68.2688 69.8509 67.8876 70.1653 67.4416 70.351C66.9957 70.5367 66.5049 70.5853 66.0315 70.4906C65.5581 70.396 65.1232 70.1623 64.7818 69.8192C64.4405 69.4761 64.2081 69.0389 64.1139 68.563C64.0197 68.087 64.0681 67.5937 64.2528 67.1454C64.4375 66.6971 64.7503 66.3139 65.1517 66.0443C65.5531 65.7748 66.0249 65.6309 66.5076 65.6309C67.1549 65.6309 67.7757 65.8894 68.2334 66.3495C68.6912 66.8096 68.9483 67.4336 68.9483 68.0843Z" fill="#222429"/>
<path d="M68.9483 68.0836C68.8928 68.0836 68.8928 67.8606 68.7819 67.526C68.645 67.007 68.3308 66.553 67.8944 66.2435C67.5507 66.0026 67.1487 65.8593 66.7309 65.8287C66.313 65.7981 65.8946 65.8814 65.5198 66.0698C65.1451 66.2581 64.8278 66.5446 64.6014 66.899C64.375 67.2534 64.2479 67.6627 64.2334 68.0836C64.2281 68.513 64.3432 68.9351 64.5655 69.3017C64.7878 69.6684 65.1084 69.9647 65.4904 70.1567C65.8724 70.3487 66.3005 70.4287 66.7257 70.3875C67.1508 70.3463 67.5559 70.1856 67.8944 69.9237C68.3308 69.6143 68.645 69.1602 68.7819 68.6412C68.8928 68.3067 68.8928 68.0836 68.9483 68.0836C68.9847 68.2864 68.9847 68.4942 68.9483 68.697C68.7973 69.256 68.4892 69.7594 68.0608 70.1468C67.676 70.4498 67.2142 70.6379 66.7281 70.6897C66.242 70.7416 65.7512 70.655 65.3117 70.4399C64.8723 70.2247 64.5018 69.8897 64.2427 69.4731C63.9835 69.0565 63.8461 68.575 63.8461 68.0836C63.8461 67.5923 63.9835 67.1108 64.2427 66.6941C64.5018 66.2775 64.8723 65.9425 65.3117 65.7274C65.7512 65.5123 66.242 65.4257 66.7281 65.4775C67.2142 65.5293 67.676 65.7175 68.0608 66.0205C68.4892 66.4079 68.7973 66.9112 68.9483 67.4703C68.9847 67.6731 68.9847 67.8808 68.9483 68.0836Z" fill="#40434B"/>
<path d="M218.549 209.603C229.332 209.603 238.074 200.815 238.074 189.975C238.074 179.135 229.332 170.348 218.549 170.348C207.765 170.348 199.024 179.135 199.024 189.975C199.024 200.815 207.765 209.603 218.549 209.603Z" fill="#222429"/>
<path d="M238.074 190.031V189.696C238.019 189.473 238.019 189.139 237.963 188.748V188.079L237.797 187.243C237.733 186.562 237.603 185.89 237.408 185.235C236.954 183.406 236.225 181.657 235.245 180.05C233.962 177.912 232.286 176.039 230.308 174.529C227.911 172.695 225.118 171.453 222.154 170.905C218.757 170.273 215.253 170.562 212.004 171.741C211.129 172.056 210.277 172.428 209.452 172.857C208.675 173.358 207.843 173.804 207.067 174.418C206.308 174.984 205.585 175.599 204.904 176.258C204.216 176.969 203.585 177.733 203.018 178.544C201.791 180.153 200.852 181.964 200.244 183.897C199.603 185.879 199.266 187.947 199.246 190.031C199.271 192.114 199.608 194.182 200.244 196.164C200.876 198.087 201.813 199.894 203.018 201.517C203.6 202.299 204.23 203.044 204.904 203.748C205.584 204.425 206.307 205.058 207.067 205.644C207.843 206.201 208.675 206.647 209.452 207.149C210.277 207.578 211.129 207.95 212.004 208.264C215.253 209.444 218.757 209.732 222.154 209.101C225.118 208.553 227.911 207.311 230.308 205.476C232.286 203.967 233.962 202.093 235.245 199.956C236.225 198.348 236.954 196.6 237.408 194.77C237.607 194.117 237.738 193.444 237.797 192.763L237.963 191.927V191.257C238.019 190.867 238.019 190.533 238.074 190.31V191.257C238.074 191.481 238.019 191.704 238.019 191.927C238.009 192.208 237.972 192.489 237.908 192.763C237.844 193.462 237.714 194.152 237.519 194.826C237.115 196.68 236.402 198.452 235.412 200.068C234.166 202.264 232.486 204.181 230.475 205.699C228.049 207.579 225.218 208.859 222.21 209.435C218.74 210.094 215.158 209.805 211.837 208.599C210.963 208.285 210.11 207.912 209.286 207.484C208.44 207.016 207.625 206.495 206.845 205.922C206.067 205.337 205.326 204.704 204.626 204.027C203.936 203.302 203.288 202.539 202.685 201.74C201.482 200.067 200.529 198.226 199.856 196.276C198.526 192.201 198.526 187.805 199.856 183.73C200.529 181.797 201.483 179.975 202.685 178.321C203.295 177.485 203.961 176.76 204.626 175.979C205.292 175.198 206.068 174.641 206.845 174.083C207.625 173.511 208.44 172.99 209.286 172.522C210.11 172.094 210.963 171.721 211.837 171.407C214.935 170.274 218.268 169.945 221.526 170.452C224.784 170.959 227.862 172.285 230.475 174.306C232.461 175.852 234.136 177.763 235.412 179.938C236.402 181.554 237.115 183.326 237.519 185.18C237.714 185.853 237.844 186.544 237.908 187.243C237.972 187.517 238.009 187.797 238.019 188.079C238.019 188.302 238.074 188.525 238.074 188.748V190.031Z" fill="#40434B"/>
<path d="M213.279 185.571H216.108C216.108 185.244 216.173 184.92 216.299 184.619C216.425 184.317 216.61 184.044 216.843 183.816C217.075 183.587 217.351 183.408 217.653 183.288C217.956 183.168 218.279 183.11 218.604 183.117C219.078 183.103 219.543 183.242 219.932 183.513C220.321 183.784 220.614 184.173 220.768 184.623C220.918 184.991 220.982 185.389 220.953 185.786C220.924 186.182 220.804 186.567 220.601 186.909C220.102 187.69 219.048 188.414 217.162 188.08V194.492H219.936V190.701C221.087 190.369 222.097 189.665 222.809 188.697C223.522 187.729 223.896 186.551 223.874 185.348C223.874 181.221 220.158 180.273 218.604 180.273C217.051 180.273 213.224 180.552 213.279 185.571Z" fill="#40434B"/>
<path d="M219.991 195.775H217.162V198.435H219.991V195.775Z" fill="#40434B"/>
<path d="M197.859 168.284C197.798 168.748 197.837 169.22 197.973 169.668C198.108 170.116 198.337 170.53 198.644 170.882C198.951 171.234 199.329 171.515 199.754 171.709C200.178 171.902 200.638 172.002 201.104 172.002C201.57 172.002 202.03 171.902 202.454 171.709C202.878 171.515 203.257 171.234 203.564 170.882C203.871 170.53 204.1 170.116 204.235 169.668C204.371 169.22 204.409 168.748 204.349 168.284C204.246 167.493 203.859 166.766 203.262 166.239C202.665 165.712 201.898 165.422 201.104 165.422C200.31 165.422 199.542 165.712 198.945 166.239C198.348 166.766 197.962 167.493 197.859 168.284Z" fill="#222429"/>
<path d="M197.859 168.284C197.914 168.284 197.914 168.005 198.081 167.503C198.276 166.832 198.685 166.244 199.246 165.83C199.662 165.542 200.14 165.356 200.642 165.289C201.143 165.221 201.653 165.273 202.13 165.44C202.71 165.655 203.212 166.042 203.569 166.55C203.925 167.057 204.12 167.662 204.127 168.284C204.128 168.907 203.936 169.516 203.579 170.025C203.221 170.535 202.715 170.92 202.13 171.128C201.657 171.32 201.142 171.385 200.636 171.316C200.131 171.248 199.651 171.048 199.246 170.737C198.665 170.344 198.25 169.748 198.081 169.065C197.914 168.563 197.914 168.284 197.859 168.284C197.828 168.564 197.847 168.847 197.914 169.12C198.047 169.879 198.464 170.557 199.079 171.016C199.525 171.374 200.054 171.613 200.617 171.711C201.179 171.808 201.757 171.761 202.297 171.574C202.96 171.317 203.531 170.866 203.936 170.28C204.342 169.693 204.563 168.998 204.571 168.284C204.567 167.576 204.347 166.885 203.94 166.307C203.533 165.729 202.96 165.29 202.297 165.05C201.757 164.862 201.179 164.815 200.617 164.913C200.054 165.01 199.525 165.249 199.079 165.607C198.77 165.831 198.508 166.113 198.308 166.438C198.109 166.764 197.975 167.126 197.914 167.503C197.847 167.758 197.828 168.022 197.859 168.284Z" fill="#40434B"/>
<path d="M41.8486 224.618C44.0251 217.461 40.0184 209.886 32.8994 207.698C25.7804 205.511 18.245 209.538 16.0685 216.695C13.892 223.851 17.8987 231.426 25.0176 233.614C32.1366 235.802 39.6721 231.774 41.8486 224.618Z" fill="#222429"/>
<path d="M42.4895 220.475V220.308C42.4895 220.14 42.434 219.917 42.434 219.639C42.44 219.469 42.4213 219.3 42.3785 219.137C42.3785 218.969 42.3231 218.802 42.3231 218.579C42.2684 218.108 42.1756 217.641 42.0457 217.185C41.7121 215.932 41.2081 214.731 40.548 213.616C39.6537 212.127 38.4867 210.822 37.1089 209.769C35.4409 208.505 33.5044 207.646 31.4511 207.26C29.1076 206.859 26.7009 207.07 24.462 207.873C23.8508 208.086 23.2573 208.347 22.6869 208.654C22.1182 208.954 21.5796 209.309 21.0783 209.713C20.5363 210.11 20.0177 210.538 19.5252 210.996C19.0701 211.491 18.6441 212.012 18.2494 212.557C17.4087 213.67 16.7531 214.913 16.308 216.237C15.421 219.011 15.421 221.995 16.308 224.768C16.7531 226.093 17.4087 227.335 18.2494 228.449C18.6441 228.994 19.0701 229.515 19.5252 230.01C20.0177 230.467 20.5363 230.896 21.0783 231.292C21.5796 231.697 22.1182 232.051 22.6869 232.352C23.2573 232.659 23.8508 232.92 24.462 233.133C26.7009 233.936 29.1076 234.147 31.4511 233.746C33.5044 233.36 35.4409 232.501 37.1089 231.237C38.4738 230.17 39.6384 228.867 40.548 227.389C41.2081 226.275 41.7121 225.074 42.0457 223.821C42.1756 223.364 42.2684 222.898 42.3231 222.427C42.3231 222.204 42.3785 222.036 42.3785 221.813C42.4242 221.669 42.443 221.518 42.434 221.367C42.434 221.088 42.4895 220.865 42.4895 220.698V221.869C42.434 222.036 42.434 222.204 42.3785 222.427C42.3231 222.65 42.2676 223.319 42.1566 223.821C41.8343 225.095 41.3298 226.316 40.659 227.445C39.7843 228.965 38.6148 230.292 37.2199 231.348C35.5451 232.658 33.5884 233.556 31.5065 233.969C29.1105 234.427 26.6353 234.215 24.351 233.356C23.7399 233.143 23.1464 232.882 22.576 232.575C22.0013 232.255 21.4457 231.901 20.9119 231.515C20.3692 231.1 19.8506 230.653 19.3588 230.177C18.8857 229.683 18.4412 229.162 18.0275 228.616C17.1651 227.476 16.5081 226.192 16.0861 224.824C15.1267 222.024 15.1267 218.982 16.0861 216.181C16.4957 214.808 17.1539 213.523 18.0275 212.39C18.4412 211.844 18.8857 211.323 19.3588 210.828C19.8363 210.337 20.356 209.889 20.9119 209.49C21.4323 209.085 21.9895 208.731 22.576 208.431C23.1464 208.124 23.7399 207.863 24.351 207.65C26.6353 206.791 29.1105 206.578 31.5065 207.037C33.5847 207.461 35.5388 208.358 37.2199 209.657C38.5995 210.708 39.7668 212.014 40.659 213.505C41.3221 214.658 41.8259 215.896 42.1566 217.185C42.2676 217.687 42.3231 218.189 42.3785 218.579C42.434 218.969 42.434 218.969 42.4895 219.137V220.475Z" fill="#40434B"/>
<path d="M25.3495 217.41H27.2909C27.2908 217.185 27.3356 216.963 27.4226 216.756C27.5097 216.55 27.6373 216.363 27.7977 216.207C27.9582 216.05 28.1482 215.928 28.3566 215.848C28.5649 215.767 28.7873 215.729 29.0104 215.737C29.3346 215.718 29.6559 215.806 29.926 215.987C30.1961 216.168 30.4004 216.433 30.5081 216.74C30.6136 217.001 30.6585 217.282 30.6393 217.562C30.6201 217.842 30.5372 218.114 30.3972 218.357C30.0643 218.915 29.3432 219.417 28.012 219.138V223.599H29.9534V220.978C30.7487 220.755 31.4476 220.273 31.9398 219.606C32.432 218.94 32.6894 218.128 32.6714 217.298C32.6714 214.399 30.1198 213.785 29.0104 213.785C27.901 213.785 25.294 213.952 25.3495 217.41Z" fill="#40434B"/>
<path d="M29.9534 224.49H28.012V226.33H29.9534V224.49Z" fill="#40434B"/>
<path d="M37.83 203.246C37.8445 204.079 38.184 204.873 38.7754 205.457C39.3668 206.041 40.1627 206.368 40.9917 206.368C41.8156 206.368 42.6056 206.039 43.1882 205.454C43.7707 204.868 44.098 204.074 44.098 203.246C44.098 202.417 43.7707 201.623 43.1882 201.038C42.6056 200.452 41.8156 200.123 40.9917 200.123C40.1627 200.123 39.3668 200.45 38.7754 201.034C38.184 201.618 37.8445 202.412 37.83 203.246Z" fill="#222429"/>
<path d="M37.83 203.246C37.8855 203.246 37.8855 202.967 38.0519 202.521C38.2189 201.867 38.6122 201.293 39.1613 200.904C39.5654 200.612 40.0344 200.424 40.5275 200.356C41.0206 200.287 41.5228 200.342 41.9902 200.514C42.3768 200.67 42.7259 200.907 43.0144 201.209C43.3029 201.512 43.5241 201.872 43.6635 202.267C43.8029 202.662 43.8572 203.082 43.8228 203.499C43.7885 203.916 43.6662 204.322 43.4642 204.688C43.2622 205.055 42.985 205.374 42.651 205.624C42.317 205.874 41.9339 206.051 41.527 206.141C41.1201 206.231 40.6988 206.234 40.291 206.148C39.8831 206.062 39.498 205.89 39.1613 205.644C38.6182 205.224 38.2281 204.636 38.0519 203.971C37.8855 203.525 37.8855 203.246 37.83 203.246C37.7988 203.507 37.8176 203.772 37.8855 204.027C38.0172 204.756 38.4123 205.412 38.9949 205.867C39.424 206.216 39.9366 206.445 40.4815 206.533C41.0265 206.622 41.5849 206.565 42.1012 206.368C42.7539 206.151 43.3219 205.732 43.7244 205.171C44.1269 204.611 44.3436 203.937 44.3436 203.246C44.3436 202.555 44.1269 201.881 43.7244 201.32C43.3219 200.76 42.7539 200.341 42.1012 200.123C41.5849 199.927 41.0265 199.87 40.4815 199.958C39.9366 200.046 39.424 200.276 38.9949 200.625C38.4123 201.08 38.0172 201.735 37.8855 202.465C37.8176 202.719 37.7988 202.984 37.83 203.246Z" fill="#40434B"/>
</g>
<defs>
<clipPath id="clip0_280_2306">
<rect width="250" height="242" fill="white"/>
</clipPath>
</defs>
</svg>
