<?xml version="1.0" standalone="no"?>
<!DOCTYPE svg PUBLIC "-//W3C//DTD SVG 20010904//EN"
 "http://www.w3.org/TR/2001/REC-SVG-20010904/DTD/svg10.dtd">
<svg version="1.0" xmlns="http://www.w3.org/2000/svg"
 width="61.000000pt" height="48.000000pt" viewBox="0 0 61.000000 48.000000"
 preserveAspectRatio="xMidYMid meet">

<g transform="translate(0.000000,48.000000) scale(0.100000,-0.100000)"
fill="#000000" stroke="none">
<path d="M134 470 c-30 -12 -64 -58 -64 -87 0 -30 51 -83 79 -83 17 0 21 6 21
33 0 34 32 97 50 97 23 0 8 22 -25 36 -19 7 -36 14 -37 13 -2 0 -13 -4 -24 -9z"/>
<path d="M423 472 c-12 -2 -27 -10 -34 -18 -10 -12 -7 -20 15 -43 17 -18 30
-44 33 -70 7 -49 30 -55 68 -16 62 61 7 160 -82 147z"/>
<path d="M283 412 c-36 -6 -73 -50 -73 -89 0 -19 5 -43 10 -54 16 -29 67 -51
100 -44 38 8 80 58 80 94 0 54 -61 102 -117 93z"/>
<path d="M70 263 c-29 -11 -50 -37 -60 -75 -15 -54 0 -78 48 -78 33 0 39 4 55
41 12 25 32 46 53 57 33 17 33 18 18 40 -12 17 -25 22 -57 21 -23 0 -49 -3
-57 -6z"/>
<path d="M421 248 c-10 -16 -11 -23 -2 -26 25 -8 69 -53 81 -82 12 -28 16 -31
54 -28 39 3 41 4 44 40 4 46 -21 96 -54 108 -14 6 -44 10 -67 10 -33 0 -45 -5
-56 -22z"/>
<path d="M204 180 c-47 -19 -85 -100 -69 -149 6 -21 11 -21 168 -19 l162 3 3
42 c4 55 -20 101 -63 119 -37 15 -167 18 -201 4z"/>
</g>
</svg>
