<?xml version="1.0" standalone="no"?>
<!DOCTYPE svg PUBLIC "-//W3C//DTD SVG 20010904//EN"
 "http://www.w3.org/TR/2001/REC-SVG-20010904/DTD/svg10.dtd">
<svg version="1.0" xmlns="http://www.w3.org/2000/svg"
 width="352.000000pt" height="352.000000pt" viewBox="0 0 352.000000 352.000000"
 preserveAspectRatio="xMidYMid meet">

<g transform="translate(0.000000,352.000000) scale(0.100000,-0.100000)"
fill="#000000" stroke="none">
<path d="M0 3099 l0 -420 37 3 38 3 3 377 2 378 378 2 377 3 3 38 3 37 -420 0
-421 0 0 -421z"/>
<path d="M2682 3483 l3 -38 377 -3 378 -2 2 -378 3 -377 38 -3 37 -3 0 420 0
421 -421 0 -420 0 3 -37z"/>
<path d="M3015 2942 c-55 -4 -714 -70 -797 -80 l-67 -8 -359 -360 c-197 -197
-376 -376 -398 -396 -38 -36 -46 -39 -284 -93 -443 -100 -434 -98 -414 -112
10 -7 14 -13 9 -13 -5 0 282 -292 639 -649 402 -402 654 -647 663 -644 9 4 11
0 7 -13 -5 -13 -4 -16 3 -9 6 6 43 154 83 330 40 176 76 328 80 339 3 10 184
196 402 415 l396 396 6 65 c16 175 57 596 67 685 6 55 9 111 8 125 -4 22 -8
25 -44 22z m-683 -663 c113 -74 126 -240 25 -323 -130 -106 -310 -36 -332 130
-6 40 -3 61 12 95 24 55 74 106 116 119 51 15 139 5 179 -21z m-1154 -388 c-1
-6 -36 -44 -76 -85 l-74 -76 -33 26 c-34 25 -70 72 -63 80 3 2 53 15 112 28
59 14 110 27 114 30 9 10 24 7 20 -3z m805 -954 c-15 -70 -32 -127 -37 -127
-5 0 -23 15 -40 33 -67 70 -68 60 19 147 44 44 80 78 82 76 2 -2 -9 -60 -24
-129z"/>
<path d="M641 1246 l-245 -245 35 -39 c35 -42 77 -57 65 -25 -4 10 -4 14 0 10
11 -11 204 184 197 197 -3 6 -2 8 2 3 11 -10 46 23 38 36 -3 5 -2 7 4 4 5 -3
60 45 123 108 l114 114 -42 40 c-23 23 -43 41 -45 41 -1 0 -112 -110 -246
-244z"/>
<path d="M913 1096 l-187 -186 44 -45 44 -45 164 162 c90 90 172 175 183 189
l19 27 -40 42 -40 42 -187 -186z"/>
<path d="M1186 941 c-131 -132 -126 -116 -66 -183 l26 -28 122 123 c67 68 122
127 122 131 0 12 -63 76 -74 76 -6 0 -65 -54 -130 -119z"/>
<path d="M1455 790 l-60 -60 45 -45 45 -45 63 63 62 63 -38 42 c-21 23 -43 42
-48 42 -5 0 -36 -27 -69 -60z"/>
<path d="M0 421 l0 -421 421 0 420 0 -3 37 -3 38 -377 3 -378 2 -2 378 -3 377
-37 3 -38 3 0 -420z"/>
<path d="M3447 833 c-4 -3 -7 -174 -7 -380 l0 -373 -377 -2 -378 -3 -3 -37 -3
-38 420 0 421 0 0 420 0 420 -33 0 c-19 0 -37 -3 -40 -7z"/>
</g>
</svg>
